<svg width="32" height="32" viewBox="0 0 32 32" fill="none" xmlns="http://www.w3.org/2000/svg">
<g clip-path="url(#clip0_2308_10173)">
<path d="M10.667 16.0001C10.667 15.6465 10.8075 15.3073 11.0575 15.0573C11.3076 14.8072 11.6467 14.6667 12.0003 14.6667H20.0003C20.3539 14.6667 20.6931 14.8072 20.9431 15.0573C21.1932 15.3073 21.3337 15.6465 21.3337 16.0001V20.0001C21.3337 20.3537 21.1932 20.6928 20.9431 20.9429C20.6931 21.1929 20.3539 21.3334 20.0003 21.3334H12.0003C11.6467 21.3334 11.3076 21.1929 11.0575 20.9429C10.8075 20.6928 10.667 20.3537 10.667 20.0001V16.0001Z" stroke="#F4F4F7" stroke-width="1.5" stroke-linecap="round" stroke-linejoin="round"/>
<path d="M13.333 14.6666V11.9999C13.333 11.2927 13.614 10.6144 14.1141 10.1143C14.6142 9.6142 15.2924 9.33325 15.9997 9.33325C16.7069 9.33325 17.3852 9.6142 17.8853 10.1143C18.3854 10.6144 18.6663 11.2927 18.6663 11.9999V14.6666" stroke="#F4F4F7" stroke-width="1.5" stroke-linecap="round" stroke-linejoin="round"/>
<path d="M5.33301 7.99992C5.33301 7.29267 5.61396 6.6144 6.11406 6.1143C6.61415 5.6142 7.29243 5.33325 7.99967 5.33325H23.9997C24.7069 5.33325 25.3852 5.6142 25.8853 6.1143C26.3854 6.6144 26.6663 7.29267 26.6663 7.99992V23.9999C26.6663 24.7072 26.3854 25.3854 25.8853 25.8855C25.3852 26.3856 24.7069 26.6666 23.9997 26.6666H7.99967C7.29243 26.6666 6.61415 26.3856 6.11406 25.8855C5.61396 25.3854 5.33301 24.7072 5.33301 23.9999V7.99992Z" stroke="#F4F4F7" stroke-width="1.5" stroke-linecap="round" stroke-linejoin="round"/>
</g>
<defs>
<clipPath id="clip0_2308_10173">
<rect width="32" height="32" fill="white"/>
</clipPath>
</defs>
</svg>
