<svg width="32" height="32" viewBox="0 0 32 32" fill="none" xmlns="http://www.w3.org/2000/svg">
<path d="M16.4547 25.5895H6.87863C5.45676 25.5895 4.2998 24.4402 4.2998 23.0276V12.4602C4.2998 11.9079 4.74752 11.4602 5.2998 11.4602H23.3053C23.8575 11.4602 24.3053 11.9079 24.3053 12.4602V15.9104" stroke="white" stroke-width="1.5" stroke-linecap="round" stroke-linejoin="round"/>
<path fill-rule="evenodd" clip-rule="evenodd" d="M24.3053 9.83255V11.466H4.2998V9.83255C4.2998 8.40327 5.45438 7.24463 6.87863 7.24463H21.7264C23.1507 7.24463 24.3053 8.40327 24.3053 9.83255Z" stroke="white" stroke-width="1.5" stroke-linecap="round" stroke-linejoin="round"/>
<path d="M19.0801 8.44091V5.58984" stroke="white" stroke-width="1.5" stroke-linecap="round" stroke-linejoin="round"/>
<path d="M9.52979 8.44091V5.58984" stroke="white" stroke-width="1.5" stroke-linecap="round" stroke-linejoin="round"/>
<path fill-rule="evenodd" clip-rule="evenodd" d="M15.008 13.9856C15.4521 13.9856 15.8121 14.3456 15.8121 14.7897V15.8486C15.8121 16.2927 15.4521 16.6527 15.008 16.6527H13.9491C13.505 16.6527 13.145 16.2927 13.145 15.8486V14.7897C13.145 14.3456 13.505 13.9856 13.9491 13.9856H15.008Z" fill="white"/>
<path fill-rule="evenodd" clip-rule="evenodd" d="M19.9563 13.9856C20.4003 13.9856 20.7603 14.3456 20.7603 14.7897V15.8486C20.7603 16.2927 20.4003 16.6527 19.9563 16.6527H18.8973C18.4533 16.6527 18.0933 16.2927 18.0933 15.8486V14.7897C18.0933 14.3456 18.4533 13.9856 18.8973 13.9856H19.9563Z" fill="white"/>
<path fill-rule="evenodd" clip-rule="evenodd" d="M10.0593 13.9856C10.5034 13.9856 10.8634 14.3456 10.8634 14.7897V15.8486C10.8634 16.2927 10.5034 16.6527 10.0593 16.6527H9.00037C8.55629 16.6527 8.19629 16.2927 8.19629 15.8486V14.7897C8.19629 14.3456 8.55629 13.9856 9.00037 13.9856H10.0593Z" fill="white"/>
<path fill-rule="evenodd" clip-rule="evenodd" d="M10.0593 19.4678C10.5034 19.4678 10.8634 19.8278 10.8634 20.2719V21.3308C10.8634 21.7748 10.5034 22.1348 10.0593 22.1348H9.00037C8.55629 22.1348 8.19629 21.7749 8.19629 21.3308V20.2719C8.19629 19.8278 8.55629 19.4678 9.00037 19.4678H10.0593Z" fill="white"/>
<path fill-rule="evenodd" clip-rule="evenodd" d="M15.008 19.4678C15.4521 19.4678 15.8121 19.8278 15.8121 20.2719V21.3308C15.8121 21.7748 15.4521 22.1348 15.008 22.1348H13.9491C13.505 22.1348 13.145 21.7749 13.145 21.3308V20.2719C13.145 19.8278 13.505 19.4678 13.9491 19.4678H15.008Z" fill="white"/>
<path fill-rule="evenodd" clip-rule="evenodd" d="M22.8177 27.325C20.2187 27.325 18.1045 25.2107 18.1045 22.6117C18.1045 20.0127 20.2187 17.8984 22.8177 17.8984C25.4168 17.8984 27.531 20.0127 27.531 22.6117C27.531 25.2107 25.4168 27.325 22.8177 27.325Z" stroke="white" stroke-width="1.5" stroke-linecap="round" stroke-linejoin="round"/>
<path d="M25.5473 21.497L22.6013 23.0117L20.96 20.668" stroke="white" stroke-width="1.4" stroke-linecap="round" stroke-linejoin="round"/>
</svg>
