<svg width="32" height="32" viewBox="0 0 32 32" fill="none" xmlns="http://www.w3.org/2000/svg">
<path d="M13.3353 14.4815C11.0244 14.4815 12.9052 13.146 12.5233 11.7964C11.5865 8.48629 15.209 13.2336 15.2714 13.8576C15.3339 14.4815 15.3818 11.9868 15.896 12.3582C17.0202 13.1705 17.8321 12.3582 20.6426 10.4221" stroke="white" stroke-width="1.5" stroke-linecap="round"/>
<path d="M5.9468 7.58423C4.76037 7.58423 3.80273 8.37748 3.80273 9.36025V19.2596H28.1974V9.36025C28.1974 8.37748 27.2397 7.58423 26.0533 7.58423" stroke="white" stroke-width="1.5" stroke-linecap="round" stroke-linejoin="round"/>
<path fill-rule="evenodd" clip-rule="evenodd" d="M21.839 26.4938H12.1611L13.5557 23.5788C13.6393 23.3845 13.9043 23.2484 14.211 23.2484H19.7891C20.0959 23.2484 20.3608 23.3845 20.4445 23.5788L21.839 26.4938Z" stroke="white" stroke-width="1.5" stroke-linecap="round" stroke-linejoin="round"/>
<path fill-rule="evenodd" clip-rule="evenodd" d="M28.1974 19.26V21.1609C28.1974 22.3153 27.2397 23.2473 26.0533 23.2473H5.9468C4.76037 23.2473 3.80273 22.3153 3.80273 21.1609V19.26H28.1974Z" stroke="white" stroke-width="1.5" stroke-linecap="round" stroke-linejoin="round"/>
<path d="M8.47021 19.26V5.5061H16.1163H23.7624V19.26" stroke="white" stroke-width="1.5" stroke-linecap="round" stroke-linejoin="round"/>
</svg>
