<svg width="32" height="32" viewBox="0 0 32 32" fill="none" xmlns="http://www.w3.org/2000/svg">
<g clip-path="url(#clip0_2308_10095)">
<path d="M12.881 26.3171H5V6.73706H7.58729M20.2921 12.8198V6.73706H17.7048" stroke="white" stroke-width="1.4" stroke-linecap="round" stroke-linejoin="round"/>
<path d="M17.1188 6.51444C17.1188 5.96215 16.6711 5.51443 16.1188 5.51443H14.2615C14.2114 4.66969 13.5081 4 12.6476 4C11.787 4 11.0837 4.66969 11.0336 5.51443H9.17627C8.62398 5.51443 8.17627 5.96214 8.17627 6.51443V7.63773C8.17627 8.19002 8.62398 8.63773 9.17627 8.63773H16.1188C16.6711 8.63773 17.1188 8.19003 17.1188 7.63775L17.1188 6.51444Z" stroke="white" stroke-width="1.4" stroke-linecap="round" stroke-linejoin="round"/>
<path d="M18.2394 16.4145C18.9459 15.4144 20.4293 15.4144 21.1358 16.4145V16.4145C21.4892 16.9148 22.0758 17.1972 22.6872 17.1616V17.1616C23.9096 17.0904 24.8345 18.2502 24.4931 19.4261V19.4261C24.3223 20.0143 24.4672 20.6489 24.8763 21.1048V21.1048C25.6941 22.0161 25.364 23.4624 24.2317 23.9286V23.9286C23.6654 24.1618 23.2595 24.6708 23.1582 25.2748V25.2748C22.9556 26.4824 21.619 27.126 20.5485 26.5315V26.5315C20.0131 26.2341 19.3621 26.2341 18.8267 26.5315V26.5315C17.7562 27.126 16.4196 26.4824 16.217 25.2748V25.2748C16.1157 24.6708 15.7098 24.1618 15.1435 23.9286V23.9286C14.0112 23.4624 13.6811 22.0161 14.4989 21.1048V21.1048C14.908 20.6489 15.0529 20.0143 14.8821 19.4261V19.4261C14.5407 18.2502 15.4656 17.0904 16.688 17.1616V17.1616C17.2994 17.1972 17.886 16.9148 18.2394 16.4145V16.4145Z" stroke="white" stroke-width="1.4" stroke-linecap="round"/>
<ellipse cx="19.6879" cy="21.4059" rx="2.72603" ry="2.72598" stroke="white" stroke-width="1.4" stroke-linecap="round"/>
<path d="M8.17627 12.7419H14.4276" stroke="white" stroke-width="1.4" stroke-linecap="round" stroke-linejoin="round"/>
<path d="M8.17627 16.0293H11.8835" stroke="white" stroke-width="1.4" stroke-linecap="round" stroke-linejoin="round"/>
<path d="M8.17627 19.3164H11.8835" stroke="white" stroke-width="1.4" stroke-linecap="round" stroke-linejoin="round"/>
</g>
<defs>
<clipPath id="clip0_2308_10095">
<rect width="32" height="32" fill="white"/>
</clipPath>
</defs>
</svg>
