<svg width="32" height="32" viewBox="0 0 32 32" fill="none" xmlns="http://www.w3.org/2000/svg">
<g clip-path="url(#clip0_2308_10147)">
<path d="M26.6672 21.6639C27.569 19.9517 28.0794 18.0013 28.0794 15.9317C28.0794 9.12835 22.5642 3.61316 15.7609 3.61316C14.285 3.61316 12.8698 3.8727 11.5583 4.34864M21.1763 26.9991C19.5419 27.8003 17.7039 28.2502 15.7609 28.2502C8.95757 28.2502 3.44238 22.735 3.44238 15.9317C3.44238 13.6956 4.03815 11.5988 5.0796 9.79109" stroke="white" stroke-width="1.5" stroke-linecap="round" stroke-linejoin="round"/>
<path d="M28.4983 22.1339L25.6086 22.6039L25.3528 19.6874" stroke="white" stroke-width="1.5" stroke-linecap="round" stroke-linejoin="round"/>
<path d="M2.56261 10.5333L5.09137 9.05805L6.37644 11.6886" stroke="white" stroke-width="1.5" stroke-linecap="round" stroke-linejoin="round"/>
<path fill-rule="evenodd" clip-rule="evenodd" d="M21.0626 16.562L21.0812 15.6542C21.0812 15.6542 22.5674 14.3033 22.5315 14.2093L21.9812 12.802C21.94 12.7053 19.9287 12.7188 19.9287 12.7188L19.2986 12.0581C19.2986 12.0581 19.3757 10.0411 19.2813 9.99947L17.8975 9.37236C17.7991 9.32804 16.4126 10.7622 16.4126 10.7622L15.5033 10.726C15.5033 10.726 14.1222 9.2233 14.0291 9.25956L12.6187 9.7873C12.5243 9.82087 12.5708 11.8258 12.5708 11.8258L11.9128 12.4475C11.9128 12.4475 9.88821 12.3374 9.847 12.4287L9.2395 13.7984C9.19696 13.8951 10.6552 15.3011 10.6552 15.3011L10.6366 16.2035C10.6366 16.2035 9.15176 17.5571 9.18765 17.6511L9.73933 19.0597C9.77921 19.1537 11.7905 19.139 11.7905 19.139L12.4193 19.8023C12.4193 19.8023 12.3462 21.8193 12.4405 21.8609L13.8244 22.4854C13.9201 22.5297 15.3079 21.1036 15.3079 21.1036L16.2185 21.1344C16.2185 21.1344 17.597 22.6371 17.6928 22.6035L19.0992 22.0758C19.1962 22.0422 19.1497 20.0346 19.1497 20.0346L19.8064 19.4183C19.8064 19.4183 21.831 19.523 21.8735 19.4317L22.481 18.062C22.5196 17.968 21.0626 16.562 21.0626 16.562Z" stroke="white" stroke-width="1.5" stroke-linecap="round" stroke-linejoin="round"/>
<path fill-rule="evenodd" clip-rule="evenodd" d="M18.313 17.0393C17.7209 18.3816 16.1397 18.9775 14.7845 18.3636C13.4356 17.753 12.8161 16.1603 13.4082 14.8147C13.9971 13.4757 15.5831 12.8832 16.9319 13.4937C18.2824 14.1109 18.9019 15.7003 18.313 17.0393Z" stroke="white" stroke-width="1.5" stroke-linecap="round" stroke-linejoin="round"/>
</g>
<defs>
<clipPath id="clip0_2308_10147">
<rect width="32" height="32" fill="white"/>
</clipPath>
</defs>
</svg>
