<svg width="32" height="32" viewBox="0 0 32 32" fill="none" xmlns="http://www.w3.org/2000/svg">
<path d="M11.9366 27.2993H5V6.86084H7.70072M20.9626 10.7093L20.9626 6.86084H18.2619" stroke="white" stroke-width="1.5" stroke-linecap="round" stroke-linejoin="round"/>
<path d="M17.6501 6.87468C17.6501 6.16226 17.0726 5.58473 16.3601 5.58473H14.6675C14.6152 4.70296 13.8811 4.00391 12.9828 4.00391C12.0845 4.00391 11.3503 4.70296 11.2981 5.58473H9.60536C8.89295 5.58473 8.31543 6.16225 8.31543 6.87466V7.55505C8.31543 8.26745 8.89295 8.84497 9.60536 8.84497H16.3601C17.0725 8.84497 17.65 8.26747 17.6501 7.55507L17.6501 6.87468Z" stroke="white" stroke-width="1.5" stroke-linecap="round" stroke-linejoin="round"/>
<path d="M8.31543 13.129H14.8408" stroke="white" stroke-width="1.5" stroke-linecap="round" stroke-linejoin="round"/>
<path d="M8.31543 16.5605H12.1852" stroke="white" stroke-width="1.5" stroke-linecap="round" stroke-linejoin="round"/>
<path d="M8.31543 19.9919H12.1852" stroke="white" stroke-width="1.5" stroke-linecap="round" stroke-linejoin="round"/>
<path fill-rule="evenodd" clip-rule="evenodd" d="M18.5917 27.13L27.0784 15.8361C27.0784 15.8361 26.4258 14.3756 25.3056 13.547C24.1855 12.7183 22.5979 12.5216 22.5979 12.5216L14.1112 23.8156L14.2722 28.2836L18.5917 27.13Z" stroke="white" stroke-width="1.5" stroke-linecap="round" stroke-linejoin="round"/>
<path d="M18.5908 27.127C18.5908 27.127 17.9905 25.5956 16.8704 24.767C15.7503 23.9384 14.1103 23.8125 14.1103 23.8125" stroke="white" stroke-width="1.5" stroke-linecap="round" stroke-linejoin="round"/>
</svg>
