<svg width="32" height="32" viewBox="0 0 32 32" fill="none" xmlns="http://www.w3.org/2000/svg">
<g clip-path="url(#clip0_2308_11285)">
<path d="M6.66699 28V6.66667C6.66699 5.95942 6.94794 5.28115 7.44804 4.78105C7.94814 4.28095 8.62641 4 9.33366 4H22.667C23.3742 4 24.0525 4.28095 24.5526 4.78105C25.0527 5.28115 25.3337 5.95942 25.3337 6.66667V28L21.3337 25.3333L18.667 28L16.0003 25.3333L13.3337 28L10.667 25.3333L6.66699 28Z" stroke="#D0D1D2" stroke-width="1.5" stroke-linecap="round" stroke-linejoin="round"/>
<path d="M18.6663 10.6667H15.333C14.8026 10.6667 14.2939 10.8775 13.9188 11.2525C13.5437 11.6276 13.333 12.1363 13.333 12.6667C13.333 13.1972 13.5437 13.7059 13.9188 14.081C14.2939 14.456 14.8026 14.6667 15.333 14.6667H16.6663C17.1968 14.6667 17.7055 14.8775 18.0806 15.2525C18.4556 15.6276 18.6663 16.1363 18.6663 16.6667C18.6663 17.1972 18.4556 17.7059 18.0806 18.081C17.7055 18.456 17.1968 18.6667 16.6663 18.6667H13.333M15.9997 18.6667V20.6667M15.9997 8.66675V10.6667" stroke="#D0D1D2" stroke-width="1.5" stroke-linecap="round" stroke-linejoin="round"/>
</g>
<defs>
<clipPath id="clip0_2308_11285">
<rect width="32" height="32" fill="white"/>
</clipPath>
</defs>
</svg>
