<svg width="32" height="32" viewBox="0 0 32 32" fill="none" xmlns="http://www.w3.org/2000/svg">
<g clip-path="url(#clip0_2308_11259)">
<path d="M13.7651 16.2922H19.8053" stroke="white" stroke-linecap="round" stroke-linejoin="round"/>
<path d="M17.5786 20.9L22.0978 20.9227" stroke="white" stroke-linecap="round" stroke-linejoin="round"/>
<circle cx="22.2752" cy="20.9229" r="0.921691" fill="white" stroke="white" stroke-width="1.5" stroke-linecap="round" stroke-linejoin="round"/>
<circle cx="24.8014" cy="27.5957" r="0.921514" fill="white" stroke="white" stroke-width="1.5" stroke-linecap="round" stroke-linejoin="round"/>
<circle cx="20.4161" cy="16.3701" r="0.921514" fill="white" stroke="white" stroke-width="1.5" stroke-linecap="round" stroke-linejoin="round"/>
<circle cx="22.2752" cy="11.3913" r="0.921691" fill="white" stroke="white" stroke-width="1.5" stroke-linecap="round" stroke-linejoin="round"/>
<circle cx="24.7742" cy="4.92169" r="0.921691" fill="white" stroke="white" stroke-width="1.5" stroke-linecap="round" stroke-linejoin="round"/>
<path d="M17.6191 7.12721H22.6663L24.4515 5.28418" stroke="white" stroke-linecap="round" stroke-linejoin="round"/>
<path d="M17.5559 11.3914H22.0979" stroke="white" stroke-linecap="round" stroke-linejoin="round"/>
<path d="M17.6318 24.9022H22.4486L24.4513 27.205" stroke="white" stroke-linecap="round" stroke-linejoin="round"/>
<path d="M17.49 5.45544H15.7082C15.5417 5.45544 14.4468 8.40481 14.4468 8.40481L13.1072 8.94779C13.1072 8.94779 10.1396 7.68726 10.0259 7.79585L8.3227 9.46337C8.20489 9.58009 9.56073 12.4229 9.56073 12.4229L9.00824 13.7372C9.00824 13.7372 6 14.8932 6 15.0515V17.4082C6 17.5706 9.01535 18.6433 9.01535 18.6433L9.56886 19.9536C9.56886 19.9536 8.28106 22.8573 8.3938 22.9689L10.099 24.6344C10.2138 24.7471 13.1215 23.4216 13.1215 23.4216L14.4631 23.9666C14.4631 23.9666 15.6473 26.9058 15.8098 26.9058H17.49V19.7557C17.49 19.7557 13.4679 19.9384 13.4679 16.1806C13.4679 12.4229 17.49 12.6056 17.49 12.6056V5.45544Z" stroke="white" stroke-width="1.5" stroke-linecap="round" stroke-linejoin="round"/>
</g>
<defs>
<clipPath id="clip0_2308_11259">
<rect width="32" height="32" fill="white"/>
</clipPath>
</defs>
</svg>
