<svg width="32" height="32" viewBox="0 0 32 32" fill="none" xmlns="http://www.w3.org/2000/svg">
<g clip-path="url(#clip0_2308_11269)">
<path d="M26.062 27.3484L26.062 10.1921" stroke="white" stroke-width="2" stroke-linecap="round" stroke-linejoin="round"/>
<path d="M22.1113 27.1198L22.1113 17.1095" stroke="white" stroke-width="2" stroke-linecap="round" stroke-linejoin="round"/>
<path d="M17.958 27.1152L17.958 20.6855" stroke="white" stroke-width="2" stroke-linecap="round" stroke-linejoin="round"/>
<path d="M15.3291 27.3542L28.3291 27.3542" stroke="white" stroke-width="2" stroke-linecap="round" stroke-linejoin="round"/>
<path d="M14.8172 23.7353C14.8172 24.5144 12.5045 25.146 9.65176 25.146C6.79897 25.146 4.48633 24.5144 4.48633 23.7353C4.48633 22.9562 4.48633 21.0925 4.48633 21.0925C4.48633 21.0925 6.15642 22.1182 10.281 22.1182C13.7248 22.1182 14.8172 21.0925 14.8172 21.0925C14.8172 21.0925 14.8172 23.3208 14.8172 23.7353Z" stroke="white" stroke-width="1.4" stroke-linecap="round" stroke-linejoin="round"/>
<path d="M14.8172 26.7607C14.8172 27.5398 12.5045 28.1714 9.65176 28.1714C6.79897 28.1714 4.48633 27.5398 4.48633 26.7607C4.48633 25.9816 4.48633 24.1179 4.48633 24.1179C4.48633 24.1179 6.15642 25.1436 10.281 25.1436C13.7248 25.1436 14.8172 24.1179 14.8172 24.1179C14.8172 24.1179 14.8172 26.3462 14.8172 26.7607Z" stroke="white" stroke-width="1.4" stroke-linecap="round" stroke-linejoin="round"/>
<path d="M14.8172 20.8432C14.8172 21.6223 12.5045 22.2539 9.65176 22.2539C6.79897 22.2539 4.48633 21.6223 4.48633 20.8432C4.48633 20.0641 4.48633 18.2004 4.48633 18.2004C4.48633 18.2004 6.15642 19.2261 10.281 19.2261C13.7248 19.2261 14.8172 18.2004 14.8172 18.2004C14.8172 18.2004 14.8172 20.4287 14.8172 20.8432Z" stroke="white" stroke-width="1.4" stroke-linecap="round" stroke-linejoin="round"/>
<ellipse cx="9.69747" cy="17.8033" rx="5.21114" ry="1.4107" stroke="white" stroke-width="1.4" stroke-linecap="round"/>
<path d="M11.3096 13.9874L14.6969 10.5095L16.7633 12.2597L20.2374 8.31613" stroke="white" stroke-width="2" stroke-linecap="round" stroke-linejoin="round"/>
<path d="M18.1655 6.63314C17.8019 6.75354 17.7031 7.22142 17.9871 7.4785L21.3681 10.5387C21.6511 10.7949 22.1052 10.6522 22.1908 10.2802L23.2323 5.7559C23.3197 5.37595 22.958 5.04654 22.5879 5.16908L18.1655 6.63314Z" fill="white"/>
</g>
<defs>
<clipPath id="clip0_2308_11269">
<rect width="32" height="32" fill="white"/>
</clipPath>
</defs>
</svg>
