<svg width="32" height="32" viewBox="0 0 32 32" fill="none" xmlns="http://www.w3.org/2000/svg">
<g clip-path="url(#clip0_2308_11277)">
<path d="M11.1998 15.6016H10.1981C9.49865 15.6016 8.93408 16.3004 8.93408 17.1661V23.8867C8.93408 24.9913 9.82951 25.8867 10.9341 25.8867H21.3157C22.4203 25.8867 23.3157 24.9913 23.3157 23.8867V17.1661C23.3157 16.3004 22.7512 15.6016 22.0517 15.6016H21.05" stroke="white" stroke-width="1.5" stroke-linecap="round" stroke-linejoin="round"/>
<path d="M8.25977 21.6839C5.42847 21.6839 3.125 19.3804 3.125 16.5489C3.125 13.8618 5.16456 11.6648 7.8143 11.4387C7.94965 6.96305 11.6257 3.37109 16.125 3.37109C20.6268 3.37109 24.3047 6.96767 24.4354 11.4389C27.0852 11.6651 29.1245 13.8621 29.125 16.5489C29.125 19.3804 26.8215 21.6839 23.9902 21.6839" stroke="white" stroke-width="1.5" stroke-linecap="round" stroke-linejoin="round"/>
<path d="M19.4809 12.0036L18.981 11.9934C18.9782 12.1326 19.0335 12.2667 19.1337 12.3634L19.4809 12.0036ZM19.4929 11.4181L19.1566 11.0481C19.055 11.1405 18.9959 11.2706 18.9931 11.4078L19.4929 11.4181ZM20.4284 10.4861L20.8955 10.3077L20.894 10.304L20.4284 10.4861ZM20.0734 9.57835L20.5391 9.39625C20.5372 9.39157 20.5353 9.38693 20.5334 9.38231L20.0734 9.57835ZM18.7496 9.52464L18.3877 9.86971C18.4829 9.9695 18.615 10.0256 18.7529 10.0246L18.7496 9.52464ZM18.3432 9.09849L17.8435 9.07939C17.8384 9.21441 17.8881 9.34577 17.9813 9.44356L18.3432 9.09849ZM18.332 7.77065L18.1256 8.22608L18.1302 8.22812L18.332 7.77065ZM17.4395 7.36614L17.6458 6.91073L17.6448 6.91027L17.4395 7.36614ZM16.4817 8.26263L16.4618 8.76223C16.6042 8.76791 16.7422 8.71259 16.8412 8.61015L16.4817 8.26263ZM15.8953 8.23924L15.5271 8.5776C15.6171 8.67552 15.7424 8.73355 15.8753 8.73885L15.8953 8.23924ZM14.9444 7.29339L15.1196 7.76172L15.1259 7.75927L14.9444 7.29339ZM14.0347 7.63379L14.2023 8.10494L14.2099 8.10208L14.0347 7.63379ZM14.0038 8.94864L14.3472 9.31206C14.4501 9.21484 14.507 9.07856 14.5037 8.93704L14.0038 8.94864ZM13.5794 9.34968L13.5522 9.84894C13.6892 9.85639 13.8231 9.80727 13.9228 9.7131L13.5794 9.34968ZM12.247 9.33755L11.7912 9.13188L11.7899 9.13484L12.247 9.33755ZM11.8551 10.221L11.3981 10.0183L11.3975 10.0197L11.8551 10.221ZM12.7683 11.1903L13.2682 11.2006C13.271 11.0613 13.2156 10.9271 13.1153 10.8303L12.7683 11.1903ZM12.7563 11.7724L13.0931 12.1419C13.1944 12.0495 13.2533 11.9197 13.2562 11.7827L12.7563 11.7724ZM11.8217 12.7061L11.3546 12.8844L11.3561 12.8884L11.8217 12.7061ZM12.1775 13.6147L11.7118 13.7971L11.7172 13.81L12.1775 13.6147ZM13.5005 13.6658L13.8634 13.3219C13.7681 13.2213 13.6354 13.1648 13.4968 13.1658L13.5005 13.6658ZM13.9061 14.0937L14.4057 14.1118C14.4106 13.9777 14.3613 13.8472 14.269 13.7497L13.9061 14.0937ZM13.9198 15.4215L14.1254 14.9658L14.1216 14.9641L13.9198 15.4215ZM14.8123 15.8243L15.0224 15.3706L15.018 15.3686L14.8123 15.8243ZM15.7692 14.933L15.7862 14.4333C15.6454 14.4285 15.5091 14.4834 15.4109 14.5843L15.7692 14.933ZM16.3565 14.9529L16.725 14.6149C16.6343 14.516 16.5076 14.4578 16.3735 14.4532L16.3565 14.9529ZM17.3074 15.9005L17.4729 16.3725L17.4831 16.3687L17.3074 15.9005ZM18.2146 15.5601L18.051 15.0874L18.0389 15.092L18.2146 15.5601ZM18.2471 14.2435L17.9049 13.879C17.8013 13.9763 17.744 14.113 17.7473 14.2551L18.2471 14.2435ZM18.6707 13.846L18.6965 13.3466C18.5606 13.3396 18.4277 13.3883 18.3285 13.4814L18.6707 13.846ZM20.004 13.8546L20.4573 14.0658L20.461 14.0573L20.004 13.8546ZM20.3958 12.9711L20.853 13.1739L20.8584 13.1609L20.3958 12.9711ZM17.6324 12.2793L18.0899 12.4811L18.0901 12.4806L17.6324 12.2793ZM15.4645 13.093L15.6708 12.6375L15.6707 12.6375L15.4645 13.093ZM14.619 10.9125L15.0766 11.1139L15.0767 11.1138L14.619 10.9125ZM16.7839 10.1009L16.9917 9.64613L16.9901 9.64539L16.7839 10.1009ZM19.9808 12.0139L19.9928 11.4283L18.9931 11.4078L18.981 11.9934L19.9808 12.0139ZM19.4929 11.4181C19.8293 11.7881 19.8293 11.7881 19.8293 11.7881C19.8293 11.788 19.8293 11.788 19.8293 11.788C19.8294 11.788 19.8294 11.7879 19.8295 11.7879C19.8297 11.7877 19.8298 11.7876 19.8301 11.7873C19.8306 11.7869 19.8313 11.7862 19.8323 11.7853C19.8342 11.7836 19.837 11.781 19.8406 11.7778C19.8478 11.7712 19.8583 11.7616 19.8716 11.7494C19.8983 11.725 19.9362 11.6903 19.9815 11.6484C20.0721 11.5647 20.1932 11.452 20.3141 11.3369C20.4338 11.223 20.5581 11.1021 20.6527 11.0036C20.6986 10.9557 20.7459 10.9046 20.7834 10.8582C20.8006 10.837 20.8276 10.8023 20.852 10.7612C20.8634 10.7419 20.8853 10.7029 20.9024 10.6513C20.9131 10.6191 20.9598 10.4762 20.8955 10.3077L19.9613 10.6644C19.8984 10.4997 19.9447 10.3623 19.9531 10.3369C19.9679 10.2921 19.9857 10.2615 19.9914 10.2519C20.0042 10.2302 20.0131 10.2205 20.0063 10.2289C19.9958 10.2418 19.9719 10.2687 19.9313 10.311C19.8527 10.3929 19.7416 10.5013 19.6246 10.6127C19.5087 10.723 19.3916 10.832 19.3032 10.9136C19.2591 10.9544 19.2222 10.9881 19.1965 11.0117C19.1837 11.0234 19.1736 11.0326 19.1668 11.0388C19.1634 11.0419 19.1608 11.0443 19.1591 11.0459C19.1582 11.0466 19.1576 11.0472 19.1572 11.0476C19.157 11.0478 19.1568 11.0479 19.1567 11.048C19.1567 11.0481 19.1567 11.0481 19.1566 11.0481C19.1566 11.0481 19.1566 11.0481 19.1566 11.0481C19.1566 11.0481 19.1566 11.0481 19.4929 11.4181ZM20.894 10.304L20.5391 9.39625L19.6078 9.76044L19.9627 10.6682L20.894 10.304ZM20.5334 9.38231C20.4662 9.22459 20.3429 9.154 20.3117 9.13654C20.2647 9.11019 20.2227 9.09616 20.2008 9.08945C20.1547 9.0753 20.1109 9.06786 20.0834 9.06372C20.0237 9.05472 19.9537 9.04888 19.887 9.04465C19.7498 9.03594 19.5758 9.03103 19.4101 9.02818C19.2427 9.0253 19.0769 9.02443 18.9534 9.02426C18.8915 9.02418 18.8399 9.02428 18.8037 9.02439C18.7857 9.02445 18.7714 9.02452 18.7616 9.02457C18.7567 9.02459 18.7529 9.02461 18.7503 9.02463C18.7491 9.02464 18.7481 9.02464 18.7474 9.02465C18.747 9.02465 18.7468 9.02465 18.7466 9.02465C18.7465 9.02465 18.7464 9.02465 18.7463 9.02465C18.7463 9.02465 18.7463 9.02465 18.7463 9.02465C18.7463 9.02465 18.7462 9.02465 18.7496 9.52464C18.7529 10.0246 18.7529 10.0246 18.7529 10.0246C18.7529 10.0246 18.7529 10.0246 18.7529 10.0246C18.7529 10.0246 18.753 10.0246 18.7531 10.0246C18.7532 10.0246 18.7534 10.0246 18.7537 10.0246C18.7542 10.0246 18.7551 10.0246 18.7562 10.0246C18.7586 10.0246 18.7621 10.0246 18.7667 10.0246C18.7759 10.0245 18.7896 10.0244 18.807 10.0244C18.8419 10.0243 18.8919 10.0242 18.952 10.0243C19.0726 10.0244 19.2327 10.0253 19.3929 10.028C19.5548 10.0308 19.7102 10.0354 19.8237 10.0426C19.8824 10.0464 19.918 10.0501 19.9344 10.0525C19.9449 10.0541 19.9317 10.0529 19.9075 10.0455C19.8966 10.0421 19.8634 10.0316 19.8228 10.0089C19.7981 9.99504 19.679 9.9282 19.6134 9.77438L20.5334 9.38231ZM19.1114 9.17957L18.705 8.75341L17.9813 9.44356L18.3877 9.86971L19.1114 9.17957ZM18.3432 9.09849C18.8428 9.11758 18.8428 9.11757 18.8428 9.11755C18.8428 9.11753 18.8428 9.11751 18.8428 9.11748C18.8428 9.11742 18.8428 9.11735 18.8428 9.11725C18.8428 9.11707 18.8428 9.1168 18.8428 9.11645C18.8429 9.11576 18.8429 9.11477 18.843 9.11347C18.843 9.11087 18.8432 9.10708 18.8434 9.10218C18.8437 9.09236 18.8442 9.07807 18.8449 9.05994C18.8461 9.02368 18.8479 8.97199 18.8498 8.90994C18.8535 8.78608 18.8579 8.61981 18.8604 8.45197C18.8628 8.2858 18.8635 8.11144 18.8592 7.97395C18.8571 7.90716 18.8536 7.83706 18.8466 7.77726C18.8434 7.74983 18.8374 7.70584 18.8248 7.65929C18.8188 7.63731 18.8061 7.59434 18.7809 7.54596C18.7646 7.51469 18.6958 7.38462 18.5338 7.31317L18.1302 8.22812C17.9721 8.15835 17.9068 8.03245 17.8939 8.00768C17.8721 7.9658 17.8625 7.93165 17.8596 7.92067C17.8529 7.89613 17.8521 7.88285 17.8534 7.89356C17.8553 7.91005 17.8579 7.946 17.8597 8.00494C17.8632 8.11894 17.8629 8.27487 17.8605 8.4373C17.8581 8.59807 17.8539 8.75872 17.8502 8.87963C17.8484 8.93997 17.8467 8.99013 17.8455 9.02513C17.8449 9.04262 17.8444 9.05631 17.844 9.06556C17.8439 9.07019 17.8437 9.07371 17.8437 9.07604C17.8436 9.0772 17.8436 9.07807 17.8436 9.07863C17.8435 9.07891 17.8435 9.07912 17.8435 9.07924C17.8435 9.07931 17.8435 9.07935 17.8435 9.07937C17.8435 9.07939 17.8435 9.07939 17.8435 9.0794C17.8435 9.07939 17.8435 9.07939 18.3432 9.09849ZM18.5384 7.31523L17.6458 6.91073L17.2331 7.82156L18.1256 8.22606L18.5384 7.31523ZM17.6448 6.91027C17.4868 6.83906 17.347 6.87159 17.3068 6.8819C17.2515 6.89609 17.2094 6.91657 17.188 6.92766C17.1431 6.95095 17.1055 6.97767 17.0829 6.99435C17.0336 7.0308 16.9798 7.0768 16.9303 7.12096C16.8281 7.21205 16.7034 7.33194 16.5862 7.4472C16.4677 7.5637 16.3519 7.68058 16.2659 7.76799C16.2229 7.81178 16.1871 7.84839 16.1621 7.87411C16.1495 7.88698 16.1397 7.89714 16.1329 7.90412C16.1295 7.90761 16.1269 7.91031 16.1251 7.91216C16.1242 7.91309 16.1235 7.9138 16.123 7.9143C16.1228 7.91454 16.1226 7.91473 16.1225 7.91487C16.1224 7.91494 16.1224 7.91499 16.1223 7.91503C16.1223 7.91505 16.1223 7.91507 16.1223 7.91508C16.1223 7.9151 16.1222 7.91511 16.4817 8.26263C16.8412 8.61015 16.8412 8.61016 16.8412 8.61016C16.8412 8.61015 16.8412 8.61015 16.8412 8.61014C16.8412 8.61013 16.8413 8.6101 16.8413 8.61005C16.8414 8.60997 16.8415 8.60982 16.8417 8.60963C16.8421 8.60923 16.8427 8.60862 16.8435 8.60779C16.8451 8.60614 16.8475 8.60365 16.8507 8.60038C16.857 8.59382 16.8664 8.58413 16.8785 8.57176C16.9026 8.54701 16.9372 8.51156 16.979 8.46908C17.0627 8.38393 17.1744 8.27133 17.2874 8.16014C17.4017 8.0477 17.5124 7.94169 17.5958 7.86736C17.639 7.82882 17.6655 7.80724 17.6773 7.79856C17.6852 7.79268 17.6733 7.80246 17.6485 7.81535C17.6371 7.82123 17.6036 7.83813 17.5554 7.8505C17.5224 7.85899 17.3882 7.89144 17.2341 7.82202L17.6448 6.91027ZM16.5016 7.76303L15.9152 7.73964L15.8753 8.73885L16.4618 8.76223L16.5016 7.76303ZM15.8953 8.23924C16.2634 7.90089 16.2634 7.90088 16.2634 7.90086C16.2633 7.90085 16.2633 7.90084 16.2633 7.90082C16.2633 7.90077 16.2632 7.90072 16.2632 7.90065C16.263 7.90051 16.2629 7.90031 16.2626 7.90006C16.2621 7.89955 16.2615 7.89881 16.2606 7.89784C16.2588 7.89592 16.2562 7.8931 16.2529 7.88945C16.2461 7.88216 16.2363 7.87155 16.2239 7.8581C16.199 7.83119 16.1635 7.79289 16.1207 7.74703C16.0353 7.6555 15.9202 7.5331 15.8027 7.41096C15.6864 7.28998 15.5633 7.16461 15.4631 7.06924C15.4144 7.02287 15.3628 6.97552 15.3163 6.93803C15.295 6.92086 15.2604 6.89401 15.2197 6.86989C15.2006 6.8586 15.1618 6.83679 15.1104 6.81968C15.08 6.80952 14.9342 6.76075 14.7629 6.8275L15.1259 7.75927C14.9583 7.82456 14.8179 7.77627 14.7944 7.76841C14.7499 7.75359 14.7195 7.7359 14.7103 7.73041C14.6892 7.71793 14.6799 7.70951 14.6887 7.7166C14.7024 7.72764 14.7302 7.75218 14.7735 7.79338C14.8572 7.87316 14.9681 7.98572 15.0819 8.10413C15.1947 8.22137 15.3061 8.33983 15.3896 8.4293C15.4312 8.47394 15.4658 8.51118 15.4898 8.53719C15.5019 8.55019 15.5113 8.56038 15.5176 8.56728C15.5208 8.57072 15.5232 8.57335 15.5248 8.57509C15.5256 8.57596 15.5262 8.57661 15.5266 8.57703C15.5268 8.57724 15.5269 8.57739 15.527 8.57749C15.5271 8.57753 15.5271 8.57757 15.5271 8.57758C15.5271 8.57759 15.5271 8.5776 15.5271 8.5776C15.5271 8.5776 15.5271 8.5776 15.8953 8.23924ZM14.7692 6.8251L13.8594 7.1655L14.2099 8.10208L15.1196 7.76167L14.7692 6.8251ZM13.8671 7.16271C13.6896 7.22583 13.6113 7.36241 13.5931 7.39488C13.5652 7.44478 13.5509 7.48944 13.5445 7.51151C13.5307 7.55868 13.5239 7.60321 13.5203 7.63024C13.5123 7.68962 13.5078 7.75925 13.5047 7.82527C13.4984 7.96136 13.4965 8.13431 13.4964 8.29917C13.4964 8.46571 13.4982 8.63084 13.5001 8.7539C13.5011 8.81554 13.502 8.8669 13.5027 8.90294C13.5031 8.92096 13.5034 8.93516 13.5036 8.94492C13.5037 8.9498 13.5038 8.95357 13.5039 8.95615C13.5039 8.95744 13.5039 8.95843 13.5039 8.95911C13.5039 8.95946 13.5039 8.95972 13.5039 8.95991C13.5039 8.96 13.5039 8.96008 13.5039 8.96013C13.5039 8.96016 13.5039 8.96019 13.5039 8.9602C13.5039 8.96022 13.5039 8.96024 14.0038 8.94864C14.5037 8.93704 14.5037 8.93705 14.5037 8.93705C14.5037 8.93704 14.5037 8.93704 14.5037 8.93703C14.5037 8.937 14.5037 8.93696 14.5037 8.9369C14.5037 8.93677 14.5037 8.93657 14.5037 8.93629C14.5036 8.93573 14.5036 8.93487 14.5036 8.93371C14.5035 8.93139 14.5035 8.9279 14.5034 8.9233C14.5032 8.9141 14.5029 8.9005 14.5025 8.88312C14.5019 8.84835 14.5009 8.79851 14.5 8.73858C14.4982 8.61848 14.4964 8.45897 14.4964 8.2995C14.4965 8.13835 14.4984 7.98395 14.5036 7.87147C14.5063 7.81321 14.5094 7.77826 14.5115 7.76277C14.5129 7.75237 14.5117 7.76689 14.5041 7.79274C14.5008 7.80415 14.4899 7.84032 14.4653 7.88406C14.4506 7.91036 14.3759 8.0431 14.2022 8.10487L13.8671 7.16271ZM13.6604 8.58522L13.236 8.98625L13.9228 9.7131L14.3472 9.31206L13.6604 8.58522ZM13.5794 9.34968C13.6065 8.85041 13.6065 8.85041 13.6065 8.85041C13.6065 8.85041 13.6065 8.85041 13.6064 8.85041C13.6064 8.85041 13.6063 8.8504 13.6062 8.8504C13.606 8.85039 13.6058 8.85037 13.6054 8.85035C13.6047 8.85032 13.6037 8.85026 13.6024 8.85019C13.5998 8.85005 13.596 8.84985 13.5911 8.84959C13.5813 8.84907 13.5669 8.84832 13.5487 8.84739C13.5124 8.84553 13.4605 8.84295 13.3983 8.84004C13.274 8.83424 13.1072 8.82708 12.9389 8.82177C12.7722 8.81652 12.5975 8.81287 12.4599 8.81464C12.3931 8.8155 12.3232 8.81774 12.2638 8.82348C12.2366 8.82611 12.1929 8.83111 12.1467 8.84249C12.1251 8.84783 12.0819 8.85948 12.0331 8.88343C12.0034 8.89797 11.8664 8.96527 11.7912 9.13189L12.7027 9.54321C12.6292 9.70614 12.4964 9.77002 12.4732 9.78138C12.4308 9.80213 12.3965 9.81085 12.3859 9.81347C12.3617 9.81942 12.3489 9.81991 12.3599 9.81884C12.377 9.81719 12.4135 9.81532 12.4728 9.81455C12.5876 9.81308 12.7443 9.81614 12.9074 9.82128C13.0689 9.82637 13.2302 9.83328 13.3516 9.83895C13.4122 9.84178 13.4626 9.84429 13.4977 9.84609C13.5153 9.84699 13.529 9.8477 13.5383 9.8482C13.543 9.84844 13.5465 9.84863 13.5489 9.84876C13.55 9.84882 13.5509 9.84887 13.5515 9.8489C13.5518 9.84891 13.552 9.84892 13.5521 9.84893C13.5522 9.84893 13.5522 9.84894 13.5522 9.84894C13.5522 9.84894 13.5522 9.84894 13.5522 9.84894C13.5522 9.84894 13.5522 9.84894 13.5794 9.34968ZM11.7899 9.13484L11.3981 10.0183L12.3122 10.4238L12.704 9.54026L11.7899 9.13484ZM11.3975 10.0197C11.326 10.1822 11.3631 10.3249 11.3732 10.3619C11.3881 10.4161 11.4089 10.4573 11.4199 10.4779C11.4433 10.5216 11.4699 10.5584 11.4866 10.5808C11.5232 10.6295 11.5696 10.6832 11.6144 10.7331C11.7068 10.8359 11.8285 10.9618 11.9458 11.0805C12.0642 11.2003 12.1829 11.3177 12.2718 11.4047C12.3163 11.4483 12.3535 11.4846 12.3796 11.5099C12.3927 11.5226 12.403 11.5326 12.4101 11.5395C12.4136 11.5429 12.4164 11.5455 12.4183 11.5474C12.4192 11.5483 12.4199 11.549 12.4204 11.5494C12.4207 11.5497 12.4209 11.5499 12.421 11.55C12.4211 11.5501 12.4211 11.5501 12.4212 11.5502C12.4212 11.5502 12.4212 11.5502 12.4212 11.5502C12.4212 11.5502 12.4212 11.5502 12.7683 11.1903C13.1153 10.8303 13.1153 10.8304 13.1153 10.8304C13.1153 10.8303 13.1153 10.8303 13.1153 10.8303C13.1153 10.8303 13.1153 10.8303 13.1152 10.8302C13.1151 10.8302 13.115 10.83 13.1148 10.8298C13.1144 10.8294 13.1138 10.8288 13.1129 10.828C13.1112 10.8264 13.1087 10.8239 13.1054 10.8207C13.0987 10.8143 13.0888 10.8047 13.0762 10.7925C13.051 10.768 13.015 10.7329 12.9717 10.6905C12.885 10.6056 12.7704 10.4923 12.6571 10.3776C12.5426 10.2617 12.4343 10.1493 12.3581 10.0645C12.3186 10.0206 12.296 9.99319 12.2864 9.98044C12.2801 9.97201 12.2892 9.98296 12.3018 10.0065C12.3075 10.0171 12.3245 10.0497 12.3374 10.0967C12.3457 10.1266 12.3826 10.2638 12.3128 10.4224L11.3975 10.0197ZM12.2684 11.18L12.2564 11.762L13.2562 11.7827L13.2682 11.2006L12.2684 11.18ZM12.7563 11.7724C12.4194 11.4029 12.4194 11.4029 12.4194 11.4029C12.4194 11.4029 12.4194 11.4029 12.4193 11.4029C12.4193 11.403 12.4193 11.403 12.4192 11.4031C12.419 11.4032 12.4188 11.4034 12.4186 11.4036C12.4181 11.4041 12.4174 11.4047 12.4164 11.4056C12.4145 11.4074 12.4117 11.4099 12.4081 11.4132C12.4009 11.4198 12.3904 11.4294 12.3771 11.4416C12.3505 11.466 12.3126 11.5009 12.2673 11.5428C12.1768 11.6266 12.0558 11.7395 11.935 11.8549C11.8154 11.9691 11.6913 12.0901 11.5968 12.1888C11.5509 12.2368 11.5037 12.288 11.4663 12.3344C11.4491 12.3556 11.4221 12.3903 11.3978 12.4314C11.3864 12.4507 11.3646 12.4896 11.3476 12.5412C11.337 12.5733 11.2903 12.7161 11.3546 12.8844L12.2888 12.5277C12.3516 12.6923 12.3055 12.8297 12.2971 12.8549C12.2823 12.8997 12.2646 12.9302 12.2589 12.9398C12.2461 12.9615 12.2374 12.9712 12.2442 12.9628C12.2547 12.9498 12.2785 12.9228 12.3191 12.8804C12.3977 12.7984 12.5087 12.6898 12.6256 12.5781C12.7414 12.4676 12.8583 12.3584 12.9467 12.2766C12.9908 12.2358 13.0276 12.2019 13.0532 12.1784C13.0661 12.1666 13.0761 12.1574 13.083 12.1512C13.0864 12.148 13.0889 12.1457 13.0907 12.1441C13.0915 12.1433 13.0922 12.1427 13.0926 12.1424C13.0928 12.1422 13.0929 12.142 13.093 12.142C13.0931 12.1419 13.0931 12.1419 13.0931 12.1419C13.0931 12.1419 13.0931 12.1419 13.0931 12.1419C13.0931 12.1419 13.0931 12.1419 12.7563 11.7724ZM11.3561 12.8884L11.712 13.797L12.6431 13.4324L12.2873 12.5238L11.3561 12.8884ZM11.7172 13.81C11.7858 13.9717 11.9136 14.0424 11.9431 14.0586C11.9901 14.0843 12.032 14.0979 12.0535 14.1043C12.099 14.118 12.1423 14.1251 12.1695 14.1291C12.2286 14.1377 12.2982 14.1433 12.3647 14.1473C12.5015 14.1557 12.6751 14.1603 12.8407 14.1629C13.008 14.1656 13.1737 14.1663 13.2972 14.1663C13.359 14.1664 13.4106 14.1662 13.4467 14.1661C13.4648 14.166 13.479 14.1659 13.4888 14.1659C13.4937 14.1659 13.4975 14.1658 13.5001 14.1658C13.5014 14.1658 13.5024 14.1658 13.5031 14.1658C13.5034 14.1658 13.5037 14.1658 13.5039 14.1658C13.5039 14.1658 13.504 14.1658 13.5041 14.1658C13.5041 14.1658 13.5041 14.1658 13.5041 14.1658C13.5042 14.1658 13.5042 14.1658 13.5005 13.6658C13.4968 13.1658 13.4968 13.1658 13.4968 13.1658C13.4968 13.1658 13.4968 13.1658 13.4968 13.1658C13.4968 13.1658 13.4968 13.1658 13.4967 13.1658C13.4966 13.1658 13.4964 13.1658 13.4961 13.1658C13.4955 13.1658 13.4947 13.1658 13.4935 13.1658C13.4912 13.1659 13.4877 13.1659 13.483 13.1659C13.4738 13.166 13.4602 13.166 13.4427 13.1661C13.4078 13.1662 13.3578 13.1664 13.2976 13.1663C13.1771 13.1663 13.0169 13.1656 12.8566 13.1631C12.6947 13.1605 12.5392 13.1561 12.4255 13.1492C12.3668 13.1456 12.3308 13.142 12.314 13.1396C12.3033 13.138 12.316 13.1391 12.3398 13.1462C12.3504 13.1494 12.3835 13.1596 12.424 13.1818C12.4472 13.1945 12.5708 13.2615 12.6378 13.4194L11.7172 13.81ZM13.1376 14.0098L13.5432 14.4377L14.269 13.7497L13.8634 13.3219L13.1376 14.0098ZM13.9061 14.0937C13.4064 14.0756 13.4064 14.0756 13.4064 14.0756C13.4064 14.0756 13.4064 14.0757 13.4064 14.0757C13.4064 14.0757 13.4064 14.0758 13.4064 14.0759C13.4064 14.0761 13.4064 14.0764 13.4064 14.0767C13.4063 14.0774 13.4063 14.0784 13.4062 14.0797C13.4062 14.0823 13.406 14.0861 13.4059 14.091C13.4055 14.1008 13.405 14.1151 13.4044 14.1332C13.4032 14.1695 13.4016 14.2212 13.3998 14.2832C13.3963 14.4071 13.3923 14.5734 13.3901 14.7412C13.388 14.9074 13.3877 15.0817 13.3922 15.2192C13.3944 15.286 13.3981 15.3561 13.4052 15.4158C13.4085 15.4432 13.4145 15.4872 13.4272 15.5337C13.4332 15.5556 13.446 15.5985 13.4711 15.6467C13.4874 15.6779 13.5563 15.8077 13.718 15.879L14.1216 14.9641C14.2795 15.0337 14.3448 15.1593 14.3576 15.184C14.3794 15.2257 14.389 15.2598 14.392 15.2707C14.3987 15.2952 14.3995 15.3084 14.3982 15.2977C14.3963 15.2812 14.3936 15.2452 14.3917 15.1863C14.3879 15.0723 14.388 14.9163 14.3901 14.7539C14.3921 14.5931 14.396 14.4325 14.3994 14.3116C14.4012 14.2512 14.4027 14.2011 14.4039 14.1661C14.4045 14.1486 14.4049 14.1349 14.4053 14.1256C14.4054 14.121 14.4055 14.1175 14.4056 14.1152C14.4057 14.114 14.4057 14.1131 14.4057 14.1126C14.4057 14.1123 14.4057 14.1121 14.4057 14.112C14.4057 14.1119 14.4057 14.1118 14.4057 14.1118C14.4057 14.1118 14.4057 14.1118 14.4057 14.1118C14.4057 14.1118 14.4057 14.1118 13.9061 14.0937ZM13.7141 15.8773L14.6067 16.2801L15.018 15.3686L14.1254 14.9658L13.7141 15.8773ZM14.6023 16.278C14.763 16.3524 14.9059 16.3186 14.9452 16.3085C15.0005 16.2942 15.0426 16.2737 15.0638 16.2627C15.1083 16.2396 15.1457 16.2131 15.168 16.1966C15.217 16.1605 15.2705 16.1148 15.3199 16.071C15.4217 15.9805 15.5464 15.8614 15.6635 15.7469C15.7819 15.6311 15.8978 15.5149 15.9838 15.428C16.0269 15.3844 16.0627 15.348 16.0877 15.3225C16.1003 15.3097 16.1101 15.2996 16.1169 15.2926C16.1203 15.2892 16.1229 15.2865 16.1247 15.2846C16.1256 15.2837 16.1263 15.283 16.1268 15.2825C16.127 15.2823 16.1272 15.2821 16.1273 15.282C16.1274 15.2819 16.1274 15.2818 16.1275 15.2818C16.1275 15.2818 16.1275 15.2818 16.1275 15.2817C16.1275 15.2817 16.1276 15.2817 15.7692 14.933C15.4109 14.5843 15.4109 14.5843 15.4109 14.5843C15.4109 14.5843 15.4109 14.5843 15.4109 14.5843C15.4109 14.5843 15.4108 14.5844 15.4108 14.5844C15.4107 14.5845 15.4106 14.5846 15.4104 14.5848C15.41 14.5852 15.4094 14.5858 15.4086 14.5867C15.407 14.5883 15.4046 14.5908 15.4014 14.594C15.395 14.6006 15.3856 14.6102 15.3735 14.6225C15.3494 14.6471 15.3148 14.6824 15.273 14.7246C15.1892 14.8093 15.0774 14.9213 14.9643 15.0319C14.85 15.1437 14.7393 15.2492 14.6559 15.3232C14.6127 15.3616 14.5862 15.3831 14.5743 15.3919C14.5663 15.3978 14.5781 15.3881 14.6028 15.3753C14.6139 15.3695 14.6475 15.3525 14.6959 15.3401C14.7281 15.3318 14.8656 15.298 15.0224 15.3706L14.6023 16.278ZM15.7523 15.4327L16.3396 15.4527L16.3735 14.4532L15.7862 14.4333L15.7523 15.4327ZM16.3565 14.9529C15.9881 15.2909 15.9881 15.2909 15.9881 15.291C15.9881 15.291 15.9881 15.291 15.9882 15.291C15.9882 15.2911 15.9882 15.2911 15.9883 15.2912C15.9884 15.2913 15.9886 15.2915 15.9889 15.2918C15.9893 15.2923 15.99 15.293 15.9909 15.294C15.9927 15.2959 15.9953 15.2987 15.9986 15.3024C16.0053 15.3097 16.0151 15.3203 16.0275 15.3337C16.0524 15.3606 16.0878 15.399 16.1306 15.4448C16.2159 15.5364 16.3308 15.6589 16.4481 15.7811C16.5644 15.9022 16.6874 16.0277 16.7876 16.1233C16.8364 16.1699 16.888 16.2173 16.9345 16.2549C16.9559 16.2722 16.9901 16.2988 17.0303 16.3228C17.0493 16.3341 17.0871 16.3555 17.1369 16.3726C17.1667 16.3829 17.306 16.4309 17.4729 16.3723L17.1419 15.4287C17.3049 15.3715 17.4388 15.419 17.4616 15.4268C17.5045 15.4415 17.5337 15.4587 17.5428 15.4641C17.5632 15.4763 17.572 15.4843 17.5632 15.4772C17.5492 15.4659 17.5212 15.4412 17.478 15.3999C17.3941 15.3198 17.2833 15.2071 17.1695 15.0886C17.0569 14.9713 16.9457 14.8527 16.8623 14.7633C16.8207 14.7186 16.7862 14.6814 16.7622 14.6553C16.7502 14.6423 16.7408 14.6322 16.7345 14.6253C16.7313 14.6218 16.7289 14.6192 16.7273 14.6174C16.7265 14.6166 16.7259 14.6159 16.7255 14.6155C16.7253 14.6153 16.7252 14.6151 16.7251 14.615C16.7251 14.615 16.725 14.615 16.725 14.615C16.725 14.6149 16.725 14.6149 16.725 14.6149C16.725 14.6149 16.725 14.6149 16.3565 14.9529ZM17.4831 16.3687L18.3902 16.0282L18.0389 15.092L17.1317 15.4324L17.4831 16.3687ZM18.378 16.0326C18.5539 15.9718 18.6334 15.8387 18.6533 15.8042C18.6823 15.7539 18.6971 15.7086 18.7039 15.6861C18.7184 15.6382 18.7255 15.5929 18.7292 15.5657C18.7375 15.5057 18.7423 15.4355 18.7455 15.3693C18.752 15.2327 18.7541 15.0593 18.7543 14.8942C18.7545 14.7274 18.7526 14.5619 18.7508 14.4387C18.7499 14.3769 18.7489 14.3255 18.7482 14.2894C18.7478 14.2713 18.7475 14.2571 18.7473 14.2473C18.7472 14.2424 18.7471 14.2387 18.7471 14.2361C18.7471 14.2348 18.747 14.2338 18.747 14.2331C18.747 14.2327 18.747 14.2325 18.747 14.2323C18.747 14.2322 18.747 14.2321 18.747 14.2321C18.747 14.232 18.747 14.232 18.747 14.232C18.747 14.232 18.747 14.232 18.2471 14.2435C17.7473 14.2551 17.7473 14.2551 17.7473 14.2551C17.7473 14.2551 17.7473 14.2551 17.7473 14.2551C17.7473 14.2552 17.7473 14.2552 17.7473 14.2553C17.7473 14.2554 17.7473 14.2556 17.7473 14.2559C17.7473 14.2564 17.7473 14.2573 17.7473 14.2585C17.7474 14.2608 17.7475 14.2643 17.7476 14.2689C17.7478 14.2781 17.7481 14.2917 17.7484 14.3091C17.7491 14.3439 17.75 14.3938 17.7509 14.4538C17.7527 14.574 17.7545 14.7336 17.7543 14.8932C17.7542 15.0545 17.752 15.2089 17.7466 15.3212C17.7438 15.3795 17.7407 15.414 17.7386 15.429C17.7372 15.4392 17.7385 15.424 17.7465 15.3974C17.7501 15.3856 17.7615 15.3489 17.787 15.3047C17.8033 15.2764 17.8792 15.1471 18.0511 15.0876L18.378 16.0326ZM18.5893 14.6081L19.0129 14.2105L18.3285 13.4814L17.9049 13.879L18.5893 14.6081ZM18.6707 13.846C18.6449 14.3453 18.6449 14.3453 18.6449 14.3453C18.6449 14.3453 18.6449 14.3453 18.645 14.3453C18.645 14.3453 18.6451 14.3453 18.6452 14.3453C18.6454 14.3453 18.6456 14.3453 18.646 14.3454C18.6467 14.3454 18.6477 14.3454 18.649 14.3455C18.6516 14.3456 18.6554 14.3458 18.6603 14.3461C18.6701 14.3466 18.6845 14.3473 18.7027 14.3482C18.739 14.3499 18.7909 14.3524 18.8531 14.3551C18.9774 14.3606 19.1442 14.3673 19.3126 14.3722C19.4794 14.377 19.6541 14.3802 19.7918 14.3781C19.8587 14.377 19.9286 14.3746 19.988 14.3687C20.0152 14.3661 20.0587 14.361 20.1046 14.3496C20.1262 14.3442 20.1688 14.3327 20.2171 14.3091C20.2465 14.2948 20.3812 14.2289 20.4572 14.0658L19.5507 13.6435C19.625 13.4841 19.7555 13.4216 19.7783 13.4105C19.8201 13.3901 19.8538 13.3815 19.8643 13.3789C19.8881 13.373 19.9007 13.3725 19.8896 13.3736C19.8724 13.3753 19.8357 13.3773 19.7764 13.3782C19.6615 13.38 19.5046 13.3773 19.3415 13.3726C19.18 13.3679 19.0186 13.3614 18.8972 13.3561C18.8366 13.3534 18.7862 13.351 18.751 13.3493C18.7335 13.3485 18.7197 13.3478 18.7104 13.3473C18.7058 13.3471 18.7022 13.3469 18.6999 13.3468C18.6987 13.3468 18.6979 13.3467 18.6973 13.3467C18.697 13.3467 18.6968 13.3467 18.6967 13.3466C18.6966 13.3466 18.6966 13.3466 18.6965 13.3466C18.6965 13.3466 18.6965 13.3466 18.6965 13.3466C18.6965 13.3466 18.6965 13.3466 18.6707 13.846ZM20.461 14.0573L20.8529 13.1738L19.9387 12.7684L19.5469 13.6519L20.461 14.0573ZM20.8584 13.1609C20.9265 12.9949 20.884 12.8516 20.8743 12.8193C20.8587 12.7674 20.838 12.7279 20.8271 12.7083C20.804 12.6665 20.778 12.631 20.7613 12.6091C20.725 12.5615 20.6791 12.5086 20.6342 12.459C20.5418 12.3569 20.4203 12.2314 20.3031 12.113C20.1848 11.9934 20.0661 11.8762 19.9774 11.7892C19.9329 11.7456 19.8958 11.7094 19.8697 11.6841C19.8566 11.6714 19.8463 11.6614 19.8393 11.6546C19.8357 11.6512 19.833 11.6485 19.8311 11.6467C19.8302 11.6458 19.8295 11.6451 19.829 11.6446C19.8287 11.6444 19.8285 11.6442 19.8284 11.6441C19.8283 11.644 19.8283 11.644 19.8282 11.6439C19.8282 11.6439 19.8282 11.6439 19.8282 11.6439C19.8282 11.6439 19.8282 11.6438 19.4809 12.0036C19.1337 12.3634 19.1337 12.3634 19.1337 12.3634C19.1337 12.3634 19.1337 12.3634 19.1337 12.3634C19.1338 12.3634 19.1338 12.3635 19.1338 12.3635C19.1339 12.3636 19.1341 12.3637 19.1343 12.3639C19.1347 12.3643 19.1353 12.3649 19.1362 12.3658C19.1378 12.3674 19.1404 12.3698 19.1437 12.3731C19.1504 12.3795 19.1603 12.3891 19.1729 12.4013C19.1981 12.4258 19.2341 12.461 19.2774 12.5034C19.3641 12.5883 19.4788 12.7016 19.5923 12.8163C19.7069 12.9322 19.8156 13.0448 19.8925 13.1298C19.9322 13.1737 19.9556 13.2016 19.9659 13.2152C19.9726 13.2239 19.9642 13.2141 19.9521 13.1923C19.9467 13.1826 19.93 13.1517 19.9165 13.1068C19.9089 13.0814 19.8667 12.9436 19.9332 12.7814L20.8584 13.1609ZM17.1749 12.0775C16.9255 12.643 16.255 12.9021 15.6708 12.6375L15.2582 13.5484C16.3394 14.0381 17.6117 13.5651 18.0899 12.4811L17.1749 12.0775ZM15.6707 12.6375C15.0877 12.3736 14.825 11.6858 15.0766 11.1139L14.1613 10.7111C13.6854 11.7927 14.1839 13.0621 15.2583 13.5485L15.6707 12.6375ZM15.0767 11.1138C15.3237 10.5522 15.9961 10.2931 16.5777 10.5564L16.9901 9.64539C15.9143 9.15838 14.6379 9.62749 14.1613 10.7112L15.0767 11.1138ZM16.5761 10.5557C17.1636 10.8242 17.4236 11.512 17.1747 12.078L18.0901 12.4806C18.5648 11.4012 18.0635 10.1359 16.9917 9.64613L16.5761 10.5557Z" fill="white"/>
<path fill-rule="evenodd" clip-rule="evenodd" d="M19.3034 28.0186H12.9468L13.8627 26.1038C13.9177 25.9762 14.0917 25.8868 14.2932 25.8868H17.957C18.1585 25.8868 18.3325 25.9762 18.3875 26.1038L19.3034 28.0186Z" stroke="white" stroke-width="1.5" stroke-linecap="round" stroke-linejoin="round"/>
<path d="M18.5474 22.7442V19.1078H20.0495C20.3217 19.1078 20.5567 19.1611 20.7544 19.2676C20.9533 19.3729 21.1065 19.5203 21.2143 19.7097C21.322 19.8979 21.3758 20.1169 21.3758 20.3667C21.3758 20.6176 21.3208 20.8372 21.2107 21.0254C21.1018 21.2124 20.9462 21.3574 20.7437 21.4604C20.5413 21.5634 20.301 21.6149 20.0229 21.6149H19.096V20.9224H19.8595C19.9921 20.9224 20.1028 20.8993 20.1915 20.8532C20.2815 20.807 20.3496 20.7425 20.3957 20.6596C20.4419 20.5756 20.465 20.4779 20.465 20.3667C20.465 20.2542 20.4419 20.1571 20.3957 20.0755C20.3496 19.9926 20.2815 19.9287 20.1915 19.8837C20.1016 19.8387 19.9909 19.8162 19.8595 19.8162H19.4263V22.7442H18.5474Z" fill="white"/>
<path d="M15.4763 22.7442H14.5317L15.7587 19.1078H16.9288L18.1557 22.7442H17.2111L16.357 20.024H16.3286L15.4763 22.7442ZM15.3503 21.313H17.3247V21.9807H15.3503V21.313Z" fill="white"/>
<path d="M13.4668 20.198C13.455 20.0678 13.4023 19.9666 13.3088 19.8944C13.2164 19.821 13.0845 19.7843 12.9128 19.7843C12.7992 19.7843 12.7045 19.7991 12.6287 19.8287C12.553 19.8583 12.4962 19.8991 12.4583 19.9512C12.4204 20.0021 12.4009 20.0607 12.3997 20.127C12.3973 20.1814 12.408 20.2294 12.4316 20.2708C12.4565 20.3122 12.492 20.3489 12.5382 20.3809C12.5855 20.4117 12.6423 20.4389 12.7086 20.4626C12.7749 20.4863 12.8495 20.507 12.9324 20.5247L13.2449 20.5957C13.4248 20.6348 13.5834 20.6869 13.7207 20.752C13.8592 20.8171 13.9752 20.8946 14.0687 20.9846C14.1634 21.0746 14.235 21.1781 14.2836 21.2953C14.3321 21.4125 14.3569 21.5439 14.3581 21.6895C14.3569 21.9191 14.2989 22.1162 14.1841 22.2808C14.0693 22.4453 13.9042 22.5714 13.6887 22.659C13.4745 22.7466 13.2159 22.7904 12.9128 22.7904C12.6086 22.7904 12.3435 22.7448 12.1174 22.6536C11.8913 22.5625 11.7155 22.424 11.59 22.2381C11.4645 22.0523 11.4 21.8173 11.3965 21.5332H12.2381C12.2452 21.6504 12.2766 21.7481 12.3322 21.8262C12.3878 21.9043 12.4642 21.9635 12.5613 22.0038C12.6595 22.044 12.7731 22.0641 12.9022 22.0641C13.0205 22.0641 13.1212 22.0482 13.204 22.0162C13.2881 21.9842 13.3526 21.9399 13.3975 21.883C13.4425 21.8262 13.4656 21.7611 13.4668 21.6877C13.4656 21.6191 13.4443 21.5605 13.4029 21.5119C13.3614 21.4622 13.2975 21.4196 13.2111 21.3841C13.1259 21.3474 13.017 21.3137 12.8844 21.2829L12.5044 21.1941C12.1896 21.1219 11.9416 21.0053 11.7605 20.8443C11.5794 20.6822 11.4894 20.4632 11.4906 20.1874C11.4894 19.9625 11.5498 19.7654 11.6717 19.5961C11.7936 19.4268 11.9623 19.2948 12.1777 19.2002C12.3932 19.1055 12.6388 19.0581 12.9146 19.0581C13.1963 19.0581 13.4408 19.106 13.6479 19.2019C13.8562 19.2966 14.0178 19.4298 14.1326 19.6014C14.2475 19.7731 14.306 19.9719 14.3084 20.198H13.4668Z" fill="white"/>
</g>
<defs>
<clipPath id="clip0_2308_11277">
<rect width="32" height="32" fill="white"/>
</clipPath>
</defs>
</svg>
