<svg width="19" height="18" viewBox="0 0 19 18" fill="none" xmlns="http://www.w3.org/2000/svg">
<path d="M5.26123 3.00024C5.26123 2.46981 5.47194 1.9611 5.84702 1.58603C6.22209 1.21096 6.7308 1.00024 7.26123 1.00024H15.2612C15.7917 1.00024 16.3004 1.21096 16.6754 1.58603C17.0505 1.9611 17.2612 2.46981 17.2612 3.00024V11.0002C17.2612 11.5307 17.0505 12.0394 16.6754 12.4145C16.3004 12.7895 15.7917 13.0002 15.2612 13.0002H7.26123C6.7308 13.0002 6.22209 12.7895 5.84702 12.4145C5.47194 12.0394 5.26123 11.5307 5.26123 11.0002V3.00024Z" stroke="white" stroke-width="1.5" stroke-linecap="round" stroke-linejoin="round"/>
<path d="M1.26025 6.99976C1.26025 6.46932 1.47097 5.96062 1.84604 5.58554C2.22111 5.21047 2.72982 4.99976 3.26025 4.99976H11.2603C11.7907 4.99976 12.2994 5.21047 12.6745 5.58554C13.0495 5.96062 13.2603 6.46932 13.2603 6.99976V14.9998C13.2603 15.5302 13.0495 16.0389 12.6745 16.414C12.2994 16.789 11.7907 16.9998 11.2603 16.9998H3.26025C2.72982 16.9998 2.22111 16.789 1.84604 16.414C1.47097 16.0389 1.26025 15.5302 1.26025 14.9998V6.99976Z" stroke="white" stroke-width="1.5" stroke-linecap="round" stroke-linejoin="round"/>
<path d="M6.26074 12L12.2607 6" stroke="white" stroke-width="1.5" stroke-linecap="round" stroke-linejoin="round"/>
</svg>
