<svg width="25" height="21" viewBox="0 0 25 21" fill="none" xmlns="http://www.w3.org/2000/svg">
<g id="plan">
<g id="Group 1171276362">
<path id="Rectangle" d="M9.37078 19.0015H2.53613C1.98385 19.0015 1.53613 18.5538 1.53613 18.0015V1.74609C1.53613 1.19381 1.98385 0.746094 2.53613 0.746094H14.7938C15.346 0.746094 15.7938 1.19381 15.7938 1.74609V7.45909" stroke="white" stroke-width="1.5" stroke-linecap="round"/>
</g>
<g id="Group 1171276365">
<path id="Rectangle 41460" d="M19.994 19.7527H12" stroke="white" stroke-width="1.5" stroke-linecap="round"/>
<path id="Rectangle 41461" d="M12.873 17.4617H19.1199" stroke="white" stroke-width="1.5" stroke-linecap="round"/>
<g id="Group 1171276366">
<rect id="Rectangle 41462" x="15.4993" y="11.6365" width="4.09286" height="2.87393" rx="1" transform="rotate(-40.8666 15.4993 11.6365)" stroke="white" stroke-width="1.5"/>
<rect id="Rectangle 41463" width="1.93909" height="4.3109" rx="0.969545" transform="matrix(-0.756235 0.6543 0.6543 0.756235 15.0278 11.0957)" stroke="white" stroke-width="1.5"/>
<rect id="Rectangle 41464" width="2.04992" height="4.3109" rx="1" transform="matrix(-0.756235 0.6543 0.6543 0.756235 19.7603 7)" stroke="white" stroke-width="1.5"/>
<path id="Rectangle 41465" d="M19.1699 12.4707L23.2992 17.3311" stroke="white" stroke-width="1.5" stroke-linecap="round"/>
</g>
</g>
<g id="Quality">
<path id="Path" fill-rule="evenodd" clip-rule="evenodd" d="M12.1921 5.87226C12.5926 6.07183 12.8118 6.5132 12.7287 6.95292L12.4694 8.32559C12.1564 9.9828 11.1805 11.4668 9.73922 12.4766L9.01218 12.9861C8.66585 13.2288 8.20429 13.2274 7.85944 12.9826L7.09149 12.4374C5.66917 11.4279 4.70687 9.95408 4.39645 8.3104L4.14025 6.95281C4.05728 6.51314 4.27646 6.07186 4.67693 5.87232L7.9886 4.22222C8.26945 4.08228 8.59969 4.08228 8.88054 4.22222L12.1921 5.87226Z" stroke="white" stroke-width="1.5" stroke-linecap="round"/>
<path id="Vector 2375" d="M6.68188 9.20049L7.84165 10.4477L10.1872 6.94238" stroke="white" stroke-width="1.5" stroke-linecap="round" stroke-linejoin="round"/>
</g>
</g>
</svg>
