<svg width="19" height="18" viewBox="0 0 19 18" fill="none" xmlns="http://www.w3.org/2000/svg">
<g id="Free Upgrades and Updates">
<g id="Visual Style">
<path id="Path" d="M2.97692 3.11182C2.16884 3.11182 1.5166 3.82136 1.5166 4.70043V11.5552C1.5166 12.6597 2.41203 13.5552 3.5166 13.5552H16.1318C17.2363 13.5552 18.1318 12.6597 18.1318 11.5552V4.70043C18.1318 3.82136 17.4795 3.11182 16.6714 3.11182" stroke="white" stroke-width="1.5" stroke-linecap="round" stroke-linejoin="round"/>
<g id="Group 2085652174">
<g id="Automated">
<path id="Ellipse 3398" d="M14.4542 8.31849C14.8285 7.60785 15.0404 6.79835 15.0404 5.93936C15.0404 3.1157 12.7513 0.82666 9.92765 0.82666C9.3151 0.82666 8.72771 0.934382 8.1834 1.13192M12.1753 10.5328C11.4969 10.8654 10.7341 11.0521 9.92765 11.0521C7.10398 11.0521 4.81494 8.76303 4.81494 5.93936C4.81494 5.01132 5.06221 4.14102 5.49446 3.39076" stroke="white" stroke-linecap="round" stroke-linejoin="round"/>
<path id="Vector 2522" d="M15.2142 8.51296L14.0153 8.70793L13.9092 7.49797" stroke="white" stroke-linecap="round" stroke-linejoin="round"/>
<path id="Vector 2523" d="M4.44982 3.69888L5.49894 3.08683L6.03208 4.17817" stroke="white" stroke-linecap="round" stroke-linejoin="round"/>
<g id="Group 2085652363">
<path id="Exclude" fill-rule="evenodd" clip-rule="evenodd" d="M12.1276 6.20151L12.1353 5.82474C12.1353 5.82474 12.7522 5.26406 12.7373 5.22504L12.5089 4.64095C12.4918 4.60082 11.657 4.60639 11.657 4.60639L11.3955 4.33218C11.3955 4.33218 11.4275 3.49505 11.3883 3.47777L10.8139 3.21749C10.7731 3.1991 10.1977 3.79434 10.1977 3.79434L9.82027 3.7793C9.82027 3.7793 9.24702 3.15563 9.2084 3.17068L8.62302 3.38971C8.58384 3.40365 8.60315 4.23576 8.60315 4.23576L8.33005 4.49381C8.33005 4.49381 7.48976 4.44811 7.47266 4.48601L7.22051 5.0545C7.20286 5.09463 7.80811 5.67816 7.80811 5.67816L7.80038 6.0527C7.80038 6.0527 7.1841 6.6145 7.199 6.65351L7.42796 7.23817C7.44452 7.27718 8.27929 7.27105 8.27929 7.27105L8.54026 7.54638C8.54026 7.54638 8.50991 8.38351 8.54908 8.40078L9.12344 8.65995C9.16316 8.67834 9.73917 8.08644 9.73917 8.08644L10.1171 8.09926C10.1171 8.09926 10.6893 8.72293 10.729 8.70899L11.3127 8.48996C11.353 8.47602 11.3337 7.6428 11.3337 7.6428L11.6062 7.38698C11.6062 7.38698 12.4465 7.43045 12.4642 7.39255L12.7163 6.82406C12.7323 6.78505 12.1276 6.20151 12.1276 6.20151ZM10.9856 6.39968C10.7399 6.95656 10.0839 7.20375 9.52167 6.94909C8.96208 6.69578 8.70504 6.03499 8.9507 5.47676C9.19502 4.92124 9.853 4.6754 10.4126 4.92871C10.9728 5.18474 11.2299 5.84416 10.9856 6.39968Z" fill="white"/>
</g>
</g>
</g>
<path id="Path_2" fill-rule="evenodd" clip-rule="evenodd" d="M13.0501 16.5547H6.59814L7.52783 13.86C7.58361 13.6804 7.76025 13.5547 7.96475 13.5547H11.6835C11.888 13.5547 12.0646 13.6804 12.1204 13.86L13.0501 16.5547Z" stroke="white" stroke-width="1.5" stroke-linecap="round" stroke-linejoin="round"/>
</g>
</g>
</svg>
