<svg width="23" height="20" viewBox="0 0 23 20" fill="none" xmlns="http://www.w3.org/2000/svg">
<path d="M15.3066 15.1832C15.3066 16.2185 12.2335 17.0578 8.44263 17.0578C4.65174 17.0578 1.57861 16.2185 1.57861 15.1832C1.57861 14.1479 1.57861 11.6714 1.57861 11.6714C1.57861 11.6714 3.79789 13.0344 9.27874 13.0344C13.855 13.0344 15.3066 11.6714 15.3066 11.6714C15.3066 11.6714 15.3066 14.6324 15.3066 15.1832Z" stroke="white" stroke-width="1.4" stroke-linecap="round" stroke-linejoin="round"/>
<path d="M15.3066 10.8688C15.3066 11.9041 12.2335 12.7434 8.44263 12.7434C4.65174 12.7434 1.57861 11.9041 1.57861 10.8688C1.57861 9.83347 1.57861 7.35693 1.57861 7.35693C1.57861 7.35693 3.79789 8.71991 9.27874 8.71991C13.855 8.71991 15.3066 7.35693 15.3066 7.35693C15.3066 7.35693 15.3066 10.3179 15.3066 10.8688Z" stroke="white" stroke-width="1.4" stroke-linecap="round" stroke-linejoin="round"/>
<path d="M15.3066 6.61731C15.3066 7.65262 12.2335 8.4919 8.44263 8.4919C4.65174 8.4919 1.57861 7.65262 1.57861 6.61731C1.57861 5.582 1.57861 3.10547 1.57861 3.10547C1.57861 3.10547 3.79789 4.46845 9.27874 4.46845C13.855 4.46845 15.3066 3.10547 15.3066 3.10547C15.3066 3.10547 15.3066 6.06648 15.3066 6.61731Z" stroke="white" stroke-width="1.4" stroke-linecap="round" stroke-linejoin="round"/>
<ellipse cx="8.38178" cy="2.57772" rx="6.92475" ry="1.87459" stroke="white" stroke-width="1.4" stroke-linecap="round"/>
<rect x="15.3066" y="12.3118" width="6.88428" height="6.11936" rx="1" stroke="white" stroke-width="1.5" stroke-linecap="round"/>
<path d="M20.4794 12.3116V10.3657C20.4794 9.40998 19.7046 8.63525 18.749 8.63525V8.63525C17.7933 8.63525 17.0186 9.40998 17.0186 10.3657V12.3116" stroke="white" stroke-width="1.5" stroke-linecap="round"/>
<circle cx="18.7488" cy="14.99" r="0.76492" fill="white"/>
<path d="M18.7456 14.9873V16.5171" stroke="white" stroke-linecap="round"/>
</svg>
