<svg width="22" height="21" viewBox="0 0 22 21" fill="none" xmlns="http://www.w3.org/2000/svg">
<path d="M18.4523 8.04622C18.4523 4.12881 15.2766 0.953125 11.3592 0.953125C7.4418 0.953125 4.26611 4.12881 4.26611 8.04622" stroke="white" stroke-width="1.5" stroke-linecap="round"/>
<rect x="1.65332" y="8.17969" width="3.40089" height="6.96071" rx="1" stroke="white" stroke-width="1.5" stroke-linecap="round"/>
<rect x="17.6641" y="8.17969" width="3.40089" height="6.96071" rx="1" stroke="white" stroke-width="1.5" stroke-linecap="round"/>
<path d="M7.23126 9.29688H14.8938C15.4461 9.29688 15.8938 9.74459 15.8938 10.2969V16.4363C15.8938 16.9885 15.4461 17.4363 14.8938 17.4363H11.615C11.3749 17.4363 11.1428 17.5227 10.9611 17.6797L8.82696 19.5243C8.17912 20.0843 7.17304 19.6241 7.17304 18.7678V18.4363C7.17304 17.884 6.72532 17.4363 6.17304 17.4363H5.23034C4.69781 17.4363 4.26611 17.0046 4.26611 16.472V16.472" stroke="white" stroke-width="1.5" stroke-linecap="round"/>
<path d="M6.91895 12.0781L13.3595 12.0781" stroke="white" stroke-width="1.5" stroke-linecap="round"/>
<path d="M6.91895 14.8633H10.8734" stroke="white" stroke-width="1.5" stroke-linecap="round"/>
</svg>
