<svg width="32" height="32" viewBox="0 0 32 32" fill="none" xmlns="http://www.w3.org/2000/svg">
<path d="M16.2765 8.03885H5.943C4.8781 8.03885 4.01855 8.8321 4.01855 9.81487V19.7143H25.9144V16.7996" stroke="white" stroke-width="1.5" stroke-linecap="round" stroke-linejoin="round"/>
<rect x="6.89648" y="10.6575" width="8.46167" height="2.25781" stroke="white" stroke-width="1.5" stroke-linecap="round" stroke-linejoin="round"/>
<path d="M7.33496 15.259H14.2773" stroke="white" stroke-width="1.5" stroke-linecap="round"/>
<path d="M7.33496 17.4114H12.4946" stroke="white" stroke-width="1.5" stroke-linecap="round"/>
<path d="M26.6548 11.1048L25.905 11.0894C25.9007 11.2983 25.9837 11.4995 26.134 11.6445L26.6548 11.1048ZM26.668 10.4627L26.1635 9.90771C26.0111 10.0463 25.9224 10.2414 25.9181 10.4473L26.668 10.4627ZM27.6939 9.44061L28.3946 9.17306L28.3924 9.16746L27.6939 9.44061ZM27.3046 8.44512L28.0031 8.17197C28.0003 8.16495 27.9975 8.15798 27.9945 8.15105L27.3046 8.44512ZM25.8527 8.38623L25.31 8.90385C25.4527 9.05351 25.6509 9.13759 25.8577 9.13621L25.8527 8.38623ZM25.407 7.91888L24.6575 7.89023C24.6498 8.09277 24.7244 8.28982 24.8643 8.4365L25.407 7.91888ZM25.3948 6.46269L25.0852 7.14585L25.0921 7.14891L25.3948 6.46269ZM24.4159 6.01909L24.7255 5.33596L24.7239 5.33527L24.4159 6.01909ZM23.3655 7.00223L23.3357 7.75163C23.5492 7.76015 23.7562 7.67717 23.9048 7.52352L23.3655 7.00223ZM22.7224 6.97658L22.1702 7.48412C22.3052 7.631 22.4931 7.71804 22.6925 7.72599L22.7224 6.97658ZM21.6795 5.9393L21.9424 6.6418L21.9518 6.63813L21.6795 5.9393ZM20.6818 6.31261L20.9332 7.01933L20.9447 7.01505L20.6818 6.31261ZM20.648 7.75455L21.1631 8.29969C21.3174 8.15386 21.4027 7.94943 21.3978 7.73715L20.648 7.75455ZM20.1825 8.19435L20.1418 8.94324C20.3472 8.95441 20.5481 8.88075 20.6976 8.73949L20.1825 8.19435ZM18.7213 8.18105L18.0376 7.87253L18.0357 7.87697L18.7213 8.18105ZM18.2915 9.14994L17.6059 8.84586L17.605 8.8479L18.2915 9.14994ZM19.293 10.2129L20.0428 10.2283C20.0471 10.0193 19.964 9.81803 19.8135 9.67294L19.293 10.2129ZM19.2798 10.8512L19.7851 11.4055C19.937 11.267 20.0254 11.0722 20.0296 10.8667L19.2798 10.8512ZM18.2548 11.8752L17.5542 12.1427L17.5565 12.1487L18.2548 11.8752ZM18.6451 12.8716L17.9467 13.1451C17.9493 13.1516 17.9519 13.1581 17.9547 13.1645L18.6451 12.8716ZM20.096 12.9277L20.6403 12.4117C20.4974 12.2609 20.2983 12.1762 20.0905 12.1777L20.096 12.9277ZM20.5408 13.3969L21.2903 13.4241C21.2976 13.2228 21.2237 13.0271 21.0851 12.881L20.5408 13.3969ZM20.5558 14.8531L20.8643 14.1694L20.8585 14.1669L20.5558 14.8531ZM21.5347 15.2948L21.8498 14.6142L21.8432 14.6112L21.5347 15.2948ZM22.5841 14.3174L22.6096 13.5678C22.3984 13.5606 22.194 13.6429 22.0466 13.7943L22.5841 14.3174ZM23.2283 14.3392L23.7809 13.8322C23.6448 13.6839 23.4549 13.5965 23.2537 13.5896L23.2283 14.3392ZM24.2711 15.3784L24.5193 16.0861C24.5244 16.0843 24.5295 16.0825 24.5346 16.0806L24.2711 15.3784ZM25.266 15.0051L25.0207 14.2963C25.0146 14.2984 25.0085 14.3006 25.0025 14.3029L25.266 15.0051ZM25.3017 13.5612L24.7884 13.0144C24.633 13.1603 24.5469 13.3655 24.5519 13.5786L25.3017 13.5612ZM25.7662 13.1252L25.805 12.3762C25.6011 12.3657 25.4018 12.4387 25.2529 12.5784L25.7662 13.1252ZM27.2284 13.1347L27.9084 13.4515L27.914 13.4388L27.2284 13.1347ZM27.6582 12.1659L28.3437 12.4699C28.3466 12.4635 28.3494 12.457 28.3521 12.4504L27.6582 12.1659ZM24.6273 11.404L25.3135 11.7067L25.3139 11.7059L24.6273 11.404ZM22.2498 12.2963L22.5593 11.6131L22.5591 11.613L22.2498 12.2963ZM21.3225 9.90507L22.009 10.2072L22.0091 10.207L21.3225 9.90507ZM23.6968 9.01498L24.0085 8.33283L24.0061 8.33173L23.6968 9.01498ZM27.4047 11.1202L27.4178 10.4781L25.9181 10.4473L25.905 11.0894L27.4047 11.1202ZM26.668 10.4627C27.1725 11.0177 27.1725 11.0177 27.1725 11.0176C27.1725 11.0176 27.1725 11.0176 27.1726 11.0176C27.1726 11.0175 27.1727 11.0175 27.1727 11.0174C27.1729 11.0173 27.1731 11.0171 27.1734 11.0168C27.174 11.0163 27.1748 11.0155 27.1759 11.0146C27.178 11.0126 27.1811 11.0098 27.1851 11.0061C27.1931 10.9989 27.2047 10.9883 27.2194 10.9748C27.2488 10.9479 27.2906 10.9096 27.3406 10.8634C27.4404 10.7713 27.574 10.647 27.7076 10.5198C27.8394 10.3943 27.9783 10.2592 28.0853 10.1478C28.1368 10.0942 28.1933 10.0332 28.2399 9.97565C28.2609 9.94979 28.2978 9.90281 28.3319 9.84509C28.3479 9.81805 28.3799 9.76128 28.4051 9.68517C28.4207 9.63823 28.4908 9.42505 28.3945 9.17307L26.9932 9.70814C26.9423 9.57476 26.9407 9.45656 26.9468 9.38273C26.953 9.30781 26.9694 9.2491 26.9812 9.21361C27.0039 9.14501 27.0314 9.09738 27.0411 9.081C27.0627 9.04458 27.0796 9.02495 27.0743 9.03158C27.0682 9.03903 27.0468 9.06363 27.0033 9.10894C26.9203 9.19537 26.8011 9.3117 26.6733 9.4334C26.5472 9.55342 26.4197 9.67213 26.3231 9.76128C26.2749 9.80573 26.2348 9.84257 26.2068 9.8682C26.1928 9.88101 26.1818 9.891 26.1745 9.89774C26.1708 9.90111 26.168 9.90366 26.1661 9.90534C26.1652 9.90618 26.1645 9.9068 26.1641 9.9072C26.1639 9.9074 26.1637 9.90754 26.1636 9.90762C26.1636 9.90767 26.1635 9.90769 26.1635 9.90771C26.1635 9.90771 26.1635 9.90771 26.1635 9.90772C26.1635 9.90771 26.1635 9.90771 26.668 10.4627ZM28.3924 9.16746L28.0031 8.17197L26.6061 8.71827L26.9954 9.71376L28.3924 9.16746ZM27.9945 8.15105C27.894 7.91525 27.7099 7.81013 27.6645 7.78468C27.5953 7.74589 27.534 7.72555 27.5034 7.71616C27.4387 7.6963 27.3792 7.68639 27.3456 7.68133C27.2714 7.67014 27.1877 7.66331 27.1129 7.65857C26.9577 7.64871 26.7631 7.64327 26.5806 7.64014C26.3956 7.63696 26.2126 7.63599 26.0765 7.63581C26.0082 7.63572 25.9514 7.63583 25.9115 7.63595C25.8915 7.63602 25.8758 7.63609 25.8649 7.63614C25.8595 7.63617 25.8553 7.6362 25.8524 7.63621C25.8509 7.63622 25.8498 7.63623 25.849 7.63623C25.8486 7.63624 25.8483 7.63624 25.8481 7.63624C25.848 7.63624 25.8479 7.63624 25.8478 7.63624C25.8478 7.63624 25.8478 7.63624 25.8478 7.63624C25.8477 7.63624 25.8477 7.63624 25.8527 8.38623C25.8577 9.13621 25.8577 9.13621 25.8577 9.13621C25.8577 9.13621 25.8577 9.13621 25.8577 9.13621C25.8577 9.13621 25.8578 9.13621 25.8578 9.13621C25.858 9.13621 25.8582 9.13621 25.8585 9.1362C25.8591 9.1362 25.86 9.13619 25.8612 9.13619C25.8637 9.13617 25.8675 9.13615 25.8725 9.13613C25.8825 9.13608 25.8973 9.13601 25.9163 9.13595C25.9543 9.13582 26.0089 9.13572 26.0745 9.13581C26.2061 9.13598 26.3805 9.13692 26.5548 9.13991C26.7316 9.14295 26.8982 9.14796 27.0179 9.15556C27.0807 9.15954 27.1129 9.16319 27.122 9.16457C27.1302 9.1658 27.1043 9.1627 27.0635 9.15022C27.0449 9.14451 26.9933 9.128 26.9312 9.09319C26.8929 9.07171 26.7133 8.97071 26.6146 8.73919L27.9945 8.15105ZM26.3955 7.8686L25.9497 7.40126L24.8643 8.4365L25.31 8.90385L26.3955 7.8686ZM25.407 7.91888C26.1565 7.94753 26.1565 7.9475 26.1565 7.94748C26.1565 7.94746 26.1565 7.94742 26.1565 7.94739C26.1565 7.94732 26.1565 7.94724 26.1565 7.94713C26.1565 7.94691 26.1565 7.9466 26.1565 7.94621C26.1565 7.94543 26.1566 7.94431 26.1566 7.94286C26.1567 7.93996 26.1569 7.93575 26.1571 7.93031C26.1575 7.91943 26.1581 7.90364 26.1588 7.88362C26.1602 7.84361 26.1621 7.78662 26.1641 7.71822C26.1683 7.58179 26.1731 7.39831 26.1758 7.21283C26.1785 7.02984 26.1793 6.83491 26.1745 6.6794C26.1722 6.60456 26.1681 6.5208 26.1594 6.44649C26.1555 6.41303 26.1475 6.35324 26.1298 6.28785C26.1215 6.25709 26.103 6.19442 26.0659 6.12315C26.0422 6.07756 25.9396 5.8833 25.6974 5.77647L25.0921 7.14891C24.9643 7.09253 24.8802 7.01283 24.832 6.95739C24.7832 6.90124 24.7527 6.84898 24.7354 6.81577C24.702 6.75163 24.6871 6.69863 24.682 6.67994C24.6708 6.63869 24.6686 6.61257 24.6696 6.62094C24.6707 6.63029 24.6733 6.66282 24.6752 6.72589C24.6789 6.84617 24.6786 7.01345 24.676 7.19082C24.6734 7.36571 24.6688 7.54076 24.6648 7.67276C24.6628 7.73858 24.661 7.79328 24.6597 7.83141C24.659 7.85046 24.6585 7.86535 24.6581 7.87538C24.6579 7.8804 24.6578 7.88421 24.6577 7.88671C24.6576 7.88796 24.6576 7.88889 24.6576 7.88948C24.6576 7.88977 24.6576 7.88998 24.6576 7.89011C24.6575 7.89017 24.6575 7.89021 24.6575 7.89023C24.6575 7.89024 24.6575 7.89024 24.6575 7.89025C24.6575 7.89024 24.6575 7.89023 25.407 7.91888ZM25.7043 5.77956L24.7255 5.33596L24.1063 6.70222L25.0852 7.14582L25.7043 5.77956ZM24.7239 5.33527C24.4876 5.22883 24.2791 5.2776 24.2203 5.2927C24.1388 5.31362 24.0773 5.34361 24.0473 5.35919C23.984 5.39203 23.9327 5.4287 23.905 5.44917C23.8434 5.49474 23.7789 5.55011 23.7233 5.59967C23.6075 5.70294 23.4678 5.83722 23.3387 5.96419C23.2077 6.09302 23.0798 6.22206 22.9851 6.31837C22.9376 6.36667 22.8982 6.40705 22.8705 6.43545C22.8567 6.44966 22.8458 6.46089 22.8382 6.46864C22.8345 6.47251 22.8316 6.47552 22.8296 6.47759C22.8286 6.47862 22.8278 6.47942 22.8272 6.47998C22.827 6.48027 22.8268 6.48049 22.8266 6.48065C22.8265 6.48072 22.8265 6.48079 22.8264 6.48084C22.8264 6.48086 22.8264 6.48089 22.8264 6.4809C22.8263 6.48092 22.8263 6.48094 23.3655 7.00223C23.9048 7.52352 23.9047 7.52353 23.9047 7.52354C23.9047 7.52354 23.9047 7.52354 23.9048 7.52353C23.9048 7.52352 23.9048 7.52349 23.9048 7.52345C23.9049 7.52336 23.9051 7.52321 23.9053 7.52301C23.9057 7.52259 23.9063 7.52194 23.9071 7.52106C23.9089 7.51929 23.9115 7.5166 23.9149 7.51305C23.9218 7.50595 23.932 7.49542 23.9451 7.48195C23.9714 7.455 24.0091 7.41636 24.0547 7.37004C24.146 7.27712 24.2676 7.1545 24.3905 7.03363C24.5153 6.91089 24.6339 6.79742 24.7215 6.7193C24.7428 6.70034 24.7604 6.68513 24.7743 6.67344C24.7812 6.66766 24.7867 6.66325 24.7907 6.66003C24.7949 6.65673 24.7967 6.65537 24.7965 6.6555C24.7964 6.65562 24.7954 6.65636 24.7936 6.65761C24.7918 6.65883 24.7889 6.66086 24.7849 6.66349C24.7783 6.66784 24.7618 6.67835 24.7379 6.69074C24.7189 6.70061 24.6669 6.72669 24.5932 6.7456C24.5422 6.75871 24.3398 6.80739 24.1078 6.70291L24.7239 5.33527ZM23.3954 6.25283L22.7522 6.22718L22.6925 7.72599L23.3357 7.75163L23.3954 6.25283ZM22.7224 6.97658C23.2745 6.46904 23.2745 6.46903 23.2745 6.46901C23.2745 6.46899 23.2745 6.46897 23.2744 6.46894C23.2744 6.4689 23.2743 6.46883 23.2743 6.46875C23.2741 6.46859 23.2739 6.46836 23.2736 6.46807C23.2731 6.46749 23.2723 6.46666 23.2714 6.46559C23.2694 6.46344 23.2665 6.46031 23.2628 6.45627C23.2553 6.4482 23.2445 6.43647 23.2308 6.42163C23.2033 6.39194 23.1641 6.34972 23.117 6.29919C23.0229 6.19839 22.896 6.06337 22.7662 5.92844C22.6381 5.79524 22.5006 5.65517 22.3875 5.54744C22.333 5.49554 22.2715 5.43901 22.2139 5.39257C22.188 5.3717 22.1413 5.33515 22.0841 5.30132C22.0575 5.28555 22.001 5.25368 21.9254 5.22847C21.881 5.2137 21.6635 5.14064 21.4072 5.24047L21.9518 6.63813C21.8156 6.69119 21.6949 6.69247 21.6208 6.68628C21.5454 6.67997 21.4864 6.66329 21.4513 6.65157C21.3831 6.62888 21.3359 6.60152 21.32 6.59212C21.2844 6.57105 21.2655 6.5547 21.2726 6.56044C21.281 6.56722 21.3067 6.58953 21.353 6.63367C21.4416 6.71802 21.5607 6.83888 21.6851 6.96821C21.8078 7.0958 21.9292 7.22492 22.0204 7.32261C22.0658 7.37133 22.1035 7.41195 22.1297 7.44029C22.1428 7.45446 22.1531 7.46555 22.16 7.47303C22.1634 7.47677 22.166 7.47961 22.1677 7.48148C22.1686 7.48242 22.1692 7.48311 22.1697 7.48355C22.1699 7.48378 22.17 7.48393 22.1701 7.48403C22.1701 7.48408 22.1702 7.48411 22.1702 7.48413C22.1702 7.48413 22.1702 7.48413 22.1702 7.48414C22.1702 7.48413 22.1702 7.48412 22.7224 6.97658ZM21.4167 5.23686L20.419 5.61017L20.9447 7.01505L21.9424 6.64174L21.4167 5.23686ZM20.4305 5.60598C20.1651 5.70039 20.0484 5.90448 20.0217 5.95193C19.9805 6.02555 19.9598 6.09082 19.9507 6.12179C19.9313 6.18824 19.9222 6.24899 19.9178 6.28198C19.9079 6.35596 19.9026 6.43932 19.8992 6.51328C19.8921 6.66728 19.8899 6.86069 19.8899 7.04224C19.8898 7.2263 19.8919 7.40853 19.894 7.54407C19.895 7.61202 19.8961 7.66865 19.8969 7.70842C19.8972 7.72832 19.8976 7.74402 19.8978 7.75483C19.8979 7.76024 19.898 7.76442 19.8981 7.7673C19.8981 7.76874 19.8981 7.76986 19.8982 7.77064C19.8982 7.77103 19.8982 7.77133 19.8982 7.77155C19.8982 7.77166 19.8982 7.77175 19.8982 7.77181C19.8982 7.77185 19.8982 7.77188 19.8982 7.7719C19.8982 7.77192 19.8982 7.77195 20.648 7.75455C21.3978 7.73715 21.3978 7.73716 21.3978 7.73716C21.3978 7.73716 21.3978 7.73716 21.3978 7.73715C21.3978 7.73713 21.3978 7.73709 21.3978 7.73703C21.3978 7.7369 21.3978 7.73669 21.3978 7.7364C21.3978 7.73581 21.3977 7.73489 21.3977 7.73365C21.3977 7.73116 21.3976 7.72738 21.3975 7.7224C21.3972 7.71242 21.3969 7.69763 21.3966 7.6787C21.3958 7.64082 21.3948 7.58647 21.3938 7.5211C21.3918 7.38998 21.3898 7.21618 21.3899 7.04273C21.3899 6.86676 21.3921 6.70116 21.3976 6.58258C21.3989 6.55375 21.4003 6.53006 21.4018 6.51136C21.4025 6.50211 21.4031 6.49483 21.4037 6.48933C21.4039 6.48662 21.4042 6.48454 21.4043 6.48304C21.4044 6.48231 21.4045 6.48175 21.4045 6.48136C21.4046 6.48097 21.4046 6.48079 21.4046 6.48079C21.4046 6.4808 21.4046 6.48103 21.4045 6.48148C21.4044 6.48193 21.4043 6.48264 21.4042 6.4836C21.4039 6.48544 21.4034 6.48866 21.4025 6.49304C21.4012 6.50018 21.3975 6.5186 21.3902 6.54364C21.3845 6.56292 21.3675 6.61888 21.33 6.68573C21.3106 6.72039 21.2761 6.77524 21.221 6.8329C21.166 6.89042 21.0721 6.96982 20.9332 7.01924L20.4305 5.60598ZM20.1329 7.2094L19.6674 7.6492L20.6976 8.73949L21.1631 8.29969L20.1329 7.2094ZM20.1825 8.19435C20.2233 7.44545 20.2232 7.44545 20.2232 7.44545C20.2232 7.44545 20.2232 7.44545 20.2231 7.44545C20.2231 7.44544 20.223 7.44544 20.2229 7.44543C20.2226 7.44542 20.2223 7.4454 20.2219 7.44538C20.2212 7.44534 20.22 7.44528 20.2186 7.4452C20.2157 7.44505 20.2115 7.44482 20.206 7.44453C20.1951 7.44396 20.1793 7.44313 20.1592 7.4421C20.1191 7.44005 20.0619 7.43721 19.9933 7.434C19.8564 7.42761 19.6724 7.41971 19.4864 7.41385C19.3029 7.40806 19.1077 7.40394 18.9522 7.40594C18.8774 7.4069 18.794 7.40943 18.7203 7.41655C18.6872 7.41975 18.628 7.42634 18.5631 7.44231C18.5328 7.44977 18.4699 7.46666 18.398 7.50193C18.3547 7.52311 18.1501 7.62336 18.0376 7.87254L19.4049 8.48956C19.3452 8.6217 19.2608 8.70684 19.2035 8.75451C19.1453 8.80294 19.0916 8.83245 19.0581 8.84887C18.9932 8.88065 18.94 8.89431 18.9218 8.89879C18.8811 8.90881 18.8557 8.91045 18.8645 8.9096C18.8747 8.90862 18.908 8.90663 18.9715 8.90581C19.0928 8.90425 19.2611 8.90749 19.4392 8.9131C19.6149 8.91864 19.7907 8.92618 19.9233 8.93237C19.9894 8.93546 20.0444 8.93819 20.0827 8.94015C20.1018 8.94113 20.1168 8.94191 20.1269 8.94244C20.1319 8.94271 20.1357 8.94291 20.1382 8.94305C20.1395 8.94312 20.1404 8.94317 20.141 8.9432C20.1413 8.94321 20.1415 8.94323 20.1417 8.94323C20.1417 8.94324 20.1418 8.94324 20.1418 8.94324C20.1418 8.94324 20.1418 8.94324 20.1418 8.94324C20.1418 8.94324 20.1418 8.94324 20.1825 8.19435ZM18.0357 7.87697L17.6059 8.84586L18.9771 9.45402L19.4068 8.48513L18.0357 7.87697ZM17.605 8.8479C17.4981 9.09089 17.5537 9.30382 17.5686 9.35791C17.5906 9.43771 17.6209 9.49776 17.6364 9.52673C17.6692 9.58818 17.7056 9.6382 17.7261 9.66549C17.7717 9.72627 17.8273 9.79038 17.8776 9.84632C17.9822 9.96269 18.1184 10.1036 18.2475 10.2342C18.3784 10.3667 18.5095 10.4962 18.6073 10.5921C18.6564 10.6402 18.6974 10.6801 18.7263 10.7081C18.7407 10.7221 18.7521 10.7332 18.76 10.7408C18.7639 10.7446 18.7669 10.7475 18.769 10.7495C18.7701 10.7505 18.7709 10.7513 18.7715 10.7519C18.7717 10.7521 18.772 10.7524 18.7721 10.7525C18.7722 10.7526 18.7723 10.7527 18.7723 10.7527C18.7723 10.7527 18.7724 10.7527 18.7724 10.7528C18.7724 10.7528 18.7724 10.7528 19.293 10.2129C19.8135 9.67294 19.8135 9.67295 19.8135 9.67296C19.8135 9.67296 19.8135 9.67296 19.8135 9.67295C19.8135 9.67294 19.8135 9.67291 19.8134 9.67286C19.8134 9.67278 19.8132 9.67263 19.813 9.67243C19.8126 9.67202 19.8119 9.67137 19.811 9.6705C19.8092 9.66876 19.8064 9.66611 19.8028 9.66261C19.7956 9.65561 19.7849 9.64522 19.7711 9.6319C19.7437 9.60525 19.7044 9.56695 19.6572 9.52073C19.5626 9.42802 19.4377 9.30461 19.3145 9.1799C19.1894 9.05337 19.0733 8.93277 18.993 8.84344C18.9735 8.82173 18.9577 8.80364 18.9454 8.78914C18.9394 8.78197 18.9347 8.77626 18.9312 8.77189C18.9294 8.76974 18.9281 8.76807 18.9272 8.76686C18.9267 8.76626 18.9263 8.76581 18.9261 8.76549C18.926 8.76533 18.9259 8.76521 18.9258 8.76513C18.9257 8.76496 18.9259 8.76518 18.9258 8.76503C18.9256 8.76489 18.9258 8.76514 18.9257 8.765C18.9256 8.76487 18.9258 8.76515 18.9258 8.76504C18.9257 8.76492 18.9259 8.76523 18.9258 8.76513C18.9259 8.76522 18.926 8.76536 18.9261 8.76554C18.9264 8.7659 18.9268 8.76647 18.9274 8.76726C18.9284 8.76876 18.9303 8.77141 18.9328 8.77511C18.9368 8.78116 18.947 8.79674 18.9592 8.81957C18.9688 8.83749 18.9951 8.88807 19.0149 8.9601C19.0276 9.00642 19.083 9.21326 18.978 9.45198L17.605 8.8479ZM18.5431 10.1974L18.53 10.8357L20.0296 10.8667L20.0428 10.2283L18.5431 10.1974ZM19.2798 10.8512C18.7745 10.2969 18.7745 10.297 18.7745 10.297C18.7745 10.297 18.7745 10.297 18.7744 10.297C18.7744 10.2971 18.7743 10.2971 18.7743 10.2972C18.7741 10.2973 18.7739 10.2976 18.7736 10.2978C18.773 10.2983 18.7722 10.2991 18.7711 10.3001C18.769 10.302 18.7659 10.3048 18.7619 10.3085C18.7539 10.3158 18.7423 10.3264 18.7276 10.3399C18.6983 10.3668 18.6565 10.4052 18.6065 10.4515C18.5069 10.5438 18.3733 10.6684 18.2399 10.7958C18.1082 10.9216 17.9694 11.0568 17.8626 11.1685C17.8111 11.2222 17.7547 11.2832 17.7082 11.3408C17.6873 11.3667 17.6504 11.4137 17.6164 11.4714C17.6004 11.4984 17.5685 11.5551 17.5434 11.6311C17.528 11.6779 17.4581 11.8909 17.5542 12.1427L18.9555 11.6077C19.0064 11.741 19.008 11.8591 19.0019 11.9328C18.9958 12.0076 18.9794 12.0662 18.9677 12.1017C18.9451 12.1702 18.9176 12.2177 18.908 12.2341C18.8865 12.2705 18.8696 12.2901 18.875 12.2834C18.8811 12.2759 18.9025 12.2512 18.946 12.2058C19.0289 12.1192 19.148 12.0026 19.2757 11.8807C19.4017 11.7605 19.5292 11.6415 19.6256 11.5522C19.6737 11.5076 19.7138 11.4707 19.7418 11.4451C19.7558 11.4322 19.7668 11.4222 19.7741 11.4154C19.7778 11.4121 19.7806 11.4095 19.7825 11.4078C19.7834 11.407 19.7841 11.4064 19.7845 11.406C19.7847 11.4058 19.7849 11.4056 19.785 11.4055C19.785 11.4055 19.7851 11.4055 19.7851 11.4055C19.7851 11.4055 19.7851 11.4055 19.7851 11.4055C19.7851 11.4055 19.7851 11.4055 19.2798 10.8512ZM17.5565 12.1487L17.9467 13.1451L19.3434 12.5981L18.9532 11.6017L17.5565 12.1487ZM17.9547 13.1645C18.0572 13.4063 18.248 13.5116 18.291 13.5352C18.3602 13.5731 18.4213 13.5928 18.4513 13.6018C18.5153 13.6209 18.574 13.6304 18.6071 13.6352C18.6805 13.646 18.7636 13.6525 18.8381 13.657C18.9927 13.6665 19.1868 13.6716 19.3692 13.6745C19.5541 13.6774 19.7369 13.6782 19.8729 13.6783C19.9411 13.6783 19.9979 13.6781 20.0378 13.678C20.0578 13.6779 20.0735 13.6778 20.0844 13.6778C20.0898 13.6777 20.094 13.6777 20.0969 13.6777C20.0983 13.6777 20.0994 13.6777 20.1002 13.6777C20.1006 13.6777 20.1009 13.6777 20.1011 13.6776C20.1012 13.6776 20.1013 13.6776 20.1014 13.6776C20.1014 13.6776 20.1015 13.6776 20.1015 13.6776C20.1015 13.6776 20.1015 13.6776 20.096 12.9277C20.0905 12.1777 20.0905 12.1777 20.0905 12.1777C20.0905 12.1777 20.0905 12.1777 20.0905 12.1777C20.0905 12.1777 20.0904 12.1777 20.0904 12.1777C20.0903 12.1777 20.09 12.1777 20.0898 12.1777C20.0892 12.1777 20.0882 12.1777 20.087 12.1777C20.0845 12.1777 20.0807 12.1778 20.0757 12.1778C20.0657 12.1778 20.0508 12.1779 20.0318 12.178C19.9938 12.1781 19.9392 12.1783 19.8736 12.1783C19.742 12.1782 19.5674 12.1774 19.393 12.1747C19.2162 12.1719 19.0493 12.1671 18.9293 12.1598C18.8665 12.156 18.8337 12.1524 18.8239 12.151C18.8155 12.1498 18.8407 12.1526 18.8807 12.1646C18.8988 12.17 18.9503 12.186 19.0124 12.2201C19.0445 12.2377 19.0953 12.2686 19.1497 12.3177C19.2031 12.3659 19.2811 12.4505 19.3355 12.5787L17.9547 13.1645ZM19.5517 13.4436L19.9965 13.9129L21.0851 12.881L20.6403 12.4117L19.5517 13.4436ZM20.5408 13.3969C19.7913 13.3697 19.7913 13.3698 19.7913 13.3698C19.7913 13.3698 19.7913 13.3698 19.7913 13.3699C19.7913 13.3699 19.7913 13.37 19.7913 13.3701C19.7913 13.3704 19.7912 13.3707 19.7912 13.3711C19.7912 13.3718 19.7912 13.373 19.7911 13.3744C19.791 13.3773 19.7909 13.3815 19.7907 13.387C19.7903 13.3978 19.7898 13.4136 19.7891 13.4336C19.7878 13.4737 19.786 13.5306 19.7841 13.599C19.7802 13.7355 19.7757 13.9189 19.7733 14.1044C19.771 14.2874 19.7706 14.4823 19.7757 14.6378C19.7782 14.7127 19.7824 14.7964 19.7913 14.8707C19.7952 14.9041 19.8033 14.9638 19.8211 15.0291C19.8294 15.0598 19.848 15.1223 19.8851 15.1934C19.9088 15.2388 20.0114 15.4327 20.2532 15.5393L20.8585 14.1669C20.9862 14.2232 21.0701 14.3028 21.1183 14.358C21.1671 14.414 21.1975 14.4661 21.2148 14.4992C21.2482 14.5632 21.2632 14.616 21.2683 14.6347C21.2795 14.6758 21.2818 14.7019 21.2808 14.6935C21.2797 14.6841 21.277 14.6515 21.2749 14.5885C21.271 14.4682 21.271 14.3009 21.2732 14.1235C21.2754 13.9486 21.2797 13.7736 21.2835 13.6416C21.2853 13.5757 21.287 13.521 21.2883 13.4829C21.2889 13.4639 21.2894 13.449 21.2898 13.4389C21.2899 13.4339 21.2901 13.4301 21.2902 13.4276C21.2902 13.4264 21.2902 13.4254 21.2903 13.4248C21.2903 13.4245 21.2903 13.4243 21.2903 13.4242C21.2903 13.4241 21.2903 13.4241 21.2903 13.4241C21.2903 13.4241 21.2903 13.4241 21.2903 13.4241C21.2903 13.4241 21.2903 13.4241 20.5408 13.3969ZM20.2474 15.5367L21.2262 15.9784L21.8432 14.6112L20.8643 14.1695L20.2474 15.5367ZM21.2196 15.9754C21.4599 16.0866 21.6732 16.0359 21.7307 16.0211C21.8123 16.0001 21.8737 15.97 21.9034 15.9546C21.9662 15.9219 22.0171 15.8856 22.0445 15.8653C22.1057 15.8202 22.1698 15.7653 22.2252 15.7161C22.3407 15.6136 22.4801 15.4803 22.6092 15.3541C22.7401 15.226 22.8681 15.0978 22.9628 15.002C23.0103 14.954 23.0498 14.9139 23.0774 14.8856C23.0913 14.8715 23.1022 14.8603 23.1097 14.8526C23.1135 14.8488 23.1164 14.8458 23.1184 14.8438C23.1194 14.8427 23.1202 14.8419 23.1207 14.8414C23.121 14.8411 23.1212 14.8409 23.1213 14.8407C23.1214 14.8406 23.1215 14.8406 23.1215 14.8405C23.1216 14.8405 23.1216 14.8405 23.1216 14.8405C23.1216 14.8404 23.1216 14.8404 22.5841 14.3174C22.0466 13.7943 22.0466 13.7943 22.0466 13.7943C22.0466 13.7943 22.0466 13.7943 22.0466 13.7943C22.0466 13.7943 22.0466 13.7943 22.0466 13.7944C22.0465 13.7945 22.0463 13.7946 22.0461 13.7948C22.0457 13.7952 22.0451 13.7959 22.0442 13.7968C22.0425 13.7985 22.0399 13.8012 22.0365 13.8047C22.0296 13.8118 22.0193 13.8223 22.0062 13.8357C21.9799 13.8625 21.9421 13.9009 21.8965 13.947C21.8051 14.0394 21.6834 14.1614 21.5604 14.2816C21.4356 14.4037 21.317 14.5166 21.2293 14.5945C21.208 14.6133 21.1904 14.6285 21.1764 14.6402C21.1695 14.646 21.164 14.6504 21.1599 14.6536C21.1558 14.657 21.1539 14.6584 21.154 14.6583C21.1541 14.6582 21.1551 14.6575 21.1568 14.6562C21.1585 14.6551 21.1614 14.6531 21.1654 14.6505C21.1719 14.6462 21.1882 14.6357 21.2119 14.6234C21.2307 14.6137 21.2828 14.5875 21.3567 14.5684C21.4065 14.5556 21.6138 14.5049 21.8498 14.6142L21.2196 15.9754ZM22.5587 15.0669L23.2028 15.0888L23.2537 13.5896L22.6096 13.5678L22.5587 15.0669ZM23.2283 14.3392C22.6756 14.8462 22.6756 14.8462 22.6756 14.8463C22.6756 14.8463 22.6757 14.8463 22.6757 14.8463C22.6757 14.8464 22.6758 14.8464 22.6759 14.8465C22.676 14.8467 22.6762 14.8469 22.6765 14.8472C22.677 14.8478 22.6778 14.8486 22.6788 14.8497C22.6807 14.8518 22.6836 14.855 22.6873 14.859C22.6948 14.8671 22.7056 14.8788 22.7193 14.8936C22.7467 14.9233 22.7858 14.9656 22.8329 15.0161C22.9268 15.117 23.0536 15.252 23.1832 15.3871C23.3112 15.5204 23.4486 15.6607 23.5618 15.7687C23.6164 15.8207 23.6778 15.8773 23.7353 15.9238C23.7613 15.9448 23.8076 15.9811 23.8639 16.0147C23.8903 16.0305 23.9453 16.0617 24.0187 16.0869C24.062 16.1017 24.2698 16.1736 24.5193 16.0861L24.0228 14.6707C24.156 14.624 24.2722 14.6254 24.3429 14.6325C24.4152 14.6399 24.4717 14.6565 24.5056 14.6681C24.5713 14.6907 24.6169 14.7173 24.6325 14.7266C24.6672 14.7472 24.6855 14.7631 24.6783 14.7573C24.6696 14.7502 24.6437 14.7277 24.5973 14.6834C24.5086 14.5988 24.3896 14.4777 24.2653 14.3483C24.1427 14.2206 24.0215 14.0914 23.9305 13.9937C23.8851 13.945 23.8475 13.9044 23.8213 13.876C23.8082 13.8619 23.798 13.8508 23.7911 13.8433C23.7877 13.8395 23.7851 13.8367 23.7833 13.8348C23.7825 13.8339 23.7819 13.8332 23.7814 13.8328C23.7812 13.8325 23.7811 13.8324 23.781 13.8323C23.781 13.8322 23.7809 13.8322 23.7809 13.8322C23.7809 13.8322 23.7809 13.8322 23.7809 13.8322C23.7809 13.8322 23.7809 13.8322 23.2283 14.3392ZM24.5346 16.0806L25.5294 15.7073L25.0025 14.3029L24.0076 14.6762L24.5346 16.0806ZM25.5112 15.7139C25.7741 15.6229 25.8927 15.4239 25.9218 15.3735C25.9646 15.2992 25.9862 15.2331 25.9957 15.2015C26.0161 15.1339 26.0256 15.0721 26.0302 15.0387C26.0405 14.9638 26.0461 14.8797 26.0496 14.8055C26.0571 14.6509 26.0594 14.4569 26.0596 14.275C26.0597 14.0906 26.0577 13.908 26.0557 13.7722C26.0546 13.7041 26.0536 13.6474 26.0528 13.6075C26.0524 13.5876 26.0521 13.5719 26.0519 13.561C26.0517 13.5556 26.0517 13.5514 26.0516 13.5485C26.0516 13.5471 26.0515 13.546 26.0515 13.5452C26.0515 13.5448 26.0515 13.5445 26.0515 13.5443C26.0515 13.5442 26.0515 13.5441 26.0515 13.544C26.0515 13.544 26.0515 13.5439 26.0515 13.5439C26.0515 13.5439 26.0515 13.5439 25.3017 13.5612C24.5519 13.5786 24.5519 13.5786 24.5519 13.5786C24.5519 13.5786 24.5519 13.5786 24.5519 13.5786C24.5519 13.5786 24.5519 13.5787 24.5519 13.5787C24.5519 13.5789 24.5519 13.5791 24.5519 13.5794C24.5519 13.5799 24.5519 13.5809 24.552 13.5821C24.552 13.5846 24.5521 13.5884 24.5522 13.5934C24.5524 13.6033 24.5527 13.6181 24.5531 13.6371C24.5539 13.675 24.5549 13.7294 24.5558 13.7948C24.5578 13.926 24.5597 14.1 24.5596 14.2735C24.5594 14.4497 24.5571 14.6151 24.5514 14.7334C24.55 14.7621 24.5485 14.7857 24.547 14.8042C24.5463 14.8133 24.5457 14.8205 24.5451 14.8258C24.5446 14.8313 24.5442 14.8337 24.5442 14.8337C24.5442 14.8337 24.5444 14.8325 24.5447 14.8305C24.545 14.8285 24.5456 14.8251 24.5465 14.8206C24.548 14.8131 24.5519 14.7941 24.5596 14.7684C24.5656 14.7485 24.5834 14.6917 24.6224 14.6242C24.6476 14.5805 24.7621 14.3858 25.0207 14.2963L25.5112 15.7139ZM25.815 14.1081L26.2795 13.6721L25.2529 12.5784L24.7884 13.0144L25.815 14.1081ZM25.7662 13.1252C25.7275 13.8742 25.7275 13.8742 25.7275 13.8742C25.7275 13.8742 25.7276 13.8742 25.7276 13.8742C25.7277 13.8743 25.7277 13.8743 25.7279 13.8743C25.7281 13.8743 25.7284 13.8743 25.7288 13.8743C25.7295 13.8744 25.7307 13.8744 25.7321 13.8745C25.735 13.8746 25.7392 13.8748 25.7447 13.8751C25.7556 13.8757 25.7714 13.8765 25.7915 13.8774C25.8316 13.8794 25.8888 13.8821 25.9574 13.8851C26.0943 13.8911 26.2783 13.8985 26.4644 13.9039C26.648 13.9092 26.8432 13.9128 26.9988 13.9104C27.0738 13.9093 27.1571 13.9065 27.2307 13.8992C27.2639 13.896 27.3228 13.8893 27.3872 13.8733C27.4174 13.8658 27.4796 13.8491 27.5507 13.8143C27.5933 13.7935 27.7946 13.6954 27.9083 13.4515L26.5486 12.818C26.6089 12.6884 26.6928 12.6052 26.7491 12.5588C26.8065 12.5115 26.8594 12.4826 26.8925 12.4665C26.9564 12.4352 27.0088 12.4217 27.0268 12.4173C27.067 12.4073 27.092 12.4056 27.0832 12.4065C27.0727 12.4075 27.0392 12.4096 26.9757 12.4106C26.8543 12.4125 26.6859 12.4097 26.5077 12.4045C26.3319 12.3995 26.156 12.3924 26.0235 12.3865C25.9573 12.3836 25.9024 12.381 25.8641 12.3792C25.8449 12.3783 25.83 12.3775 25.8199 12.377C25.8149 12.3768 25.811 12.3766 25.8085 12.3764C25.8072 12.3764 25.8063 12.3763 25.8057 12.3763C25.8054 12.3763 25.8052 12.3763 25.8051 12.3763C25.805 12.3762 25.805 12.3762 25.805 12.3762C25.8049 12.3762 25.8049 12.3762 25.8049 12.3762C25.8049 12.3762 25.805 12.3762 25.7662 13.1252ZM27.914 13.4388L28.3437 12.4699L26.9726 11.8618L26.5428 12.8307L27.914 13.4388ZM28.3521 12.4504C28.4539 12.2022 28.3901 11.9884 28.376 11.9413C28.3531 11.8649 28.3229 11.8074 28.3076 11.7799C28.2752 11.7213 28.2397 11.6732 28.2194 11.6466C28.1744 11.5875 28.1194 11.5245 28.0691 11.4689C27.9647 11.3535 27.8289 11.2133 27.6998 11.0829C27.5691 10.9507 27.4381 10.8214 27.3404 10.7256C27.2914 10.6776 27.2504 10.6377 27.2216 10.6097C27.2072 10.5957 27.1959 10.5847 27.188 10.5771C27.1841 10.5733 27.1811 10.5704 27.179 10.5684C27.1779 10.5674 27.1771 10.5666 27.1766 10.566C27.1763 10.5658 27.1761 10.5656 27.1759 10.5654C27.1758 10.5653 27.1758 10.5653 27.1757 10.5652C27.1757 10.5652 27.1757 10.5652 27.1757 10.5652C27.1756 10.5651 27.1756 10.5651 26.6548 11.1048C26.134 11.6445 26.134 11.6445 26.134 11.6445C26.134 11.6445 26.134 11.6445 26.134 11.6445C26.134 11.6445 26.1341 11.6446 26.1341 11.6446C26.1342 11.6447 26.1343 11.6448 26.1346 11.645C26.135 11.6455 26.1357 11.6461 26.1366 11.647C26.1384 11.6487 26.1411 11.6514 26.1447 11.6549C26.152 11.6619 26.1627 11.6723 26.1765 11.6856C26.2039 11.7123 26.2433 11.7506 26.2905 11.7969C26.3851 11.8896 26.5101 12.0131 26.6336 12.1379C26.7588 12.2644 26.8755 12.3853 26.9566 12.4751C26.9992 12.5221 27.0202 12.5478 27.0263 12.5557C27.0316 12.5627 27.0154 12.5428 26.9951 12.506C26.986 12.4895 26.96 12.4414 26.9393 12.3726C26.9287 12.337 26.914 12.2782 26.9098 12.2037C26.9057 12.1302 26.9103 12.0127 26.9642 11.8813L28.3521 12.4504ZM23.9411 11.1013C23.7137 11.6169 23.0997 11.8579 22.5593 11.6131L21.9404 12.9795C23.2263 13.5619 24.743 13 25.3135 11.7067L23.9411 11.1013ZM22.5591 11.613C22.0188 11.3685 21.7783 10.7315 22.009 10.2072L20.636 9.60298C20.0688 10.8919 20.6632 12.4013 21.9405 12.9795L22.5591 11.613ZM22.0091 10.207C22.2336 9.69638 22.8493 9.45462 23.3875 9.69824L24.0061 8.33173C22.7266 7.75254 21.205 8.30932 20.636 9.60313L22.0091 10.207ZM23.385 9.69713C23.9318 9.94698 24.1683 10.5849 23.9408 11.1021L25.3139 11.7059C25.88 10.4186 25.2816 8.91462 24.0085 8.33284L23.385 9.69713Z" fill="white"/>
<path fill-rule="evenodd" clip-rule="evenodd" d="M20.8053 26.9486H11.1274L12.522 24.0335C12.6056 23.8392 12.8706 23.7031 13.1773 23.7031H18.7554C19.0622 23.7031 19.3271 23.8392 19.4108 24.0335L20.8053 26.9486Z" stroke="white" stroke-width="1.5" stroke-linecap="round" stroke-linejoin="round"/>
<path fill-rule="evenodd" clip-rule="evenodd" d="M25.9144 19.7148V21.6157C25.9144 22.7701 25.0549 23.7021 23.99 23.7021H5.943C4.8781 23.7021 4.01855 22.7701 4.01855 21.6157V19.7148H25.9144Z" stroke="white" stroke-width="1.5" stroke-linecap="round" stroke-linejoin="round"/>
</svg>
