<svg width="32" height="32" viewBox="0 0 32 32" fill="none" xmlns="http://www.w3.org/2000/svg">
<g clip-path="url(#clip0_2929_7664)">
<path fill-rule="evenodd" clip-rule="evenodd" d="M27.2706 8.97801C27.6711 9.17758 27.8903 9.61896 27.8072 10.0587L26.9098 14.8095C26.0969 19.1124 23.5629 22.9657 19.8208 25.5876L17.0109 27.5567C16.6646 27.7993 16.203 27.7979 15.8581 27.5531L12.946 25.4858C9.25294 22.8646 6.75433 19.0378 5.94833 14.7701L5.0592 10.0586C4.97622 9.61889 5.19541 9.17762 5.59588 8.97807L15.9873 3.80034C16.2682 3.6604 16.5984 3.6604 16.8793 3.80034L27.2706 8.97801Z" stroke="white" stroke-width="1.5" stroke-linecap="round"/>
<path d="M21.4269 15.6984L20.7271 15.684C20.7231 15.8789 20.8006 16.0667 20.9409 16.2021L21.4269 15.6984ZM21.4452 14.8075L20.9744 14.2895C20.8321 14.4188 20.7493 14.6009 20.7454 14.7932L21.4452 14.8075ZM22.8685 13.3895L23.5225 13.1398L23.5204 13.1345L22.8685 13.3895ZM22.3284 12.0084L22.9803 11.7534C22.9778 11.7469 22.9751 11.7404 22.9724 11.7339L22.3284 12.0084ZM20.3141 11.9267L19.8076 12.4098C19.9408 12.5495 20.1258 12.6279 20.3188 12.6267L20.3141 11.9267ZM19.6958 11.2783L18.9963 11.2515C18.989 11.4406 19.0586 11.6245 19.1892 11.7614L19.6958 11.2783ZM19.6788 9.25802L19.3899 9.89564L19.3963 9.89849L19.6788 9.25802ZM18.3207 8.64258L18.6097 8.005L18.6082 8.00435L18.3207 8.64258ZM16.8635 10.0066L16.8356 10.706C17.0349 10.714 17.2281 10.6365 17.3668 10.4931L16.8635 10.0066ZM15.9712 9.97098L15.4558 10.4447C15.5818 10.5818 15.7572 10.663 15.9433 10.6704L15.9712 9.97098ZM14.5244 8.53188L14.7697 9.18755L14.7785 9.18412L14.5244 8.53188ZM13.1402 9.0498L13.3748 9.70941L13.3855 9.70541L13.1402 9.0498ZM13.0933 11.0503L13.574 11.5591C13.7181 11.423 13.7977 11.2322 13.7931 11.0341L13.0933 11.0503ZM12.4475 11.6605L12.4095 12.3594C12.6012 12.3699 12.7887 12.3011 12.9282 12.1693L12.4475 11.6605ZM10.4202 11.642L9.78211 11.3541L9.78028 11.3582L10.4202 11.642ZM9.82397 12.9862L9.18408 12.7024L9.18324 12.7043L9.82397 12.9862ZM11.2134 14.4609L11.9132 14.4753C11.9172 14.2803 11.8397 14.0924 11.6992 13.957L11.2134 14.4609ZM11.1951 15.3465L11.6667 15.8638C11.8085 15.7346 11.891 15.5528 11.8949 15.3609L11.1951 15.3465ZM9.77309 16.7671L9.11912 17.0169L9.12129 17.0224L9.77309 16.7671ZM10.3145 18.1496L9.66269 18.4048C9.66507 18.4109 9.66754 18.417 9.67009 18.423L10.3145 18.1496ZM12.3275 18.2273L12.8355 17.7458C12.7021 17.605 12.5163 17.5259 12.3223 17.5273L12.3275 18.2273ZM12.9445 18.8783L13.6441 18.9037C13.6509 18.7159 13.5819 18.5332 13.4526 18.3968L12.9445 18.8783ZM12.9654 20.8986L13.2533 20.2605L13.2479 20.2581L12.9654 20.8986ZM14.3235 21.5114L14.6176 20.8762L14.6114 20.8734L14.3235 21.5114ZM15.7794 20.1553L15.8031 19.4557C15.606 19.4491 15.4153 19.5258 15.2777 19.6672L15.7794 20.1553ZM16.673 20.1857L17.1889 19.7124C17.0619 19.574 16.8845 19.4924 16.6968 19.4861L16.673 20.1857ZM18.1198 21.6274L18.3515 22.2879C18.3563 22.2863 18.361 22.2845 18.3657 22.2828L18.1198 21.6274ZM19.5001 21.1095L19.2712 20.4479C19.2655 20.4499 19.2598 20.452 19.2542 20.4541L19.5001 21.1095ZM19.5497 19.1063L19.0706 18.5959C18.9255 18.7321 18.8452 18.9236 18.8498 19.1226L19.5497 19.1063ZM20.1941 18.5014L20.2303 17.8024C20.04 17.7925 19.854 17.8607 19.7151 17.991L20.1941 18.5014ZM22.2227 18.5146L22.8574 18.8103L22.8626 18.7984L22.2227 18.5146ZM22.8189 17.1704L23.4588 17.4542C23.4615 17.4482 23.4641 17.4421 23.4666 17.436L22.8189 17.1704ZM18.6143 16.1134L19.2548 16.396L19.2551 16.3952L18.6143 16.1134ZM15.3158 17.3514L15.6047 16.7137L15.6045 16.7137L15.3158 17.3514ZM14.0293 14.0339L14.67 14.3158L14.6701 14.3157L14.0293 14.0339ZM17.3233 12.799L17.6142 12.1623L17.612 12.1613L17.3233 12.799ZM22.1268 15.7127L22.1451 14.8218L20.7454 14.7932L20.7271 15.684L22.1268 15.7127ZM21.4452 14.8075C21.916 15.3255 21.9161 15.3255 21.9161 15.3255C21.9161 15.3254 21.9161 15.3254 21.9162 15.3254C21.9162 15.3253 21.9163 15.3253 21.9164 15.3252C21.9166 15.325 21.9169 15.3247 21.9173 15.3244C21.9181 15.3237 21.9192 15.3226 21.9206 15.3213C21.9235 15.3187 21.9277 15.3148 21.9332 15.3098C21.9442 15.2999 21.9601 15.2853 21.9804 15.2668C22.0208 15.2298 22.0784 15.1769 22.1474 15.1132C22.2851 14.9861 22.4691 14.8149 22.6528 14.6401C22.8347 14.4668 23.0229 14.2837 23.1659 14.1348C23.2356 14.0623 23.306 13.9859 23.3614 13.9175C23.387 13.886 23.426 13.8359 23.4607 13.7772C23.4771 13.7495 23.5079 13.6945 23.532 13.6217C23.5471 13.5762 23.6126 13.3759 23.5225 13.1398L22.2146 13.6392C22.1266 13.4088 22.1914 13.2167 22.203 13.1816C22.2237 13.1193 22.2483 13.0769 22.256 13.064C22.2732 13.0349 22.2845 13.0228 22.2735 13.0363C22.2559 13.058 22.2182 13.1004 22.156 13.1652C22.0355 13.2908 21.8656 13.4564 21.6874 13.6261C21.5108 13.7943 21.3324 13.9602 21.1977 14.0846C21.1305 14.1466 21.0744 14.1981 21.0353 14.2339C21.0157 14.2519 21.0003 14.2659 20.9899 14.2753C20.9847 14.2801 20.9808 14.2837 20.9782 14.2861C20.9769 14.2873 20.9759 14.2881 20.9752 14.2887C20.9749 14.289 20.9747 14.2892 20.9745 14.2894C20.9745 14.2894 20.9744 14.2895 20.9744 14.2895C20.9744 14.2895 20.9744 14.2895 20.9744 14.2895C20.9744 14.2895 20.9744 14.2895 21.4452 14.8075ZM23.5204 13.1345L22.9803 11.7534L21.6765 12.2633L22.2166 13.6444L23.5204 13.1345ZM22.9724 11.7339C22.8782 11.5129 22.7053 11.4138 22.6613 11.3892C22.5951 11.3521 22.5357 11.3322 22.5044 11.3226C22.4385 11.3024 22.3754 11.2916 22.3346 11.2854C22.2464 11.2721 22.1419 11.2634 22.041 11.257C21.8336 11.2438 21.5701 11.2364 21.3181 11.232C21.0639 11.2277 20.8119 11.2263 20.6241 11.2261C20.5301 11.226 20.4517 11.2261 20.3968 11.2263C20.3693 11.2264 20.3476 11.2265 20.3328 11.2266C20.3253 11.2266 20.3196 11.2266 20.3157 11.2266C20.3137 11.2267 20.3122 11.2267 20.3112 11.2267C20.3106 11.2267 20.3102 11.2267 20.31 11.2267C20.3098 11.2267 20.3097 11.2267 20.3096 11.2267C20.3096 11.2267 20.3095 11.2267 20.3095 11.2267C20.3095 11.2267 20.3095 11.2267 20.3141 11.9267C20.3188 12.6267 20.3188 12.6267 20.3188 12.6267C20.3188 12.6267 20.3188 12.6267 20.3188 12.6267C20.3189 12.6267 20.3189 12.6267 20.319 12.6267C20.3192 12.6267 20.3195 12.6267 20.32 12.6266C20.3208 12.6266 20.3222 12.6266 20.3239 12.6266C20.3275 12.6266 20.3328 12.6266 20.3399 12.6265C20.3539 12.6265 20.3747 12.6264 20.4013 12.6263C20.4544 12.6261 20.5306 12.626 20.6222 12.6261C20.8058 12.6263 21.0498 12.6276 21.2941 12.6318C21.5407 12.6361 21.7781 12.6431 21.9523 12.6542C22.0421 12.6599 22.0984 12.6657 22.1259 12.6698C22.143 12.6724 22.1264 12.671 22.0939 12.6611C22.0792 12.6566 22.0332 12.642 21.9768 12.6104C21.9427 12.5913 21.7762 12.498 21.6845 12.2828L22.9724 11.7339ZM20.8207 11.4436L20.2023 10.7952L19.1892 11.7614L19.8076 12.4098L20.8207 11.4436ZM19.6958 11.2783C20.3953 11.305 20.3953 11.305 20.3953 11.305C20.3953 11.305 20.3953 11.3049 20.3953 11.3049C20.3953 11.3048 20.3953 11.3047 20.3953 11.3045C20.3953 11.3043 20.3953 11.3039 20.3953 11.3033C20.3954 11.3023 20.3954 11.3008 20.3955 11.2988C20.3956 11.2949 20.3958 11.2891 20.3961 11.2817C20.3967 11.2668 20.3975 11.2451 20.3984 11.2175C20.4003 11.1624 20.403 11.0839 20.4058 10.9896C20.4115 10.8013 20.4182 10.5487 20.4219 10.2937C20.4257 10.0411 20.4266 9.77699 20.4202 9.56923C20.4171 9.46808 20.4117 9.3635 20.4014 9.27515C20.3966 9.23443 20.3879 9.17098 20.3699 9.10446C20.3614 9.07302 20.3434 9.01232 20.3079 8.94419C20.2849 8.90002 20.1883 8.71767 19.9613 8.61755L19.3963 9.89849C19.1751 9.80092 19.0839 9.62492 19.0661 9.59063C19.0358 9.53239 19.0226 9.48512 19.0186 9.47042C19.0097 9.43739 19.0089 9.42066 19.0109 9.43797C19.0141 9.46569 19.0181 9.52245 19.0209 9.61262C19.0263 9.78749 19.0257 10.0258 19.0221 10.2732C19.0185 10.5182 19.012 10.763 19.0065 10.9472C19.0037 11.0391 19.0011 11.1155 18.9993 11.1688C18.9983 11.1954 18.9976 11.2163 18.9971 11.2304C18.9968 11.2375 18.9966 11.2428 18.9965 11.2464C18.9964 11.2482 18.9964 11.2495 18.9963 11.2504C18.9963 11.2508 18.9963 11.2511 18.9963 11.2513C18.9963 11.2514 18.9963 11.2515 18.9963 11.2515C18.9963 11.2515 18.9963 11.2516 18.9963 11.2516C18.9963 11.2516 18.9963 11.2515 19.6958 11.2783ZM19.9677 8.62043L18.6097 8.005L18.0318 9.28017L19.3899 9.89561L19.9677 8.62043ZM18.6082 8.00435C18.3867 7.90456 18.1907 7.9501 18.134 7.96465C18.0562 7.98463 17.9967 8.01351 17.9662 8.02935C17.9021 8.06259 17.8478 8.10103 17.8144 8.12575C17.7416 8.17951 17.6615 8.24802 17.5865 8.31486C17.4322 8.45243 17.2432 8.63401 17.0651 8.80919C16.8852 8.98612 16.7091 9.16369 16.5785 9.29655C16.513 9.3631 16.4587 9.41873 16.4207 9.45781C16.4016 9.47735 16.3867 9.49277 16.3764 9.50337C16.3712 9.50867 16.3673 9.51277 16.3645 9.51557C16.3632 9.51697 16.3621 9.51805 16.3614 9.5188C16.3611 9.51917 16.3608 9.51946 16.3606 9.51966C16.3605 9.51977 16.3604 9.51985 16.3604 9.51991C16.3603 9.51994 16.3603 9.51997 16.3603 9.51998C16.3603 9.52 16.3602 9.52002 16.8635 10.0066C17.3668 10.4931 17.3668 10.4931 17.3668 10.4931C17.3668 10.4931 17.3668 10.4931 17.3668 10.4931C17.3668 10.4931 17.3669 10.493 17.3669 10.4929C17.3671 10.4928 17.3673 10.4926 17.3676 10.4923C17.3682 10.4917 17.3691 10.4907 17.3703 10.4895C17.3727 10.487 17.3764 10.4832 17.3813 10.4782C17.391 10.4682 17.4053 10.4534 17.4237 10.4345C17.4604 10.3968 17.5131 10.3428 17.5768 10.2781C17.7043 10.1484 17.8744 9.97684 18.0468 9.80734C18.2209 9.63609 18.3902 9.47395 18.5181 9.35985C18.5843 9.30086 18.6263 9.26655 18.6464 9.25166C18.6594 9.24206 18.6443 9.25472 18.6108 9.27212C18.5955 9.28004 18.5491 9.30349 18.4821 9.32069C18.4362 9.33247 18.2487 9.37789 18.0332 9.28081L18.6082 8.00435ZM16.8914 9.30712L15.9991 9.27153L15.9433 10.6704L16.8356 10.706L16.8914 9.30712ZM15.9712 9.97098C16.4865 9.49727 16.4865 9.49726 16.4865 9.49723C16.4865 9.49722 16.4865 9.49719 16.4864 9.49716C16.4864 9.4971 16.4863 9.49702 16.4862 9.49691C16.486 9.4967 16.4857 9.4964 16.4854 9.49602C16.4847 9.49525 16.4836 9.49413 16.4823 9.49267C16.4796 9.48975 16.4757 9.48547 16.4706 9.47994C16.4604 9.46887 16.4455 9.45275 16.4266 9.4323C16.3888 9.39143 16.3348 9.33321 16.2697 9.26352C16.1399 9.12437 15.965 8.9384 15.7866 8.75286C15.6097 8.56894 15.4231 8.37898 15.2717 8.23482C15.198 8.16458 15.1208 8.09392 15.0521 8.0385C15.0204 8.01298 14.9705 7.97427 14.9123 7.93981C14.885 7.92364 14.8302 7.89287 14.7578 7.86877C14.7147 7.85441 14.5103 7.7861 14.2703 7.87965L14.7785 9.18412C14.5442 9.27544 14.3479 9.20786 14.3153 9.19699C14.2535 9.17639 14.2115 9.15188 14.1991 9.14455C14.1708 9.12778 14.1593 9.11711 14.1735 9.12851C14.1963 9.14692 14.2401 9.18564 14.3062 9.24864C14.4347 9.37097 14.6041 9.54301 14.7775 9.72331C14.9493 9.902 15.119 10.0825 15.2462 10.2187C15.3097 10.2867 15.3623 10.3434 15.3989 10.3831C15.4173 10.4029 15.4316 10.4184 15.4413 10.4289C15.4461 10.4342 15.4498 10.4382 15.4523 10.4408C15.4535 10.4422 15.4544 10.4432 15.455 10.4438C15.4553 10.4441 15.4555 10.4444 15.4556 10.4445C15.4557 10.4446 15.4558 10.4446 15.4558 10.4447C15.4558 10.4447 15.4558 10.4447 15.4558 10.4447C15.4558 10.4447 15.4558 10.4447 15.9712 9.97098ZM14.2791 7.87628L12.8949 8.39419L13.3855 9.70541L14.7697 9.18749L14.2791 7.87628ZM12.9056 8.39028C12.657 8.47873 12.5471 8.67017 12.5214 8.716C12.482 8.78624 12.4619 8.84928 12.4527 8.88083C12.433 8.94816 12.4232 9.01233 12.4178 9.05244C12.4061 9.14012 12.3992 9.24396 12.3946 9.34394C12.385 9.54956 12.3821 9.81157 12.382 10.0622C12.3819 10.3151 12.3848 10.566 12.3877 10.7531C12.3891 10.8468 12.3905 10.9248 12.3916 10.9796C12.3922 11.0069 12.3926 11.0285 12.3929 11.0433C12.3931 11.0507 12.3932 11.0565 12.3933 11.0604C12.3934 11.0623 12.3934 11.0638 12.3934 11.0649C12.3934 11.0654 12.3934 11.0658 12.3934 11.0661C12.3934 11.0662 12.3934 11.0663 12.3934 11.0664C12.3934 11.0664 12.3934 11.0665 12.3934 11.0665C12.3934 11.0665 12.3934 11.0665 13.0933 11.0503C13.7931 11.0341 13.7931 11.0341 13.7931 11.0341C13.7931 11.0341 13.7931 11.0341 13.7931 11.034C13.7931 11.034 13.7931 11.0339 13.7931 11.0338C13.7931 11.0336 13.7931 11.0333 13.793 11.0329C13.793 11.032 13.793 11.0307 13.793 11.029C13.7929 11.0254 13.7928 11.0201 13.7926 11.0131C13.7923 10.999 13.7919 10.9783 13.7913 10.9518C13.7903 10.8988 13.7889 10.8229 13.7875 10.7316C13.7847 10.5487 13.7819 10.3057 13.782 10.0626C13.7821 9.81723 13.7851 9.58118 13.7931 9.40862C13.7972 9.3195 13.8019 9.26422 13.8054 9.238C13.8077 9.22115 13.8064 9.23967 13.7962 9.27456C13.7917 9.2899 13.7766 9.34002 13.7425 9.40088C13.722 9.43733 13.6177 9.62293 13.3748 9.70932L12.9056 8.39028ZM12.6125 10.5415L11.9667 11.1517L12.9282 12.1693L13.574 11.5591L12.6125 10.5415ZM12.4475 11.6605C12.4855 10.9615 12.4855 10.9615 12.4855 10.9615C12.4854 10.9615 12.4854 10.9615 12.4854 10.9615C12.4853 10.9615 12.4852 10.9615 12.485 10.9615C12.4847 10.9615 12.4843 10.9614 12.4838 10.9614C12.4828 10.9614 12.4813 10.9613 12.4793 10.9612C12.4753 10.961 12.4696 10.9606 12.4621 10.9603C12.4472 10.9595 12.4254 10.9583 12.3978 10.9569C12.3425 10.9541 12.2637 10.9502 12.1691 10.9457C11.9802 10.9369 11.7267 10.926 11.471 10.918C11.2176 10.91 10.9529 10.9045 10.745 10.9072C10.6437 10.9085 10.5394 10.9118 10.4516 10.9203C10.4112 10.9242 10.3482 10.9315 10.2822 10.9478C10.2512 10.9554 10.1903 10.9719 10.1215 11.0056C10.0795 11.0262 9.8875 11.1206 9.78213 11.3541L11.0582 11.93C10.9554 12.1578 10.7696 12.247 10.7376 12.2628C10.6787 12.2916 10.6312 12.3036 10.617 12.3071C10.5845 12.3151 10.5684 12.3156 10.5862 12.3138C10.6147 12.3111 10.6723 12.3082 10.763 12.307C10.939 12.3048 11.1786 12.3095 11.4269 12.3173C11.673 12.325 11.9188 12.3356 12.1037 12.3442C12.196 12.3485 12.2728 12.3524 12.3263 12.3551C12.3531 12.3565 12.374 12.3575 12.3882 12.3583C12.3953 12.3587 12.4007 12.359 12.4043 12.3592C12.4061 12.3593 12.4074 12.3593 12.4083 12.3594C12.4087 12.3594 12.409 12.3594 12.4092 12.3594C12.4093 12.3594 12.4094 12.3594 12.4094 12.3594C12.4095 12.3594 12.4095 12.3594 12.4095 12.3594C12.4095 12.3594 12.4095 12.3594 12.4475 11.6605ZM9.78028 11.3582L9.18408 12.7024L10.4639 13.27L11.06 11.9258L9.78028 11.3582ZM9.18324 12.7043C9.08303 12.9321 9.13497 13.1322 9.14935 13.1845C9.17032 13.2607 9.19957 13.3189 9.21536 13.3484C9.2487 13.4108 9.28698 13.4639 9.31185 13.4971C9.36593 13.5691 9.43497 13.6491 9.5029 13.7247C9.64255 13.88 9.8269 14.0708 10.0051 14.2512C10.1849 14.4332 10.3654 14.6115 10.5005 14.7438C10.5681 14.8101 10.6246 14.8651 10.6643 14.9037C10.6842 14.9229 10.6999 14.9381 10.7106 14.9485C10.716 14.9537 10.7202 14.9577 10.723 14.9605C10.7244 14.9619 10.7255 14.9629 10.7263 14.9636C10.7266 14.964 10.7269 14.9643 10.7271 14.9645C10.7272 14.9646 10.7273 14.9647 10.7274 14.9647C10.7274 14.9648 10.7274 14.9648 10.7275 14.9648C10.7275 14.9648 10.7275 14.9648 11.2134 14.4609C11.6992 13.957 11.6992 13.957 11.6992 13.957C11.6992 13.957 11.6992 13.957 11.6992 13.957C11.6992 13.9569 11.6991 13.9569 11.699 13.9568C11.6989 13.9567 11.6987 13.9565 11.6984 13.9562C11.6977 13.9556 11.6968 13.9546 11.6955 13.9534C11.6929 13.9509 11.6891 13.9472 11.684 13.9422C11.6738 13.9324 11.6587 13.9178 11.6395 13.8992C11.6012 13.8619 11.5462 13.8084 11.4803 13.7439C11.3483 13.6145 11.1736 13.4419 11.0009 13.2671C10.8265 13.0907 10.6609 12.9187 10.544 12.7887C10.4836 12.7215 10.4477 12.6782 10.4315 12.6566C10.4212 12.6429 10.4331 12.6567 10.45 12.6884C10.4576 12.7026 10.4812 12.7477 10.4992 12.8132C10.5106 12.8546 10.5623 13.0463 10.4647 13.2681L9.18324 12.7043ZM10.5135 14.4465L10.4952 15.3321L11.8949 15.3609L11.9132 14.4753L10.5135 14.4465ZM11.1951 15.3465C10.7235 14.8292 10.7235 14.8292 10.7235 14.8292C10.7235 14.8292 10.7234 14.8293 10.7234 14.8293C10.7233 14.8293 10.7233 14.8294 10.7231 14.8295C10.7229 14.8297 10.7226 14.83 10.7223 14.8303C10.7215 14.831 10.7204 14.832 10.7189 14.8334C10.716 14.836 10.7118 14.8399 10.7063 14.8449C10.6954 14.8549 10.6795 14.8695 10.6592 14.888C10.6188 14.9251 10.5613 14.9781 10.4924 15.0419C10.3548 15.1692 10.1709 15.3408 9.98748 15.5159C9.80567 15.6895 9.61764 15.873 9.47481 16.0221C9.40526 16.0948 9.33491 16.1712 9.27955 16.2397C9.25407 16.2713 9.21517 16.3214 9.18051 16.38C9.16418 16.4077 9.13341 16.4627 9.1094 16.5354C9.09442 16.5807 9.02905 16.7809 9.11914 17.0168L10.427 16.5174C10.5149 16.7476 10.4503 16.9396 10.4387 16.9745C10.4182 17.0368 10.3936 17.0791 10.386 17.0919C10.3688 17.121 10.3576 17.1331 10.3686 17.1195C10.3862 17.0977 10.4239 17.0552 10.486 16.9904C10.6065 16.8645 10.7762 16.6986 10.9543 16.5285C11.1307 16.3601 11.3089 16.1937 11.4435 16.0691C11.5107 16.007 11.5667 15.9554 11.6058 15.9195C11.6254 15.9015 11.6407 15.8875 11.6511 15.878C11.6563 15.8733 11.6603 15.8697 11.6629 15.8673C11.6642 15.8661 11.6652 15.8652 11.6658 15.8646C11.6661 15.8643 11.6664 15.8641 11.6665 15.864C11.6666 15.8639 11.6666 15.8639 11.6666 15.8638C11.6667 15.8638 11.6667 15.8638 11.6667 15.8638C11.6667 15.8638 11.6667 15.8638 11.1951 15.3465ZM9.12129 17.0224L9.66269 18.4048L10.9663 17.8943L10.4249 16.5119L9.12129 17.0224ZM9.67009 18.423C9.76622 18.6496 9.94532 18.7487 9.98708 18.7717C10.0532 18.8079 10.1124 18.8272 10.1432 18.8364C10.2083 18.8558 10.2707 18.8662 10.311 18.872C10.3985 18.8848 10.5022 18.8932 10.6029 18.8993C10.8097 18.9119 11.0728 18.919 11.3246 18.923C11.5786 18.927 11.8304 18.9281 12.0181 18.9282C12.1122 18.9282 12.1905 18.928 12.2454 18.9278C12.2728 18.9277 12.2945 18.9275 12.3093 18.9275C12.3168 18.9274 12.3225 18.9274 12.3264 18.9274C12.3284 18.9273 12.3299 18.9273 12.3309 18.9273C12.3314 18.9273 12.3318 18.9273 12.3321 18.9273C12.3323 18.9273 12.3324 18.9273 12.3325 18.9273C12.3325 18.9273 12.3325 18.9273 12.3326 18.9273C12.3326 18.9273 12.3326 18.9273 12.3275 18.2273C12.3223 17.5273 12.3223 17.5273 12.3223 17.5273C12.3223 17.5273 12.3223 17.5273 12.3223 17.5273C12.3223 17.5273 12.3222 17.5273 12.3221 17.5273C12.3219 17.5273 12.3216 17.5274 12.3212 17.5274C12.3203 17.5274 12.319 17.5274 12.3172 17.5274C12.3136 17.5274 12.3083 17.5274 12.3012 17.5275C12.2872 17.5276 12.2664 17.5277 12.2398 17.5278C12.1866 17.528 12.1104 17.5282 12.0188 17.5282C11.8351 17.5281 11.5911 17.527 11.3468 17.5231C11.1002 17.5192 10.8625 17.5126 10.6881 17.5019C10.5983 17.4965 10.5414 17.4908 10.5134 17.4868C10.496 17.4842 10.512 17.4854 10.5439 17.4949C10.5581 17.4992 10.604 17.5133 10.6603 17.5442C10.6923 17.5617 10.8652 17.6554 10.9589 17.8762L9.67009 18.423ZM11.8194 18.7089L12.4365 19.3599L13.4526 18.3968L12.8355 17.7458L11.8194 18.7089ZM12.9445 18.8783C12.245 18.853 12.245 18.853 12.245 18.853C12.245 18.8531 12.245 18.8531 12.245 18.8531C12.245 18.8532 12.245 18.8533 12.245 18.8535C12.245 18.8538 12.245 18.8542 12.2449 18.8547C12.2449 18.8557 12.2448 18.8572 12.2448 18.8592C12.2446 18.8631 12.2444 18.8689 12.2442 18.8763C12.2437 18.8912 12.2429 18.9129 12.242 18.9405C12.2402 18.9956 12.2377 19.0741 12.2351 19.1684C12.2297 19.3567 12.2235 19.6093 12.2203 19.8643C12.2171 20.1169 12.2166 20.381 12.2235 20.5887C12.2268 20.6899 12.2323 20.7944 12.2428 20.8828C12.2477 20.9235 12.2564 20.9868 12.2745 21.0532C12.2831 21.0847 12.3012 21.1452 12.3367 21.2132C12.3596 21.2572 12.4563 21.4391 12.6829 21.5391L13.2479 20.2581C13.4688 20.3556 13.5599 20.5312 13.5777 20.5653C13.608 20.6234 13.6213 20.6705 13.6253 20.6851C13.6343 20.7181 13.6351 20.7347 13.633 20.7174C13.6297 20.6896 13.6257 20.6328 13.6227 20.5427C13.6169 20.3678 13.617 20.1294 13.6202 19.8821C13.6233 19.637 13.6293 19.3922 13.6345 19.2081C13.6371 19.1162 13.6395 19.0398 13.6413 18.9865C13.6421 18.9598 13.6428 18.939 13.6433 18.9248C13.6436 18.9178 13.6438 18.9124 13.6439 18.9088C13.644 18.9071 13.644 18.9057 13.644 18.9049C13.644 18.9044 13.6441 18.9041 13.6441 18.9039C13.6441 18.9038 13.6441 18.9038 13.6441 18.9037C13.6441 18.9037 13.6441 18.9037 13.6441 18.9037C13.6441 18.9037 13.6441 18.9037 12.9445 18.8783ZM12.6775 21.5367L14.0356 22.1495L14.6114 20.8734L13.2533 20.2606L12.6775 21.5367ZM14.0294 22.1466C14.2546 22.2509 14.4551 22.2035 14.5104 22.1892C14.5883 22.1692 14.6478 22.1402 14.678 22.1245C14.7416 22.0915 14.7954 22.0534 14.8286 22.0289C14.9008 21.9757 14.9806 21.9077 15.0553 21.8413C15.2092 21.7047 15.398 21.5243 15.5761 21.3502C15.7559 21.1743 15.932 20.9978 16.0627 20.8657C16.1282 20.7995 16.1825 20.7442 16.2206 20.7054C16.2397 20.686 16.2546 20.6706 16.2649 20.6601C16.2701 20.6548 16.274 20.6507 16.2768 20.648C16.2781 20.6466 16.2792 20.6455 16.2799 20.6448C16.2802 20.6444 16.2805 20.6441 16.2807 20.6439C16.2808 20.6438 16.2809 20.6437 16.281 20.6437C16.281 20.6436 16.281 20.6436 16.281 20.6436C16.281 20.6436 16.2811 20.6435 15.7794 20.1553C15.2777 19.6672 15.2777 19.6671 15.2777 19.6671C15.2777 19.6671 15.2777 19.6672 15.2777 19.6672C15.2777 19.6672 15.2777 19.6672 15.2776 19.6673C15.2775 19.6674 15.2772 19.6677 15.2769 19.668C15.2764 19.6686 15.2754 19.6695 15.2742 19.6708C15.2718 19.6733 15.2681 19.6771 15.2632 19.682C15.2535 19.692 15.2392 19.7067 15.2208 19.7254C15.184 19.7629 15.1312 19.8166 15.0675 19.881C14.9399 20.01 14.7696 20.1806 14.5973 20.3492C14.4231 20.5195 14.2538 20.6808 14.1258 20.7944C14.0597 20.8531 14.0177 20.8874 13.9974 20.9023C13.9844 20.912 13.9993 20.8995 14.0326 20.8822C14.0477 20.8744 14.0942 20.8508 14.1614 20.8335C14.2061 20.8219 14.3982 20.7746 14.6176 20.8762L14.0294 22.1466ZM15.7557 20.8549L16.6493 20.8853L16.6968 19.4861L15.8031 19.4557L15.7557 20.8549ZM16.673 20.1857C16.1572 20.6589 16.1572 20.6589 16.1573 20.6589C16.1573 20.6589 16.1573 20.6589 16.1573 20.659C16.1574 20.659 16.1575 20.6591 16.1575 20.6592C16.1577 20.6594 16.158 20.6597 16.1584 20.6601C16.1591 20.6609 16.1601 20.662 16.1615 20.6635C16.1641 20.6664 16.1681 20.6707 16.1732 20.6762C16.1833 20.6873 16.1982 20.7034 16.2171 20.7238C16.2548 20.7647 16.3087 20.823 16.3737 20.8927C16.5033 21.0319 16.678 21.2179 16.8562 21.4036C17.033 21.5877 17.2194 21.7779 17.3709 21.9225C17.4448 21.9929 17.5219 22.0637 17.5906 22.1193C17.6224 22.145 17.6719 22.1834 17.7294 22.2177C17.7566 22.2339 17.8099 22.2641 17.8802 22.2882C17.9223 22.3027 18.1176 22.37 18.3515 22.2879L17.8881 20.9668C18.1161 20.8869 18.3031 20.9532 18.3346 20.9641C18.3943 20.9845 18.4347 21.0083 18.4468 21.0155C18.4742 21.0319 18.485 21.042 18.4707 21.0305C18.4475 21.0118 18.4036 20.9727 18.3374 20.9096C18.2088 20.7869 18.0394 20.6146 17.8662 20.4341C17.6945 20.2553 17.525 20.0747 17.3981 19.9384C17.3347 19.8704 17.2822 19.8137 17.2456 19.7741C17.2273 19.7543 17.213 19.7387 17.2034 19.7282C17.1985 19.723 17.1948 19.719 17.1924 19.7163C17.1912 19.715 17.1903 19.714 17.1897 19.7133C17.1894 19.713 17.1892 19.7128 17.189 19.7126C17.189 19.7125 17.1889 19.7125 17.1889 19.7125C17.1889 19.7125 17.1889 19.7124 17.1889 19.7124C17.1889 19.7124 17.1889 19.7124 16.673 20.1857ZM18.3657 22.2828L19.746 21.7649L19.2542 20.4541L17.8739 20.972L18.3657 22.2828ZM19.7289 21.771C19.9753 21.6858 20.087 21.4991 20.115 21.4505C20.1559 21.3796 20.1768 21.3158 20.1865 21.2836C20.2072 21.2152 20.2174 21.1501 20.223 21.1096C20.2352 21.0211 20.2424 20.9165 20.2472 20.8162C20.2571 20.6099 20.2603 20.3472 20.2606 20.0962C20.2608 19.8428 20.258 19.5915 20.2552 19.4041C20.2538 19.3103 20.2524 19.2321 20.2513 19.1773C20.2507 19.1498 20.2503 19.1282 20.25 19.1134C20.2498 19.106 20.2497 19.1002 20.2496 19.0963C20.2496 19.0944 20.2495 19.0929 20.2495 19.0918C20.2495 19.0913 20.2495 19.0909 20.2495 19.0906C20.2495 19.0905 20.2495 19.0904 20.2495 19.0903C20.2495 19.0902 20.2495 19.0902 20.2495 19.0902C20.2495 19.0901 20.2495 19.0901 19.5497 19.1063C18.8498 19.1226 18.8498 19.1225 18.8498 19.1225C18.8498 19.1226 18.8498 19.1226 18.8498 19.1226C18.8498 19.1226 18.8498 19.1227 18.8498 19.1228C18.8498 19.123 18.8499 19.1233 18.8499 19.1237C18.8499 19.1246 18.8499 19.1259 18.85 19.1277C18.85 19.1312 18.8502 19.1365 18.8503 19.1436C18.8506 19.1576 18.851 19.1783 18.8516 19.2048C18.8526 19.2579 18.854 19.3339 18.8554 19.4252C18.8581 19.6083 18.8608 19.8516 18.8606 20.0949C18.8603 20.3405 18.8571 20.5766 18.8488 20.7489C18.8445 20.838 18.8396 20.8928 18.8361 20.9183C18.8338 20.9348 18.8353 20.9154 18.8461 20.8795C18.8509 20.8635 18.8667 20.8126 18.9022 20.7512C18.9248 20.7119 19.0308 20.5311 19.2712 20.4479L19.7289 21.771ZM20.0287 19.6167L20.6732 19.0118L19.7151 17.991L19.0706 18.5959L20.0287 19.6167ZM20.1941 18.5014C20.1579 19.2005 20.158 19.2005 20.158 19.2005C20.158 19.2005 20.1581 19.2005 20.1581 19.2005C20.1582 19.2005 20.1583 19.2005 20.1584 19.2005C20.1587 19.2005 20.1591 19.2006 20.1596 19.2006C20.1607 19.2006 20.1622 19.2007 20.1642 19.2008C20.1681 19.201 20.1739 19.2013 20.1813 19.2017C20.1963 19.2024 20.2181 19.2035 20.2457 19.2049C20.301 19.2075 20.3798 19.2113 20.4744 19.2154C20.6633 19.2237 20.9168 19.234 21.1726 19.2413C21.4261 19.2487 21.6909 19.2535 21.899 19.2503C22.0003 19.2487 22.1046 19.2451 22.1925 19.2364C22.2329 19.2324 22.2956 19.225 22.3613 19.2087C22.3922 19.2011 22.4524 19.1847 22.5204 19.1515C22.5619 19.1312 22.7508 19.0388 22.8573 18.8102L21.5882 18.219C21.6921 17.9961 21.8746 17.9088 21.9061 17.8935C21.9641 17.8651 22.0108 17.8532 22.0249 17.8497C22.0569 17.8418 22.0726 17.8414 22.0547 17.8432C22.0259 17.846 21.9681 17.849 21.8774 17.8504C21.7012 17.8532 21.4614 17.8491 21.213 17.8419C20.9668 17.8348 20.7209 17.8249 20.536 17.8168C20.4437 17.8127 20.367 17.8091 20.3134 17.8065C20.2867 17.8052 20.2657 17.8042 20.2515 17.8035C20.2444 17.8031 20.239 17.8028 20.2355 17.8026C20.2337 17.8026 20.2323 17.8025 20.2315 17.8024C20.231 17.8024 20.2307 17.8024 20.2305 17.8024C20.2304 17.8024 20.2303 17.8024 20.2303 17.8024C20.2303 17.8024 20.2303 17.8024 20.2303 17.8024C20.2303 17.8024 20.2303 17.8024 20.1941 18.5014ZM22.8626 18.7984L23.4588 17.4542L22.1791 16.8866L21.5829 18.2308L22.8626 18.7984ZM23.4666 17.436C23.562 17.2034 23.5024 17.0025 23.4887 16.9568C23.4668 16.8837 23.4376 16.828 23.4221 16.7998C23.389 16.7401 23.3515 16.6889 23.3268 16.6564C23.2731 16.586 23.2045 16.5071 23.1366 16.4319C22.997 16.2776 22.8129 16.0875 22.6347 15.9074C22.4549 15.7258 22.2746 15.5477 22.1397 15.4155C22.0722 15.3492 22.0157 15.2943 21.9761 15.2557C21.9562 15.2365 21.9406 15.2213 21.9299 15.2109C21.9245 15.2057 21.9203 15.2017 21.9175 15.199C21.9161 15.1976 21.915 15.1966 21.9143 15.1958C21.9139 15.1955 21.9136 15.1952 21.9134 15.195C21.9133 15.1949 21.9132 15.1948 21.9131 15.1948C21.9131 15.1947 21.9131 15.1947 21.9131 15.1947C21.913 15.1947 21.913 15.1947 21.4269 15.6984C20.9409 16.2021 20.9409 16.2021 20.9409 16.2021C20.9409 16.2021 20.9409 16.2021 20.9409 16.2021C20.9409 16.2021 20.941 16.2022 20.941 16.2022C20.9412 16.2024 20.9414 16.2026 20.9417 16.2029C20.9423 16.2035 20.9433 16.2044 20.9446 16.2057C20.9472 16.2082 20.951 16.2119 20.9561 16.2168C20.9663 16.2267 20.9814 16.2413 21.0006 16.2599C21.039 16.2972 21.0939 16.3508 21.1598 16.4153C21.2918 16.5447 21.4666 16.7174 21.6395 16.8921C21.8141 17.0686 21.9804 17.2407 22.0982 17.371C22.159 17.4382 22.1959 17.4823 22.2132 17.5049C22.224 17.519 22.2133 17.5069 22.197 17.4775C22.1899 17.4646 22.1666 17.4218 22.1478 17.3593C22.1373 17.3243 22.0783 17.1316 22.1713 16.9048L23.4666 17.436ZM17.9739 15.8309C17.5805 16.7228 16.5237 17.13 15.6047 16.7137L15.027 17.989C16.6418 18.7204 18.5412 18.0136 19.2548 16.396L17.9739 15.8309ZM15.6045 16.7137C14.6876 16.2986 14.2735 15.2168 14.67 14.3158L13.3886 13.7519C12.6781 15.3666 13.4223 17.2626 15.0272 17.9891L15.6045 16.7137ZM14.6701 14.3157C15.0599 13.4295 16.1197 13.0225 17.0346 13.4367L17.612 12.1613C16.0051 11.4339 14.0998 12.1349 13.3886 13.7521L14.6701 14.3157ZM17.0323 13.4357C17.9558 13.8577 18.366 14.9393 17.9736 15.8316L19.2551 16.3952C19.9637 14.7841 19.2156 12.8941 17.6142 12.1623L17.0323 13.4357Z" fill="white"/>
</g>
<defs>
<clipPath id="clip0_2929_7664">
<rect width="32" height="32" fill="white"/>
</clipPath>
</defs>
</svg>
