<svg width="32" height="32" viewBox="0 0 32 32" fill="none" xmlns="http://www.w3.org/2000/svg">
<g clip-path="url(#clip0_2929_7609)">
<path fill-rule="evenodd" clip-rule="evenodd" d="M21.0222 23.4594C20.5529 23.6819 20.0011 23.4777 19.6123 23.1334C19.1592 22.7321 18.5739 22.4932 17.951 22.475L14.9822 22.3928C14.5122 22.3791 14.0512 22.2598 13.6333 22.0432L13.3312 21.8864C11.7846 21.0772 9.77254 21.0792 8.22754 21.8914C8.22744 23.8564 8.22763 26.449 8.22754 28.0296L9.0736 27.5752C9.40533 27.3962 9.79359 27.3536 10.1562 27.4563L15.2061 28.8783C15.2147 28.8809 15.2236 28.8829 15.2326 28.8849C15.5978 28.9616 15.97 29.0002 16.343 29C17.1326 29.0004 17.9129 28.8296 18.6303 28.499C18.6479 28.4907 18.6649 28.4813 18.6812 28.4708L26.0031 23.7184C26.1855 23.6001 26.2444 23.3598 26.1376 23.1699C25.594 22.2021 24.3886 21.8337 23.3996 22.3327L21.0222 23.4594Z" stroke="white" stroke-width="1.5" stroke-linecap="round" stroke-linejoin="round"/>
<rect x="4.9292" y="21.3663" width="3.29856" height="7.5428" rx="0.975456" stroke="white" stroke-width="1.5" stroke-linecap="round" stroke-linejoin="round"/>
<path d="M17.9523 22.4719C17.9523 22.4719 19.6656 22.6029 20.1539 24.2704C20.3053 24.7874 19.8447 25.2353 19.306 25.2353C16.6509 25.2353 15.0132 25.2353 15.0132 25.2353" stroke="white" stroke-width="1.5" stroke-linecap="round" stroke-linejoin="round"/>
<path fill-rule="evenodd" clip-rule="evenodd" d="M23.7528 20.1101H16.8086L17.8092 18.0185C17.8692 17.879 18.0594 17.7814 18.2795 17.7814H22.2819C22.502 17.7814 22.6921 17.879 22.7522 18.0185L23.7528 20.1101Z" stroke="white" stroke-width="1.5" stroke-linecap="round" stroke-linejoin="round"/>
<path d="M15 6.9566H13.562C13.0097 6.9566 12.562 7.40432 12.562 7.9566V16.2487C12.562 16.801 13.0097 17.2487 13.562 17.2487H27.0002C27.5525 17.2487 28.0002 16.801 28.0002 16.2487V7.9566C28.0002 7.40432 27.5525 6.9566 27.0002 6.9566H25.5" stroke="white" stroke-width="1.5" stroke-linecap="round" stroke-linejoin="round"/>
<path fill-rule="evenodd" clip-rule="evenodd" d="M10.4256 15.2144L10.4371 14.6534C10.4371 14.6534 11.3555 13.8186 11.3333 13.7605L10.9932 12.8909C10.9677 12.8311 9.72485 12.8394 9.72485 12.8394L9.33546 12.4311C9.33546 12.4311 9.38311 11.1847 9.32479 11.159L8.46963 10.7715C8.40884 10.7441 7.55204 11.6303 7.55204 11.6303L6.99015 11.6079C6.99015 11.6079 6.13663 10.6793 6.07913 10.7018L5.20754 11.0279C5.14922 11.0486 5.17797 12.2876 5.17797 12.2876L4.77134 12.6718C4.77134 12.6718 3.52023 12.6037 3.49476 12.6602L3.11935 13.5066C3.09306 13.5663 3.99422 14.4352 3.99422 14.4352L3.98272 14.9928C3.98272 14.9928 3.06513 15.8293 3.08731 15.8874L3.42822 16.7579C3.45287 16.816 4.69576 16.8068 4.69576 16.8068L5.08432 17.2168C5.08432 17.2168 5.03914 18.4632 5.09746 18.4889L5.95262 18.8748C6.01177 18.9022 6.86939 18.0209 6.86939 18.0209L7.4321 18.04C7.4321 18.04 8.28397 18.9685 8.34312 18.9478L9.21224 18.6217C9.27221 18.6009 9.24346 17.3603 9.24346 17.3603L9.64927 16.9794C9.64927 16.9794 10.9004 17.0442 10.9267 16.9877L11.3021 16.1413C11.3259 16.0832 10.4256 15.2144 10.4256 15.2144ZM8.65488 15.4771C8.30633 16.2672 7.37562 16.618 6.57786 16.2566C5.78391 15.8972 5.41922 14.9597 5.76776 14.1676C6.1144 13.3795 7.04797 13.0307 7.84193 13.3901C8.63683 13.7533 9.00152 14.6889 8.65488 15.4771Z" fill="white"/>
<circle cx="20.2811" cy="9.02868" r="5.26888" stroke="white" stroke-width="0.7" stroke-linecap="round" stroke-linejoin="round"/>
<path d="M20.2697 3.7598L20.2741 14.1855" stroke="white" stroke-width="0.7" stroke-linecap="round" stroke-linejoin="round"/>
<path d="M19.3843 3.86499C18.1138 4.91559 17.4785 6.63241 17.4785 9.01544C17.4785 11.3985 18.1138 13.1195 19.3843 14.1785" stroke="white" stroke-width="0.7" stroke-linecap="round" stroke-linejoin="round"/>
<path d="M21.1782 3.86499C22.4487 4.91559 23.084 6.63241 23.084 9.01544C23.084 11.3985 22.4487 13.1195 21.1782 14.1785" stroke="white" stroke-width="0.7" stroke-linecap="round" stroke-linejoin="round"/>
<path d="M16.3569 5.5481C17.2728 6.14598 18.562 6.44493 20.2245 6.44493C21.887 6.44493 23.1762 6.14598 24.0921 5.5481" stroke="white" stroke-width="0.7" stroke-linecap="round" stroke-linejoin="round"/>
<path d="M16.3569 12.5093C17.2728 11.9114 18.562 11.6124 20.2245 11.6124C21.887 11.6124 23.1762 11.9114 24.0921 12.5093" stroke="white" stroke-width="0.7" stroke-linecap="round" stroke-linejoin="round"/>
<path d="M15.0122 9.03491H25.55" stroke="white" stroke-width="0.7" stroke-linecap="round" stroke-linejoin="round"/>
</g>
<defs>
<clipPath id="clip0_2929_7609">
<rect width="32" height="32" fill="white"/>
</clipPath>
</defs>
</svg>
