<svg width="32" height="32" viewBox="0 0 32 32" fill="none" xmlns="http://www.w3.org/2000/svg">
<path d="M25.174 20.8711V19.3828C25.174 18.2782 24.2785 17.3828 23.174 17.3828H8.78711C7.68254 17.3828 6.78711 18.2782 6.78711 19.3828V20.8711" stroke="white" stroke-width="1.5" stroke-linecap="round"/>
<path d="M15.9805 20.8703L15.9805 15.8047" stroke="white" stroke-width="1.5" stroke-linecap="round"/>
<circle cx="16.331" cy="9.40283" r="3.01846" stroke="white" stroke-width="1.5" stroke-linecap="round" stroke-linejoin="round"/>
<path d="M19.6597 9.3735H20.3467" stroke="white" stroke-width="1.5" stroke-linecap="square"/>
<path d="M16.335 6.25034V5.38671" stroke="white" stroke-width="1.5" stroke-linecap="square"/>
<path d="M12.3633 9.3735H13.0618" stroke="white" stroke-width="1.5" stroke-linecap="square"/>
<path d="M18.4683 7.11182L19.0789 6.50114" stroke="white" stroke-width="1.5" stroke-linecap="square"/>
<path d="M14.2021 7.11456L13.5915 6.50388" stroke="white" stroke-width="1.5" stroke-linecap="square"/>
<path d="M16.335 12.5213V13.3849" stroke="white" stroke-width="1.5" stroke-linecap="square"/>
<path d="M18.4683 11.6625L19.0789 12.2732" stroke="white" stroke-width="1.5" stroke-linecap="square"/>
<path d="M14.2021 11.6571L13.5915 12.2678" stroke="white" stroke-width="1.5" stroke-linecap="square"/>
<path fill-rule="evenodd" clip-rule="evenodd" d="M4.8606 22.1797C4.67385 22.1797 4.52246 22.3311 4.52246 22.5178V23.7577C4.52246 23.9444 4.67385 24.0958 4.8606 24.0958H9.93276C10.1195 24.0958 10.2709 23.9444 10.2709 23.7577V22.5178C10.2709 22.3311 10.1195 22.1797 9.93276 22.1797H4.8606ZM5.78906 23.6376C6.0652 23.6376 6.28906 23.4137 6.28906 23.1376C6.28906 22.8615 6.0652 22.6376 5.78906 22.6376C5.51292 22.6376 5.28906 22.8615 5.28906 23.1376C5.28906 23.4137 5.51292 23.6376 5.78906 23.6376Z" fill="white"/>
<path fill-rule="evenodd" clip-rule="evenodd" d="M4.8606 24.5582C4.67385 24.5582 4.52246 24.7096 4.52246 24.8964V26.1362C4.52246 26.323 4.67385 26.4744 4.8606 26.4744H9.93276C10.1195 26.4744 10.2709 26.323 10.2709 26.1362V24.8964C10.2709 24.7096 10.1195 24.5582 9.93276 24.5582H4.8606ZM5.78906 26.0161C6.0652 26.0161 6.28906 25.7923 6.28906 25.5161C6.28906 25.24 6.0652 25.0161 5.78906 25.0161C5.51292 25.0161 5.28906 25.24 5.28906 25.5161C5.28906 25.7923 5.51292 26.0161 5.78906 26.0161Z" fill="white"/>
<path fill-rule="evenodd" clip-rule="evenodd" d="M13.4446 22.1797C13.2578 22.1797 13.1064 22.3311 13.1064 22.5178V23.7577C13.1064 23.9444 13.2578 24.0958 13.4446 24.0958H18.5167C18.7035 24.0958 18.8549 23.9444 18.8549 23.7577V22.5178C18.8549 22.3311 18.7035 22.1797 18.5167 22.1797H13.4446ZM14.373 23.6376C14.6492 23.6376 14.873 23.4137 14.873 23.1376C14.873 22.8615 14.6492 22.6376 14.373 22.6376C14.0969 22.6376 13.873 22.8615 13.873 23.1376C13.873 23.4137 14.0969 23.6376 14.373 23.6376Z" fill="white"/>
<path fill-rule="evenodd" clip-rule="evenodd" d="M13.4446 24.5582C13.2578 24.5582 13.1064 24.7096 13.1064 24.8964V26.1362C13.1064 26.323 13.2578 26.4744 13.4446 26.4744H18.5167C18.7035 26.4744 18.8549 26.323 18.8549 26.1362V24.8964C18.8549 24.7096 18.7035 24.5582 18.5167 24.5582H13.4446ZM14.373 26.0161C14.6492 26.0161 14.873 25.7923 14.873 25.5161C14.873 25.24 14.6492 25.0161 14.373 25.0161C14.0969 25.0161 13.873 25.24 13.873 25.5161C13.873 25.7923 14.0969 26.0161 14.373 26.0161Z" fill="white"/>
<path fill-rule="evenodd" clip-rule="evenodd" d="M21.8186 22.1797C21.6319 22.1797 21.4805 22.3311 21.4805 22.5178V23.7577C21.4805 23.9444 21.6319 24.0958 21.8186 24.0958H26.8908C27.0775 24.0958 27.2289 23.9444 27.2289 23.7577V22.5178C27.2289 22.3311 27.0775 22.1797 26.8908 22.1797H21.8186ZM22.7471 23.6376C23.0232 23.6376 23.2471 23.4137 23.2471 23.1376C23.2471 22.8615 23.0232 22.6376 22.7471 22.6376C22.4709 22.6376 22.2471 22.8615 22.2471 23.1376C22.2471 23.4137 22.4709 23.6376 22.7471 23.6376Z" fill="white"/>
<path fill-rule="evenodd" clip-rule="evenodd" d="M21.8186 24.5582C21.6319 24.5582 21.4805 24.7096 21.4805 24.8964V26.1362C21.4805 26.323 21.6319 26.4744 21.8186 26.4744H26.8908C27.0775 26.4744 27.2289 26.323 27.2289 26.1362V24.8964C27.2289 24.7096 27.0775 24.5582 26.8908 24.5582H21.8186ZM22.7471 26.0161C23.0232 26.0161 23.2471 25.7923 23.2471 25.5161C23.2471 25.24 23.0232 25.0161 22.7471 25.0161C22.4709 25.0161 22.2471 25.24 22.2471 25.5161C22.2471 25.7923 22.4709 26.0161 22.7471 26.0161Z" fill="white"/>
</svg>
