<svg width="32" height="32" viewBox="0 0 32 32" fill="none" xmlns="http://www.w3.org/2000/svg">
<g clip-path="url(#clip0_2929_7641)">
<path fill-rule="evenodd" clip-rule="evenodd" d="M22.7232 21.5101C22.2539 21.7326 21.7018 21.5328 21.3325 21.1676C20.7807 20.6219 20.0362 20.2941 19.2397 20.2708L15.723 20.1734C15.1662 20.1572 14.6201 20.0159 14.1251 19.7593L13.7673 19.5735C11.9352 18.615 9.55183 18.6174 7.72168 19.5794C7.72157 21.9071 7.72179 24.9782 7.72168 26.8505L8.72389 26.3123C9.11685 26.1002 9.57676 26.0497 10.0063 26.1715L15.9882 27.8559C15.9984 27.859 16.0089 27.8613 16.0196 27.8637C16.4522 27.9545 16.8931 28.0002 17.335 28C18.2702 28.0005 19.1945 27.7982 20.0443 27.4065C20.0652 27.3968 20.0854 27.3856 20.1046 27.3732L28.7779 21.7437C28.994 21.6036 29.0638 21.3189 28.9372 21.094C28.2933 19.9475 26.8654 19.5111 25.6939 20.1021L22.7232 21.5101Z" stroke="white" stroke-width="1.5" stroke-linecap="round" stroke-linejoin="round"/>
<rect x="3.81445" y="18.9575" width="3.90734" height="8.9349" rx="0.975456" stroke="white" stroke-width="1.5" stroke-linecap="round" stroke-linejoin="round"/>
<path d="M19.2413 20.2671C19.2413 20.2671 21.3889 20.4313 21.8953 22.5719C22.0193 23.0961 21.564 23.5405 21.0253 23.5405C17.774 23.5405 15.7598 23.5405 15.7598 23.5405" stroke="white" stroke-width="1.5" stroke-linecap="round" stroke-linejoin="round"/>
<path fill-rule="evenodd" clip-rule="evenodd" d="M11.53 11.1593L11.5436 10.4948C11.5436 10.4948 12.6315 9.50592 12.6052 9.43711L12.2024 8.40694C12.1722 8.33617 10.6999 8.346 10.6999 8.346L10.2387 7.86237C10.2387 7.86237 10.2951 6.38592 10.226 6.35545L9.21306 5.8964C9.14105 5.86396 8.12612 6.91379 8.12612 6.91379L7.46053 6.88725C7.46053 6.88725 6.44949 5.78729 6.38137 5.81383L5.34893 6.20014C5.27984 6.22472 5.31389 7.69231 5.31389 7.69231L4.83221 8.14743C4.83221 8.14743 3.3502 8.06683 3.32003 8.13367L2.87533 9.13632C2.84419 9.20709 3.91167 10.2363 3.91167 10.2363L3.89805 10.8968C3.89805 10.8968 2.81111 11.8877 2.83738 11.9565L3.24121 12.9877C3.27041 13.0565 4.74269 13.0456 4.74269 13.0456L5.20296 13.5312C5.20296 13.5312 5.14944 15.0077 5.21853 15.0382L6.23152 15.4952C6.30158 15.5277 7.31748 14.4838 7.31748 14.4838L7.98405 14.5064C7.98405 14.5064 8.99314 15.6063 9.06321 15.5818L10.0927 15.1954C10.1638 15.1709 10.1297 13.7013 10.1297 13.7013L10.6104 13.2501C10.6104 13.2501 12.0924 13.3268 12.1236 13.2599L12.5683 12.2573C12.5965 12.1885 11.53 11.1593 11.53 11.1593ZM9.43228 11.4705C9.01941 12.4065 7.91692 12.8219 6.97193 12.3939C6.03144 11.9682 5.59944 10.8576 6.01232 9.91938C6.42294 8.98573 7.5288 8.57255 8.46929 8.99829C9.4109 9.42859 9.8429 10.5369 9.43228 11.4705Z" fill="white"/>
<path d="M15.1973 7.42786V15.4145H26.9757V7.42786" stroke="white" stroke-width="1.5" stroke-linecap="round" stroke-linejoin="round"/>
<path d="M18.3755 7.42847H14.543V4.19641H19.3403M23.2767 4.19641H27.6301V7.42847H23.9547" stroke="white" stroke-width="1.5" stroke-linecap="round" stroke-linejoin="round"/>
<path d="M18.7734 10.3645L21.0399 8.63514L23.3995 10.3645V4.19641H18.7734V10.3645Z" stroke="white" stroke-width="1.5" stroke-linecap="round" stroke-linejoin="round"/>
</g>
<defs>
<clipPath id="clip0_2929_7641">
<rect width="32" height="32" fill="white"/>
</clipPath>
</defs>
</svg>
