<svg width="24" height="24" viewBox="0 0 24 24" fill="none" xmlns="http://www.w3.org/2000/svg">
<g clip-path="url(#clip0_2308_9722)">
<path d="M18.7956 15.6746C19.3844 14.5566 19.7176 13.2831 19.7176 11.9318C19.7176 7.48971 16.1166 3.88867 11.6745 3.88867C10.7109 3.88867 9.7868 4.05814 8.9305 4.36889M15.2104 19.1581C14.1432 19.6813 12.9432 19.975 11.6745 19.975C7.23239 19.975 3.63135 16.3739 3.63135 11.9318C3.63135 10.4718 4.02034 9.10272 4.70034 7.92244" stroke="white" stroke-width="1.5" stroke-linecap="round" stroke-linejoin="round"/>
<path d="M19.9918 15.9814L18.105 16.2882L17.9379 14.384" stroke="white" stroke-width="1.5" stroke-linecap="round" stroke-linejoin="round"/>
<path d="M3.05715 8.40707L4.70827 7.44381L5.54732 9.16137" stroke="white" stroke-width="1.5" stroke-linecap="round" stroke-linejoin="round"/>
<path fill-rule="evenodd" clip-rule="evenodd" d="M15.1363 12.3434L15.1484 11.7507C15.1484 11.7507 16.1188 10.8686 16.0954 10.8072L15.7361 9.88836C15.7092 9.82523 14.3959 9.834 14.3959 9.834L13.9845 9.40261C13.9845 9.40261 14.0348 8.08567 13.9732 8.05849L13.0697 7.64902C13.0054 7.62009 12.1001 8.55651 12.1001 8.55651L11.5065 8.53283C11.5065 8.53283 10.6046 7.5517 10.5439 7.57537L9.62297 7.91995C9.56134 7.94187 9.59172 9.25093 9.59172 9.25093L9.16208 9.65688C9.16208 9.65688 7.84016 9.58499 7.81325 9.64461L7.41659 10.5389C7.38882 10.6021 8.34098 11.5201 8.34098 11.5201L8.32883 12.1093C8.32883 12.1093 7.35931 12.9931 7.38274 13.0545L7.74295 13.9742C7.76899 14.0356 9.08222 14.026 9.08222 14.026L9.49277 14.4591C9.49277 14.4591 9.44503 15.776 9.50666 15.8032L10.4102 16.2109C10.4727 16.2399 11.3789 15.3087 11.3789 15.3087L11.9734 15.3289C11.9734 15.3289 12.8735 16.31 12.936 16.2881L13.8543 15.9435C13.9177 15.9216 13.8873 14.6108 13.8873 14.6108L14.3161 14.2083C14.3161 14.2083 15.638 14.2767 15.6658 14.2171L16.0624 13.3228C16.0876 13.2614 15.1363 12.3434 15.1363 12.3434Z" stroke="white" stroke-linecap="round" stroke-linejoin="round"/>
<path fill-rule="evenodd" clip-rule="evenodd" d="M13.3409 12.6551C12.9542 13.5315 11.9219 13.9206 11.037 13.5198C10.1563 13.1211 9.75175 12.0812 10.1384 11.2026C10.5229 10.3283 11.5584 9.94144 12.4391 10.3401C13.3208 10.743 13.7254 11.7808 13.3409 12.6551Z" stroke="white" stroke-linecap="round" stroke-linejoin="round"/>
</g>
<defs>
<clipPath id="clip0_2308_9722">
<rect width="24" height="24" fill="white"/>
</clipPath>
</defs>
</svg>
