<svg width="24" height="24" viewBox="0 0 24 24" fill="none" xmlns="http://www.w3.org/2000/svg">
<path d="M8.00049 6.00024C8.00049 5.46981 8.2112 4.9611 8.58628 4.58603C8.96135 4.21096 9.47006 4.00024 10.0005 4.00024H18.0005C18.5309 4.00024 19.0396 4.21096 19.4147 4.58603C19.7898 4.9611 20.0005 5.46981 20.0005 6.00024V14.0002C20.0005 14.5307 19.7898 15.0394 19.4147 15.4145C19.0396 15.7895 18.5309 16.0002 18.0005 16.0002H10.0005C9.47006 16.0002 8.96135 15.7895 8.58628 15.4145C8.2112 15.0394 8.00049 14.5307 8.00049 14.0002V6.00024Z" stroke="white" stroke-width="1.5" stroke-linecap="round" stroke-linejoin="round"/>
<path d="M3.99951 9.99976C3.99951 9.46932 4.21023 8.96062 4.5853 8.58554C4.96037 8.21047 5.46908 7.99976 5.99951 7.99976H13.9995C14.5299 7.99976 15.0387 8.21047 15.4137 8.58554C15.7888 8.96062 15.9995 9.46932 15.9995 9.99976V17.9998C15.9995 18.5302 15.7888 19.0389 15.4137 19.414C15.0387 19.789 14.5299 19.9998 13.9995 19.9998H5.99951C5.46908 19.9998 4.96037 19.789 4.5853 19.414C4.21023 19.0389 3.99951 18.5302 3.99951 17.9998V9.99976Z" stroke="white" stroke-width="1.5" stroke-linecap="round" stroke-linejoin="round"/>
<path d="M9 15L15 9" stroke="white" stroke-width="1.5" stroke-linecap="round" stroke-linejoin="round"/>
</svg>
