<svg width="24" height="24" viewBox="0 0 24 24" fill="none" xmlns="http://www.w3.org/2000/svg">
<g clip-path="url(#clip0_2308_9715)">
<path d="M11.1837 10.9404L10.4839 10.9261C10.4799 11.121 10.5574 11.3087 10.6976 11.4441L11.1837 10.9404ZM11.1964 10.3225L10.7256 9.8045C10.5833 9.93381 10.5005 10.1159 10.4965 10.3081L11.1964 10.3225ZM12.1836 9.33895L12.8376 9.08924L12.8355 9.084L12.1836 9.33895ZM11.809 8.381L12.4609 8.12606C12.4584 8.11951 12.4557 8.113 12.4529 8.10653L11.809 8.381ZM10.4119 8.32433L9.90532 8.80744C10.0385 8.94712 10.2235 9.0256 10.4165 9.02431L10.4119 8.32433ZM9.98297 7.8746L9.28348 7.84786C9.27625 8.0369 9.34585 8.22082 9.47641 8.35772L9.98297 7.8746ZM9.9712 6.47333L9.68225 7.11095L9.68872 7.1138L9.9712 6.47333ZM9.02924 6.04646L9.31817 5.40887L9.31675 5.40823L9.02924 6.04646ZM8.0185 6.99252L7.99061 7.69197C8.18991 7.69992 8.38313 7.62247 8.52177 7.47906L8.0185 6.99252ZM7.39957 6.96784L6.8842 7.44155C7.0102 7.57863 7.18563 7.65987 7.37168 7.66729L7.39957 6.96784ZM6.39607 5.96968L6.6414 6.62535L6.6502 6.62192L6.39607 5.96968ZM5.436 6.32891L5.67062 6.98852L5.68131 6.98452L5.436 6.32891ZM5.40343 7.71647L5.88418 8.22527C6.02823 8.08916 6.10783 7.89836 6.10324 7.70023L5.40343 7.71647ZM4.95552 8.13968L4.9175 8.83865C5.10918 8.84908 5.29673 8.78033 5.43626 8.64849L4.95552 8.13968ZM3.54935 8.12689L2.9113 7.83894L2.90946 7.84308L3.54935 8.12689ZM3.13582 9.05924L2.49594 8.77543L2.4951 8.77734L3.13582 9.05924ZM4.09951 10.0821L4.79936 10.0965C4.80338 9.90146 4.72582 9.71357 4.58536 9.57816L4.09951 10.0821ZM4.08684 10.6963L4.55842 11.2137C4.70021 11.0844 4.78274 10.9026 4.78669 10.7108L4.08684 10.6963ZM3.10053 11.6817L2.44656 11.9314L2.44874 11.937L3.10053 11.6817ZM3.47605 12.6406L2.82426 12.8958C2.82664 12.9019 2.8291 12.908 2.83165 12.914L3.47605 12.6406ZM4.87227 12.6945L5.38031 12.213C5.2469 12.0722 5.06106 11.9931 4.86713 11.9945L4.87227 12.6945ZM5.30027 13.1461L5.99981 13.1714C6.00662 12.9836 5.93761 12.8009 5.80832 12.6645L5.30027 13.1461ZM5.31475 14.5473L5.60267 13.9093L5.59723 13.9069L5.31475 14.5473ZM6.25672 14.9724L6.55083 14.3371L6.54462 14.3343L6.25672 14.9724ZM7.26655 14.0318L7.29028 13.3322C7.09319 13.3255 6.90242 13.4023 6.76489 13.5436L7.26655 14.0318ZM7.88639 14.0528L8.40221 13.5796C8.2752 13.4412 8.09788 13.3596 7.91011 13.3532L7.88639 14.0528ZM8.88989 15.0528L9.12157 15.7134C9.12634 15.7117 9.13108 15.71 9.13581 15.7082L8.88989 15.0528ZM9.84724 14.6936L9.61838 14.032C9.61267 14.034 9.60698 14.0361 9.60132 14.0382L9.84724 14.6936ZM9.88162 13.3042L9.40257 12.7938C9.25747 12.93 9.1772 13.1215 9.18181 13.3204L9.88162 13.3042ZM10.3286 12.8846L10.3648 12.1856C10.1745 12.1757 9.98848 12.2439 9.84957 12.3742L10.3286 12.8846ZM11.7357 12.8938L12.3703 13.1894L12.3756 13.1776L11.7357 12.8938ZM12.1492 11.9614L12.7891 12.2452C12.7918 12.2392 12.7944 12.2331 12.7969 12.227L12.1492 11.9614ZM9.23272 11.2283L9.87317 11.5108L9.87348 11.5101L9.23272 11.2283ZM6.94485 12.0869L7.23366 11.4493L7.23353 11.4492L6.94485 12.0869ZM6.05251 9.78589L6.69322 10.0678L6.69328 10.0677L6.05251 9.78589ZM8.33724 8.92937L8.62819 8.2927L8.62591 8.29167L8.33724 8.92937ZM11.8836 10.9547L11.8962 10.3368L10.4965 10.3081L10.4839 10.9261L11.8836 10.9547ZM11.1964 10.3225C11.6672 10.8405 11.6672 10.8405 11.6673 10.8404C11.6673 10.8404 11.6673 10.8404 11.6673 10.8404C11.6674 10.8403 11.6674 10.8403 11.6675 10.8402C11.6677 10.8401 11.6679 10.8399 11.6682 10.8396C11.6687 10.8391 11.6695 10.8384 11.6705 10.8375C11.6726 10.8356 11.6755 10.8329 11.6794 10.8294C11.6871 10.8224 11.6982 10.8122 11.7124 10.7993C11.7406 10.7734 11.7808 10.7365 11.8289 10.6921C11.9249 10.6035 12.0534 10.484 12.1818 10.3617C12.3086 10.241 12.442 10.1113 12.5446 10.0044C12.594 9.95292 12.6479 9.89479 12.6922 9.84014C12.7121 9.81554 12.7468 9.7713 12.7789 9.71711C12.794 9.69173 12.8239 9.6386 12.8474 9.56746C12.862 9.52354 12.9274 9.32449 12.8376 9.08925L11.5297 9.58864C11.4821 9.46418 11.4807 9.3539 11.4864 9.28503C11.4921 9.21515 11.5075 9.1604 11.5184 9.12734C11.5396 9.06342 11.5652 9.0191 11.5742 9.00396C11.5941 8.97028 11.6096 8.95235 11.6042 8.95901C11.5978 8.9669 11.5767 8.99111 11.5347 9.03482C11.4545 9.11836 11.3395 9.23057 11.2165 9.34774C11.0951 9.46334 10.9722 9.57765 10.8792 9.66348C10.8329 9.70628 10.7942 9.74175 10.7673 9.76643C10.7538 9.77877 10.7432 9.7884 10.7361 9.79489C10.7326 9.79813 10.7299 9.80059 10.7281 9.80221C10.7272 9.80302 10.7265 9.80362 10.7261 9.80401C10.7259 9.8042 10.7257 9.80434 10.7256 9.80442C10.7256 9.80446 10.7256 9.80449 10.7256 9.8045C10.7256 9.80451 10.7256 9.80451 10.7255 9.80451C10.7256 9.80451 10.7256 9.8045 11.1964 10.3225ZM12.8355 9.084L12.4609 8.12606L11.1571 8.63594L11.5317 9.59389L12.8355 9.084ZM12.4529 8.10653C12.3591 7.8864 12.1872 7.78822 12.1447 7.76441C12.0801 7.72815 12.0227 7.70911 11.9939 7.70029C11.9332 7.68164 11.8772 7.6723 11.8453 7.66749C11.7748 7.65686 11.6949 7.65034 11.6232 7.64579C11.4743 7.63633 11.2875 7.6311 11.1119 7.62809C10.934 7.62503 10.7581 7.6241 10.6272 7.62393C10.5615 7.62384 10.5069 7.62394 10.4685 7.62407C10.4493 7.62413 10.4341 7.6242 10.4237 7.62425C10.4185 7.62428 10.4145 7.6243 10.4117 7.62431C10.4103 7.62432 10.4092 7.62433 10.4085 7.62433C10.4081 7.62434 10.4078 7.62434 10.4076 7.62434C10.4075 7.62434 10.4074 7.62434 10.4073 7.62434C10.4073 7.62434 10.4073 7.62434 10.4073 7.62434C10.4072 7.62434 10.4072 7.62434 10.4119 8.32433C10.4165 9.02431 10.4165 9.02431 10.4165 9.02431C10.4165 9.02431 10.4165 9.02431 10.4165 9.02431C10.4166 9.02431 10.4166 9.02431 10.4167 9.02431C10.4168 9.02431 10.417 9.02431 10.4173 9.02431C10.4178 9.0243 10.4187 9.0243 10.4199 9.02429C10.4223 9.02428 10.426 9.02426 10.4308 9.02423C10.4404 9.02418 10.4547 9.02412 10.473 9.02406C10.5096 9.02394 10.5621 9.02384 10.6253 9.02393C10.752 9.02409 10.92 9.02499 11.0879 9.02788C11.2581 9.0308 11.4188 9.03563 11.5345 9.04297C11.5951 9.04682 11.6268 9.05038 11.6366 9.05185C11.6448 9.05308 11.6211 9.05029 11.5834 9.03874C11.5662 9.03347 11.5182 9.01812 11.4603 8.98568C11.4246 8.9657 11.2571 8.87149 11.165 8.65546L12.4529 8.10653ZM10.9184 7.84121L10.4895 7.39149L9.47641 8.35772L9.90532 8.80744L10.9184 7.84121ZM9.98297 7.8746C10.6825 7.90134 10.6825 7.90132 10.6825 7.90129C10.6825 7.90128 10.6825 7.90125 10.6825 7.90121C10.6825 7.90115 10.6825 7.90107 10.6825 7.90096C10.6825 7.90075 10.6825 7.90046 10.6825 7.90008C10.6825 7.89933 10.6826 7.89826 10.6826 7.89687C10.6827 7.89408 10.6829 7.89004 10.6831 7.88481C10.6835 7.87435 10.684 7.85917 10.6847 7.83992C10.686 7.80144 10.6878 7.74664 10.6898 7.68086C10.6938 7.54963 10.6985 7.3732 10.7011 7.19487C10.7037 7.01885 10.7044 6.83168 10.6998 6.68254C10.6976 6.6107 10.6937 6.53084 10.6854 6.46027C10.6817 6.42844 10.6742 6.37214 10.6576 6.31076C10.6498 6.28188 10.6325 6.22324 10.5978 6.15663C10.5756 6.11396 10.4798 5.93259 10.2537 5.83286L9.68872 7.1138C9.46661 7.01584 9.37462 6.83887 9.35598 6.80306C9.32487 6.7433 9.31094 6.69398 9.30626 6.67672C9.29593 6.63856 9.29392 6.61467 9.29491 6.62309C9.29607 6.63302 9.2986 6.66507 9.30048 6.72593C9.30409 6.84218 9.30376 7.00356 9.30125 7.17432C9.29878 7.34276 9.29434 7.51134 9.29049 7.63842C9.28856 7.7018 9.2868 7.75447 9.28552 7.79119C9.28488 7.80954 9.28437 7.82388 9.28401 7.83355C9.28383 7.83838 9.2837 7.84205 9.28361 7.84446C9.28356 7.84567 9.28353 7.84656 9.28351 7.84713C9.2835 7.84742 9.28349 7.84762 9.28348 7.84774C9.28348 7.84781 9.28348 7.84785 9.28348 7.84787C9.28348 7.84788 9.28348 7.84788 9.28348 7.84788C9.28348 7.84788 9.28348 7.84786 9.98297 7.8746ZM10.2601 5.83574L9.31817 5.40887L8.7403 6.68405L9.68227 7.11092L10.2601 5.83574ZM9.31675 5.40823C9.09614 5.30885 8.90144 5.35437 8.8464 5.3685C8.77024 5.38805 8.71274 5.4161 8.68455 5.43073C8.62514 5.46154 8.57689 5.49603 8.55055 5.51549C8.49203 5.55874 8.43058 5.6115 8.37723 5.65906C8.26617 5.75808 8.13207 5.88699 8.00791 6.00911C7.88198 6.13297 7.75895 6.25705 7.66787 6.34968C7.6222 6.39613 7.58428 6.43496 7.55768 6.46227C7.54438 6.47593 7.53389 6.48673 7.52667 6.49418C7.52306 6.4979 7.52026 6.50078 7.51834 6.50277C7.51737 6.50377 7.51663 6.50454 7.51611 6.50507C7.51585 6.50534 7.51565 6.50555 7.5155 6.50571C7.51542 6.50578 7.51537 6.50584 7.51532 6.50589C7.5153 6.50591 7.51527 6.50594 7.51526 6.50595C7.51524 6.50597 7.51523 6.50598 8.0185 6.99252C8.52177 7.47906 8.52176 7.47907 8.52175 7.47908C8.52175 7.47907 8.52175 7.47908 8.52176 7.47907C8.52177 7.47906 8.5218 7.47903 8.52184 7.47899C8.52192 7.4789 8.52206 7.47876 8.52225 7.47856C8.52264 7.47816 8.52325 7.47753 8.52408 7.47668C8.52573 7.47497 8.52824 7.47238 8.53156 7.46896C8.53819 7.46212 8.54805 7.45197 8.56068 7.439C8.58596 7.41304 8.62229 7.37584 8.66614 7.33124C8.75412 7.24177 8.87122 7.12368 8.9896 7.00725C9.10975 6.88908 9.22416 6.7796 9.30889 6.70405C9.32947 6.6857 9.34657 6.67091 9.36024 6.65947C9.36699 6.65382 9.37235 6.64946 9.37641 6.64623C9.37841 6.64464 9.37994 6.64344 9.38104 6.6426C9.38214 6.64175 9.38265 6.64138 9.38261 6.64141C9.38258 6.64143 9.38176 6.64203 9.38021 6.64312C9.37869 6.64419 9.37606 6.64601 9.37242 6.64839C9.36642 6.65232 9.35128 6.66202 9.32915 6.6735C9.31155 6.68263 9.26315 6.70691 9.19449 6.72454C9.14695 6.73674 8.95814 6.78218 8.74172 6.68469L9.31675 5.40823ZM8.04639 6.29308L7.42746 6.2684L7.37168 7.66729L7.99061 7.69197L8.04639 6.29308ZM7.39957 6.96784C7.91493 6.49414 7.91492 6.49412 7.9149 6.4941C7.91489 6.49409 7.91487 6.49407 7.91485 6.49405C7.91481 6.494 7.91475 6.49394 7.91468 6.49386C7.91454 6.49371 7.91434 6.49349 7.91408 6.49321C7.91357 6.49266 7.91284 6.49186 7.91189 6.49083C7.90999 6.48876 7.90722 6.48576 7.90364 6.48188C7.89648 6.47411 7.88608 6.46284 7.87287 6.44856C7.84646 6.42002 7.80879 6.37941 7.76344 6.33081C7.67296 6.23386 7.55088 6.10402 7.42611 5.97428C7.30289 5.84616 7.17084 5.71165 7.06233 5.60832C7.01001 5.55849 6.95138 5.50459 6.89665 5.46048C6.87201 5.44061 6.82799 5.4062 6.77435 5.37445C6.74933 5.35964 6.69651 5.32982 6.62577 5.30626C6.58429 5.29243 6.38113 5.22424 6.14193 5.31744L6.6502 6.62192C6.52312 6.67143 6.41046 6.67263 6.34135 6.66685C6.271 6.66096 6.21604 6.6454 6.18326 6.63448C6.1198 6.61334 6.07586 6.58787 6.0612 6.57919C6.02829 6.55971 6.01096 6.54474 6.01809 6.55049C6.0269 6.55759 6.05212 6.57955 6.09684 6.62214C6.18243 6.70365 6.29729 6.82023 6.41703 6.94473C6.53522 7.06762 6.65214 7.19195 6.73991 7.28601C6.78369 7.33291 6.81997 7.37202 6.84522 7.39932C6.85784 7.41296 6.8677 7.42364 6.87435 7.43085C6.87767 7.43445 6.88019 7.43719 6.88185 7.43899C6.88268 7.4399 6.88329 7.44057 6.88369 7.44099C6.88389 7.44121 6.88403 7.44136 6.88411 7.44146C6.88416 7.4415 6.88418 7.44153 6.8842 7.44155C6.88421 7.44156 6.88421 7.44156 6.88421 7.44156C6.88421 7.44156 6.8842 7.44155 7.39957 6.96784ZM6.15076 5.31407L5.19069 5.6733L5.68131 6.98452L6.64138 6.62529L6.15076 5.31407ZM5.20141 5.66939C4.95362 5.75753 4.84463 5.94807 4.81973 5.99246C4.78114 6.06126 4.76182 6.12232 4.7533 6.15139C4.73502 6.21375 4.72653 6.27093 4.72233 6.30231C4.71294 6.37255 4.70784 6.45201 4.70455 6.52302C4.69772 6.6707 4.69568 6.85641 4.69562 7.03103C4.69556 7.20799 4.69757 7.38323 4.69956 7.5136C4.70056 7.57895 4.70157 7.63341 4.70233 7.67166C4.70271 7.69079 4.70302 7.70588 4.70325 7.71627C4.70336 7.72147 4.70345 7.72549 4.70351 7.72826C4.70354 7.72964 4.70357 7.73071 4.70359 7.73146C4.70359 7.73183 4.7036 7.73212 4.7036 7.73233C4.70361 7.73243 4.70361 7.73252 4.70361 7.73258C4.70361 7.73261 4.70361 7.73265 4.70361 7.73266C4.70361 7.73269 4.70361 7.73271 5.40343 7.71647C6.10324 7.70023 6.10324 7.70024 6.10324 7.70025C6.10324 7.70024 6.10324 7.70024 6.10324 7.70023C6.10324 7.70021 6.10324 7.70017 6.10323 7.70011C6.10323 7.69999 6.10323 7.69979 6.10322 7.6995C6.10321 7.69894 6.10319 7.69805 6.10316 7.69685C6.10311 7.69445 6.10303 7.69081 6.10292 7.686C6.10271 7.67639 6.10241 7.66214 6.10205 7.64391C6.10133 7.60744 6.10036 7.5551 6.0994 7.49215C6.09746 7.36592 6.09557 7.19856 6.09562 7.03149C6.09568 6.86207 6.09776 6.70232 6.10306 6.58769C6.10584 6.52755 6.10881 6.49664 6.10998 6.48787C6.11106 6.47975 6.10848 6.50526 6.09679 6.54512C6.09157 6.56294 6.07572 6.61504 6.04077 6.67734C6.02266 6.70964 5.99053 6.76079 5.93913 6.81457C5.88786 6.86823 5.80022 6.94232 5.67059 6.98843L5.20141 5.66939ZM4.92268 7.20767L4.47477 7.63088L5.43626 8.64849L5.88418 8.22527L4.92268 7.20767ZM4.95552 8.13968C4.99353 7.44072 4.99351 7.44072 4.99348 7.44071C4.99347 7.44071 4.99344 7.44071 4.9934 7.44071C4.99334 7.44071 4.99326 7.4407 4.99315 7.4407C4.99294 7.44069 4.99265 7.44067 4.99228 7.44065C4.99153 7.44061 4.99045 7.44055 4.98906 7.44048C4.98627 7.44033 4.98222 7.44011 4.97697 7.43983C4.96649 7.43928 4.95127 7.43848 4.93196 7.4375C4.89337 7.43552 4.8384 7.43279 4.77241 7.42971C4.64077 7.42356 4.46382 7.41596 4.285 7.41032C4.10845 7.40476 3.92102 7.4008 3.77189 7.40272C3.70001 7.40365 3.62054 7.40607 3.55052 7.41283C3.51901 7.41588 3.46325 7.4221 3.40237 7.4371C3.37392 7.4441 3.31507 7.45991 3.2478 7.49288C3.20737 7.5127 3.01629 7.60632 2.91131 7.83895L4.18738 8.41483C4.13174 8.53813 4.05294 8.61757 3.99952 8.66204C3.94526 8.70721 3.89513 8.73472 3.8639 8.75003C3.80349 8.77963 3.75397 8.79234 3.73716 8.79648C3.69955 8.80574 3.67627 8.8072 3.68512 8.80635C3.69584 8.80531 3.72864 8.80339 3.78991 8.80261C3.90706 8.8011 4.06942 8.80422 4.2409 8.80963C4.41012 8.81496 4.57945 8.82222 4.70708 8.82818C4.77073 8.83115 4.82365 8.83379 4.86053 8.83567C4.87896 8.83661 4.89337 8.83737 4.90309 8.83788C4.90795 8.83814 4.91163 8.83834 4.91406 8.83847C4.91528 8.83853 4.91618 8.83858 4.91676 8.83861C4.91704 8.83863 4.91725 8.83864 4.91737 8.83864C4.91744 8.83865 4.91748 8.83865 4.9175 8.83865C4.91751 8.83865 4.91751 8.83865 4.91751 8.83865C4.91751 8.83865 4.9175 8.83865 4.95552 8.13968ZM2.90946 7.84308L2.49594 8.77543L3.77571 9.34305L4.18923 8.41069L2.90946 7.84308ZM2.4951 8.77734C2.39529 9.00419 2.44719 9.20301 2.46111 9.25361C2.48162 9.32821 2.51001 9.38439 2.52455 9.41158C2.55538 9.46925 2.5896 9.51635 2.60909 9.54232C2.6524 9.60001 2.70536 9.66114 2.75364 9.71484C2.85397 9.82643 2.98471 9.96168 3.10888 10.0873C3.23473 10.2147 3.3608 10.3392 3.45493 10.4315C3.50212 10.4777 3.54156 10.5161 3.5693 10.5431C3.58318 10.5565 3.59414 10.5672 3.60169 10.5745C3.60547 10.5781 3.6084 10.5809 3.61041 10.5829C3.61142 10.5839 3.6122 10.5846 3.61274 10.5851C3.61301 10.5854 3.61322 10.5856 3.61338 10.5857C3.61345 10.5858 3.61352 10.5859 3.61356 10.5859C3.61358 10.5859 3.61361 10.586 3.61362 10.586C3.61364 10.586 3.61366 10.586 4.09951 10.0821C4.58536 9.57816 4.58537 9.57816 4.58538 9.57817C4.58537 9.57816 4.58537 9.57817 4.58537 9.57816C4.58535 9.57815 4.58532 9.57812 4.58528 9.57807C4.58519 9.57799 4.58504 9.57785 4.58484 9.57765C4.58443 9.57725 4.58378 9.57663 4.58291 9.57579C4.58117 9.57411 4.57853 9.57156 4.57504 9.56818C4.56807 9.56144 4.55773 9.55143 4.54452 9.5386C4.51809 9.51294 4.48021 9.47606 4.4348 9.43156C4.34371 9.3423 4.22342 9.22346 4.10474 9.10334C3.98436 8.98152 3.87237 8.86517 3.79473 8.77881C3.75402 8.73353 3.73418 8.7091 3.72875 8.70186C3.72387 8.69536 3.73973 8.71514 3.7592 8.75156C3.76806 8.76813 3.79251 8.81521 3.81097 8.88232C3.82283 8.92544 3.87455 9.1184 3.77655 9.34114L2.4951 8.77734ZM3.39966 10.0677L3.38699 10.6819L4.78669 10.7108L4.79936 10.0965L3.39966 10.0677ZM4.08684 10.6963C3.61526 10.179 3.61525 10.179 3.61523 10.1791C3.61521 10.1791 3.61519 10.1791 3.61517 10.1791C3.61512 10.1792 3.61506 10.1792 3.61498 10.1793C3.61483 10.1794 3.61461 10.1796 3.61434 10.1799C3.61379 10.1804 3.613 10.1811 3.61197 10.182C3.60993 10.1839 3.60695 10.1866 3.60311 10.1901C3.59543 10.1971 3.58428 10.2074 3.57016 10.2203C3.54193 10.2462 3.50178 10.2832 3.45372 10.3277C3.35786 10.4164 3.22945 10.5362 3.10113 10.6587C2.97445 10.7797 2.84122 10.9096 2.73873 11.0166C2.68935 11.0682 2.63555 11.1264 2.59138 11.1811C2.57148 11.2058 2.53682 11.25 2.50484 11.3042C2.48985 11.3295 2.46002 11.3826 2.43655 11.4537C2.42209 11.4974 2.35683 11.6964 2.44658 11.9314L3.75448 11.432C3.80199 11.5564 3.80344 11.6666 3.79779 11.7354C3.79206 11.8052 3.77679 11.8598 3.76588 11.8928C3.7448 11.9567 3.71926 12.0009 3.71033 12.016C3.69047 12.0497 3.67502 12.0676 3.68042 12.0609C3.68684 12.0529 3.70801 12.0287 3.74995 11.9849C3.8301 11.9012 3.94497 11.7887 4.06792 11.6713C4.18923 11.5555 4.31198 11.441 4.40487 11.355C4.45119 11.3121 4.48981 11.2765 4.51676 11.2518C4.53023 11.2394 4.54077 11.2298 4.54788 11.2233C4.55143 11.22 4.55413 11.2176 4.55591 11.2159C4.5568 11.2151 4.55746 11.2145 4.55788 11.2141C4.55809 11.214 4.55824 11.2138 4.55833 11.2137C4.55838 11.2137 4.55841 11.2137 4.55842 11.2137C4.55843 11.2136 4.55843 11.2136 4.55843 11.2136C4.55843 11.2136 4.55842 11.2137 4.08684 10.6963ZM2.44874 11.937L2.82426 12.8958L4.12785 12.3853L3.75233 11.4264L2.44874 11.937ZM2.83165 12.914C2.92741 13.1397 3.10555 13.238 3.14581 13.2601C3.21046 13.2956 3.2676 13.314 3.29583 13.3224C3.35584 13.3404 3.41114 13.3493 3.44265 13.3539C3.51239 13.3641 3.59158 13.3703 3.66308 13.3747C3.81142 13.3837 3.99781 13.3887 4.17324 13.3914C4.35094 13.3943 4.5268 13.395 4.65762 13.3951C4.72319 13.3951 4.77783 13.395 4.81619 13.3948C4.83538 13.3947 4.85051 13.3946 4.86093 13.3946C4.86614 13.3946 4.87018 13.3945 4.87295 13.3945C4.87434 13.3945 4.87541 13.3945 4.87616 13.3945C4.87653 13.3945 4.87682 13.3945 4.87703 13.3945C4.87713 13.3945 4.87722 13.3945 4.87728 13.3945C4.87731 13.3945 4.87734 13.3945 4.87736 13.3945C4.87739 13.3945 4.87741 13.3945 4.87227 12.6945C4.86713 11.9945 4.86714 11.9945 4.86714 11.9945C4.86714 11.9945 4.86714 11.9945 4.86713 11.9945C4.86711 11.9945 4.86707 11.9945 4.86701 11.9945C4.86688 11.9945 4.86668 11.9945 4.86639 11.9945C4.86582 11.9945 4.86493 11.9945 4.86373 11.9945C4.86132 11.9946 4.85766 11.9946 4.85284 11.9946C4.84319 11.9947 4.82889 11.9947 4.81059 11.9948C4.77397 11.995 4.72144 11.9951 4.65824 11.9951C4.53151 11.995 4.3634 11.9943 4.19545 11.9916C4.02521 11.9889 3.86424 11.9844 3.74825 11.9773C3.68759 11.9736 3.65536 11.9701 3.64503 11.9686C3.63651 11.9674 3.65961 11.97 3.69658 11.981C3.7133 11.986 3.76121 12.0009 3.81908 12.0326C3.84902 12.049 3.89633 12.0779 3.94705 12.1236C3.9969 12.1686 4.06971 12.2476 4.12046 12.3672L2.83165 12.914ZM4.36422 13.1761L4.79223 13.6276L5.80832 12.6645L5.38031 12.213L4.36422 13.1761ZM5.30027 13.1461C4.60073 13.1207 4.60073 13.1207 4.60073 13.1207C4.60073 13.1208 4.60073 13.1208 4.60073 13.1208C4.60072 13.1209 4.60072 13.121 4.60072 13.1211C4.60071 13.1213 4.6007 13.1216 4.60068 13.122C4.60066 13.1227 4.60062 13.1238 4.60057 13.1252C4.60047 13.128 4.60033 13.132 4.60015 13.1372C4.59978 13.1477 4.59927 13.1629 4.59863 13.1821C4.59737 13.2206 4.59564 13.2754 4.59378 13.3412C4.59006 13.4724 4.58574 13.6488 4.58347 13.8272C4.58123 14.0032 4.58085 14.1903 4.58576 14.3395C4.58813 14.4113 4.59219 14.4911 4.60058 14.5617C4.60436 14.5935 4.61193 14.6497 4.62863 14.711C4.63649 14.7398 4.65384 14.7983 4.68853 14.8648C4.71071 14.9073 4.8065 15.0882 5.03226 15.1878L5.59723 13.9069C5.81898 14.0047 5.91098 14.1812 5.92958 14.2169C5.96069 14.2765 5.97467 14.3256 5.97937 14.3429C5.98974 14.3809 5.99178 14.4047 5.99078 14.3963C5.98959 14.3863 5.98701 14.3542 5.985 14.2934C5.98118 14.1771 5.98119 14.0157 5.98336 13.845C5.9855 13.6765 5.98961 13.5079 5.99322 13.3809C5.99501 13.3175 5.99667 13.2648 5.99788 13.2281C5.99848 13.2097 5.99897 13.1954 5.99931 13.1857C5.99947 13.1809 5.9996 13.1772 5.99969 13.1748C5.99973 13.1736 5.99976 13.1727 5.99978 13.1721C5.99979 13.1719 5.9998 13.1717 5.99981 13.1715C5.99981 13.1715 5.99981 13.1714 5.99981 13.1714C5.99981 13.1714 5.99981 13.1714 5.99981 13.1714C5.99981 13.1714 5.99981 13.1714 5.30027 13.1461ZM5.02684 15.1854L5.96881 15.6104L6.54462 14.3343L5.60266 13.9093L5.02684 15.1854ZM5.96261 15.6076C6.18694 15.7115 6.38613 15.6641 6.43987 15.6502C6.51612 15.6306 6.57362 15.6024 6.60146 15.588C6.6604 15.5574 6.70832 15.5231 6.73438 15.5039C6.79243 15.4611 6.85355 15.4088 6.90674 15.3616C7.01744 15.2633 7.15135 15.1353 7.27548 15.0139C7.40136 14.8908 7.5244 14.7674 7.61552 14.6753C7.6612 14.6292 7.69914 14.5906 7.72575 14.5634C7.73906 14.5498 7.74955 14.5391 7.75677 14.5317C7.76039 14.528 7.76318 14.5251 7.76511 14.5232C7.76607 14.5222 7.76681 14.5214 7.76733 14.5209C7.76759 14.5206 7.7678 14.5204 7.76795 14.5203C7.76802 14.5202 7.76808 14.5201 7.76812 14.5201C7.76814 14.5201 7.76817 14.52 7.76818 14.52C7.7682 14.52 7.76821 14.52 7.26655 14.0318C6.76489 13.5436 6.7649 13.5436 6.7649 13.5436C6.7649 13.5436 6.7649 13.5436 6.76489 13.5436C6.76488 13.5436 6.76485 13.5436 6.76481 13.5437C6.76473 13.5438 6.76459 13.5439 6.7644 13.5441C6.76401 13.5445 6.7634 13.5451 6.76257 13.546C6.76092 13.5477 6.7584 13.5503 6.75508 13.5537C6.74843 13.5605 6.73856 13.5706 6.72591 13.5835C6.70061 13.6093 6.66424 13.6463 6.62034 13.6907C6.53229 13.7796 6.41509 13.8971 6.29665 14.0129C6.17646 14.1304 6.06199 14.2394 5.97724 14.3147C5.95665 14.333 5.93953 14.3477 5.92582 14.3591C5.91905 14.3648 5.91366 14.3692 5.90957 14.3724C5.90756 14.374 5.906 14.3752 5.90489 14.3761C5.90376 14.3769 5.90323 14.3773 5.90324 14.3773C5.90324 14.3773 5.90403 14.3767 5.90554 14.3757C5.90702 14.3746 5.90961 14.3729 5.9132 14.3705C5.9191 14.3666 5.93413 14.357 5.95612 14.3456C5.97347 14.3366 6.02196 14.3122 6.09082 14.2944C6.13717 14.2825 6.33056 14.2352 6.55082 14.3372L5.96261 15.6076ZM7.24282 14.7314L7.86266 14.7524L7.91011 13.3532L7.29028 13.3322L7.24282 14.7314ZM7.88639 14.0528C7.37056 14.526 7.37058 14.526 7.3706 14.5261C7.37061 14.5261 7.37063 14.5261 7.37065 14.5261C7.37069 14.5262 7.37075 14.5262 7.37082 14.5263C7.37096 14.5265 7.37116 14.5267 7.37142 14.527C7.37193 14.5275 7.37266 14.5283 7.37361 14.5293C7.3755 14.5314 7.37827 14.5344 7.38184 14.5383C7.38898 14.5461 7.39937 14.5573 7.41256 14.5716C7.43892 14.6002 7.47652 14.6408 7.52181 14.6894C7.61215 14.7864 7.73407 14.9163 7.85872 15.0461C7.98184 15.1744 8.11381 15.3091 8.22238 15.4126C8.27477 15.4626 8.33334 15.5166 8.388 15.5608C8.41273 15.5808 8.45628 15.6149 8.5092 15.6465C8.53402 15.6613 8.58542 15.6905 8.65404 15.714C8.69456 15.7279 8.8886 15.7951 9.12157 15.7134L8.6582 14.3923C8.78242 14.3487 8.89085 14.35 8.95676 14.3567C9.02422 14.3635 9.07689 14.379 9.10851 14.3899C9.16976 14.4109 9.21219 14.4356 9.22656 14.4442C9.25857 14.4633 9.27528 14.4778 9.26812 14.472C9.259 14.4647 9.23357 14.4424 9.18883 14.3998C9.10313 14.318 8.9883 14.2012 8.86869 14.0766C8.75061 13.9536 8.63386 13.8292 8.54623 13.7352C8.50253 13.6882 8.46632 13.6491 8.44111 13.6218C8.42851 13.6082 8.41867 13.5975 8.41204 13.5903C8.40872 13.5867 8.40621 13.584 8.40455 13.5822C8.40372 13.5813 8.40311 13.5806 8.40272 13.5802C8.40252 13.5799 8.40238 13.5798 8.40229 13.5797C8.40225 13.5797 8.40222 13.5796 8.40221 13.5796C8.4022 13.5796 8.4022 13.5796 8.4022 13.5796C8.4022 13.5796 8.40221 13.5796 7.88639 14.0528ZM9.13581 15.7082L10.0932 15.349L9.60132 14.0382L8.64397 14.3974L9.13581 15.7082ZM10.0761 15.3551C10.3216 15.2702 10.4324 15.0844 10.4596 15.0372C10.4996 14.9678 10.5197 14.906 10.5287 14.8763C10.5478 14.8129 10.5567 14.7547 10.5611 14.723C10.5709 14.6519 10.5762 14.5717 10.5797 14.5005C10.5868 14.3522 10.589 14.1659 10.5892 13.991C10.5894 13.8137 10.5874 13.6381 10.5855 13.5075C10.5845 13.442 10.5835 13.3875 10.5827 13.3492C10.5823 13.33 10.582 13.3149 10.5818 13.3045C10.5817 13.2992 10.5816 13.2952 10.5815 13.2924C10.5815 13.2911 10.5815 13.29 10.5815 13.2892C10.5815 13.2889 10.5814 13.2886 10.5814 13.2884C10.5814 13.2882 10.5814 13.2882 10.5814 13.2881C10.5814 13.2881 10.5814 13.288 10.5814 13.288C10.5814 13.288 10.5814 13.288 9.88162 13.3042C9.18181 13.3204 9.18181 13.3204 9.18181 13.3204C9.18181 13.3204 9.18181 13.3204 9.18181 13.3204C9.18181 13.3204 9.18181 13.3205 9.18181 13.3205C9.18182 13.3206 9.18182 13.3208 9.18183 13.3211C9.18184 13.3217 9.18186 13.3226 9.18189 13.3238C9.18194 13.3262 9.18202 13.3298 9.18212 13.3346C9.18233 13.3442 9.18263 13.3585 9.18299 13.3767C9.18371 13.4132 9.18467 13.4656 9.18562 13.5286C9.18752 13.655 9.18937 13.8225 9.1892 13.9896C9.18903 14.1592 9.18679 14.3188 9.18129 14.4332C9.17839 14.4933 9.17535 14.5236 9.17425 14.5317C9.17317 14.5395 9.17598 14.513 9.18832 14.4721C9.19387 14.4537 9.21047 14.4008 9.24673 14.3379C9.27019 14.2972 9.37703 14.1155 9.61838 14.032L10.0761 15.3551ZM10.3607 13.8146L10.8077 13.395L9.84957 12.3742L9.40257 12.7938L10.3607 13.8146ZM10.3286 12.8846C10.2925 13.5837 10.2925 13.5837 10.2925 13.5837C10.2925 13.5837 10.2926 13.5837 10.2926 13.5837C10.2927 13.5837 10.2927 13.5837 10.2928 13.5837C10.293 13.5837 10.2933 13.5837 10.2937 13.5838C10.2945 13.5838 10.2955 13.5839 10.2969 13.5839C10.2997 13.5841 10.3038 13.5843 10.309 13.5845C10.3195 13.5851 10.3347 13.5858 10.354 13.5868C10.3926 13.5886 10.4476 13.5912 10.5136 13.5941C10.6453 13.5999 10.8222 13.6071 11.0011 13.6122C11.1777 13.6173 11.3652 13.6208 11.5144 13.6185C11.5864 13.6174 11.6658 13.6147 11.7358 13.6078C11.7673 13.6047 11.8228 13.5984 11.8833 13.5834C11.9117 13.5764 11.9698 13.5607 12.0363 13.5282C12.0762 13.5087 12.2642 13.4171 12.3702 13.1894L11.1012 12.5982C11.1575 12.4772 11.2357 12.3996 11.2883 12.3563C11.3418 12.3122 11.3912 12.2852 11.422 12.2702C11.4815 12.2411 11.5303 12.2285 11.5469 12.2244C11.5841 12.2152 11.607 12.2137 11.5981 12.2146C11.5871 12.2157 11.5541 12.2177 11.4928 12.2186C11.3755 12.2205 11.213 12.2178 11.0415 12.2128C10.8722 12.2079 10.7029 12.2011 10.5752 12.1955C10.5116 12.1927 10.4587 12.1902 10.4218 12.1884C10.4033 12.1875 10.3889 12.1868 10.3792 12.1863C10.3743 12.1861 10.3707 12.1859 10.3682 12.1857C10.367 12.1857 10.3661 12.1856 10.3655 12.1856C10.3652 12.1856 10.365 12.1856 10.3649 12.1856C10.3649 12.1856 10.3648 12.1856 10.3648 12.1856C10.3648 12.1856 10.3648 12.1856 10.3648 12.1856C10.3648 12.1856 10.3648 12.1856 10.3286 12.8846ZM12.3756 13.1776L12.7891 12.2452L11.5093 11.6776L11.0958 12.61L12.3756 13.1776ZM12.7969 12.227C12.8919 11.9953 12.8324 11.7957 12.8192 11.7516C12.7978 11.6801 12.7695 11.6264 12.7552 11.6006C12.7248 11.5455 12.6913 11.5002 12.6721 11.4749C12.6293 11.4187 12.5769 11.3587 12.5286 11.3053C12.4285 11.1946 12.298 11.06 12.1739 10.9346C12.0482 10.8075 11.9223 10.6832 11.8282 10.591C11.7811 10.5448 11.7417 10.5065 11.714 10.4796C11.7002 10.4661 11.6893 10.4555 11.6817 10.4482C11.678 10.4446 11.675 10.4417 11.673 10.4398C11.672 10.4388 11.6713 10.4381 11.6707 10.4376C11.6704 10.4373 11.6702 10.4371 11.6701 10.437C11.67 10.4369 11.6699 10.4368 11.6699 10.4368C11.6699 10.4368 11.6699 10.4367 11.6698 10.4367C11.6698 10.4367 11.6698 10.4367 11.1837 10.9404C10.6976 11.4441 10.6976 11.4441 10.6976 11.4441C10.6976 11.4441 10.6976 11.4441 10.6976 11.4441C10.6977 11.4441 10.6977 11.4442 10.6977 11.4442C10.6978 11.4443 10.698 11.4444 10.6982 11.4446C10.6986 11.445 10.6992 11.4456 10.7001 11.4465C10.7019 11.4482 10.7045 11.4507 10.708 11.4541C10.715 11.4609 10.7253 11.4709 10.7385 11.4837C10.765 11.5094 10.8029 11.5463 10.8483 11.5909C10.9394 11.6802 11.0598 11.7991 11.1787 11.9193C11.2992 12.0411 11.4118 12.1577 11.4903 12.2444C11.5313 12.2898 11.5521 12.315 11.5585 12.3234C11.5638 12.3304 11.549 12.3123 11.5302 12.2783C11.5217 12.263 11.4976 12.2182 11.4783 12.1541C11.4684 12.121 11.4547 12.0662 11.4508 11.9966C11.447 11.9281 11.4513 11.8185 11.5016 11.6958L12.7969 12.227ZM8.59226 10.9458C8.36843 11.4532 7.76454 11.6897 7.23366 11.4493L6.65604 12.7246C7.88265 13.2801 9.32915 12.744 9.87317 11.5108L8.59226 10.9458ZM7.23353 11.4492C6.70293 11.209 6.46632 10.5834 6.69322 10.0678L5.41181 9.50395C4.87085 10.7332 5.43766 12.173 6.65618 12.7246L7.23353 11.4492ZM6.69328 10.0677C6.91438 9.56499 7.51995 9.32779 8.04857 9.56708L8.62591 8.29167C7.40541 7.73918 5.95432 8.27041 5.41175 9.50408L6.69328 10.0677ZM8.04629 9.56605C8.58292 9.81128 8.81572 10.4377 8.59195 10.9465L9.87348 11.5101C10.4134 10.2825 9.84276 8.84774 8.62819 8.2927L8.04629 9.56605Z" fill="white"/>
<path d="M16.6541 11.6611C17.0507 11.0998 17.8833 11.0998 18.2799 11.6611V11.6611C18.4782 11.9419 18.8074 12.1004 19.1506 12.0805V12.0805C19.8367 12.0405 20.3559 12.6915 20.1643 13.3515V13.3515C20.0684 13.6816 20.1497 14.0379 20.3793 14.2937V14.2937C20.8383 14.8052 20.653 15.617 20.0175 15.8787V15.8787C19.6997 16.0096 19.4719 16.2952 19.415 16.6343V16.6343C19.3012 17.3121 18.5511 17.6733 17.9502 17.3396V17.3396C17.6497 17.1727 17.2843 17.1727 16.9838 17.3397V17.3397C16.3829 17.6733 15.6327 17.3121 15.519 16.6343V16.6343C15.4621 16.2952 15.2343 16.0096 14.9164 15.8787V15.8787C14.2809 15.617 14.0957 14.8052 14.5547 14.2937V14.2937C14.7843 14.0379 14.8656 13.6816 14.7697 13.3515V13.3515C14.5781 12.6915 15.0973 12.0405 15.7834 12.0805V12.0805C16.1266 12.1004 16.4558 11.9419 16.6541 11.6611V11.6611Z" stroke="white" stroke-linecap="round"/>
<ellipse cx="17.4671" cy="14.4627" rx="1.53008" ry="1.53005" stroke="white" stroke-linecap="round"/>
<path d="M17.4667 20.1902C16.1826 21.0391 14.6434 21.5334 12.9889 21.5334C10.1476 21.5334 7.6468 20.0759 6.19336 17.8677" stroke="white" stroke-width="1.4" stroke-linecap="round"/>
<path d="M5.54308 19.3581L5.58628 17.298L7.63761 17.4928" stroke="white" stroke-width="1.4" stroke-linecap="round" stroke-linejoin="round"/>
<path d="M9.48147 3.66875C10.9415 3.18104 12.5561 3.10195 14.1543 3.53019C16.8988 4.26556 18.9371 6.32071 19.7695 8.82983" stroke="white" stroke-width="1.4" stroke-linecap="round"/>
<path d="M20.7834 7.55842L20.2085 9.53715L18.2775 8.81807" stroke="white" stroke-width="1.4" stroke-linecap="round" stroke-linejoin="round"/>
</g>
<defs>
<clipPath id="clip0_2308_9715">
<rect width="24" height="24" fill="white"/>
</clipPath>
</defs>
</svg>
