<svg width="32" height="32" viewBox="0 0 32 32" fill="none" xmlns="http://www.w3.org/2000/svg">
<g clip-path="url(#clip0_2308_11302)">
<path d="M26.3458 20.9512C27.1427 19.4382 27.5937 17.7146 27.5937 15.8857C27.5937 9.8737 22.72 5 16.708 5C15.4038 5 14.1531 5.22936 12.9942 5.64993M21.4935 25.6658C20.0492 26.3739 18.425 26.7714 16.708 26.7714C10.696 26.7714 5.82227 21.8977 5.82227 15.8857C5.82227 13.9098 6.34873 12.0568 7.26905 10.4594" stroke="white" stroke-width="1.5" stroke-linecap="round" stroke-linejoin="round"/>
<path d="M27.9643 21.3664L25.4111 21.7816L25.185 19.2047" stroke="white" stroke-width="1.5" stroke-linecap="round" stroke-linejoin="round"/>
<path d="M5.04496 11.1153L7.27927 9.81179L8.41469 12.136" stroke="white" stroke-width="1.5" stroke-linecap="round" stroke-linejoin="round"/>
<path fill-rule="evenodd" clip-rule="evenodd" d="M21.3933 16.4426L21.4097 15.6404C21.4097 15.6404 22.723 14.4466 22.6913 14.3635L22.205 13.1199C22.1686 13.0344 20.3912 13.0463 20.3912 13.0463L19.8344 12.4625C19.8344 12.4625 19.9025 10.6801 19.8191 10.6433L18.5962 10.0891C18.5093 10.05 17.2841 11.3173 17.2841 11.3173L16.4806 11.2853C16.4806 11.2853 15.26 9.95742 15.1778 9.98946L13.9314 10.4558C13.848 10.4855 13.8892 12.2572 13.8892 12.2572L13.3077 12.8066C13.3077 12.8066 11.5186 12.7093 11.4822 12.79L10.9453 14.0004C10.9077 14.0858 12.1964 15.3283 12.1964 15.3283L12.1799 16.1257C12.1799 16.1257 10.8678 17.3219 10.8995 17.4049L11.387 18.6497C11.4222 18.7328 13.1996 18.7198 13.1996 18.7198L13.7552 19.306C13.7552 19.306 13.6906 21.0883 13.774 21.1251L14.9969 21.6769C15.0815 21.7161 16.3079 20.4559 16.3079 20.4559L17.1126 20.4831C17.1126 20.4831 18.3308 21.811 18.4153 21.7814L19.6582 21.315C19.7439 21.2853 19.7028 19.5113 19.7028 19.5113L20.2831 18.9666C20.2831 18.9666 22.0722 19.0591 22.1098 18.9785L22.6467 17.7681C22.6807 17.685 21.3933 16.4426 21.3933 16.4426Z" stroke="white" stroke-linecap="round" stroke-linejoin="round"/>
<path fill-rule="evenodd" clip-rule="evenodd" d="M18.9623 16.8639C18.4391 18.0498 17.0421 18.5763 15.8446 18.0339C14.6529 17.4944 14.1055 16.0872 14.6286 14.8983C15.149 13.7152 16.5503 13.1917 17.742 13.7311C18.9352 14.2764 19.4826 15.6808 18.9623 16.8639Z" stroke="white" stroke-linecap="round" stroke-linejoin="round"/>
</g>
<defs>
<clipPath id="clip0_2308_11302">
<rect width="32" height="32" fill="white" transform="translate(0.00244141)"/>
</clipPath>
</defs>
</svg>
