<svg width="32" height="32" viewBox="0 0 32 32" fill="none" xmlns="http://www.w3.org/2000/svg">
<g clip-path="url(#clip0_2308_11376)">
<path d="M25.8324 15.0707H5.97716C5.64487 15.0707 5.37549 15.3401 5.37549 15.6724V26.5025C5.37549 26.8348 5.64487 27.1042 5.97716 27.1042H25.8324C26.1647 27.1042 26.4341 26.8348 26.4341 26.5025V15.6724C26.4341 15.3401 26.1647 15.0707 25.8324 15.0707Z" stroke="white" stroke-width="1.5"/>
<path d="M17.3453 20.0698H14.4645C14.1322 20.0698 13.8628 20.3392 13.8628 20.6715V26.5026C13.8628 26.8349 14.1322 27.1042 14.4645 27.1042H17.3453C17.6776 27.1042 17.947 26.8349 17.947 26.5026V20.6715C17.947 20.3392 17.6776 20.0698 17.3453 20.0698Z" stroke="white" stroke-width="1.5"/>
<path d="M5.93365 5.85434C5.99468 5.57887 6.23893 5.38281 6.52108 5.38281H25.2885C25.5706 5.38281 25.8149 5.57887 25.8759 5.85434L27.7427 14.2802C27.8259 14.6558 27.54 15.012 27.1552 15.012H4.65435C4.26959 15.012 3.98369 14.6558 4.06692 14.2802L5.93365 5.85434Z" stroke="white" stroke-width="1.5"/>
<path d="M12.4939 5.9391C12.5176 5.62531 12.7792 5.38281 13.0939 5.38281H18.7155C19.0302 5.38281 19.2917 5.62531 19.3154 5.9391L19.9528 14.3649C19.9792 14.7141 19.703 15.012 19.3528 15.012H12.4565C12.1063 15.012 11.8301 14.7141 11.8566 14.3649L12.4939 5.9391Z" stroke="white" stroke-width="1.5"/>
</g>
<defs>
<clipPath id="clip0_2308_11376">
<rect width="32" height="32" fill="white"/>
</clipPath>
</defs>
</svg>
