<svg width="33" height="32" viewBox="0 0 33 32" fill="none" xmlns="http://www.w3.org/2000/svg">
<g clip-path="url(#clip0_2308_11329)">
<path fill-rule="evenodd" clip-rule="evenodd" d="M20.6957 23.68C20.2264 23.9025 19.6737 23.6896 19.2521 23.3862C18.9271 23.1524 18.5352 23.0154 18.1219 23.0033L15.8143 22.9393C15.449 22.9287 15.0906 22.836 14.7658 22.6676L14.531 22.5457C13.3288 21.9168 11.7649 21.9183 10.564 22.5496C10.5639 24.077 10.564 26.0922 10.564 27.3208L11.2216 26.9676C11.4795 26.8285 11.7812 26.7953 12.0631 26.8752L15.9884 27.9805C15.9951 27.9825 16.0019 27.9841 16.0089 27.9856C16.2928 28.0452 16.5821 28.0752 16.8721 28.0751C17.4858 28.0754 18.0923 27.9427 18.6499 27.6856C18.6636 27.6792 18.6769 27.6719 18.6895 27.6638L24.3808 23.9697C24.5226 23.8778 24.5684 23.691 24.4853 23.5434C24.0628 22.7911 23.1258 22.5047 22.3571 22.8926L20.6957 23.68Z" stroke="white" stroke-width="1.5" stroke-linecap="round" stroke-linejoin="round"/>
<rect x="8" y="22.1415" width="2.56394" height="5.86296" rx="0.975456" stroke="white" stroke-width="1.5" stroke-linecap="round" stroke-linejoin="round"/>
<path d="M18.1224 23.0009C18.1224 23.0009 19.3109 23.0917 19.7623 24.1944C19.9665 24.693 19.4961 25.1488 18.9574 25.1488C17.0219 25.1488 15.8379 25.1488 15.8379 25.1488" stroke="white" stroke-width="1.5" stroke-linecap="round" stroke-linejoin="round"/>
<path fill-rule="evenodd" clip-rule="evenodd" d="M22.7409 12.8745L22.7635 11.7714C22.7635 11.7714 24.5694 10.1298 24.5258 10.0156L23.8571 8.30545C23.807 8.18796 21.363 8.20428 21.363 8.20428L20.5973 7.40143C20.5973 7.40143 20.691 4.95049 20.5763 4.8999L18.8947 4.13786C18.7751 4.08401 17.0903 5.82676 17.0903 5.82676L15.9854 5.7827C15.9854 5.7827 14.3071 3.95673 14.194 4.00078L12.4801 4.64208C12.3654 4.68287 12.4219 7.11914 12.4219 7.11914L11.6223 7.87465C11.6223 7.87465 9.16213 7.74085 9.11206 7.85181L8.37384 9.51623C8.32214 9.63372 10.0942 11.3422 10.0942 11.3422L10.0716 12.4388C10.0716 12.4388 8.26722 14.0836 8.31084 14.1978L8.98121 15.9096C9.02967 16.0238 11.4737 16.0059 11.4737 16.0059L12.2378 16.812C12.2378 16.812 12.1489 19.2629 12.2636 19.3135L13.9452 20.0723C14.0615 20.1261 15.748 18.3932 15.748 18.3932L16.8545 18.4307C16.8545 18.4307 18.5296 20.2567 18.6459 20.2159L20.355 19.5746C20.4729 19.5338 20.4164 17.0943 20.4164 17.0943L21.2143 16.3453C21.2143 16.3453 23.6745 16.4726 23.7262 16.3616L24.4644 14.6972C24.5113 14.5829 22.7409 12.8745 22.7409 12.8745Z" stroke="white" stroke-width="1.5" stroke-linecap="round" stroke-linejoin="round"/>
<path fill-rule="evenodd" clip-rule="evenodd" d="M20.4359 13.9237C19.4662 16.1218 16.8769 17.0976 14.6575 16.0924C12.4487 15.0925 11.4341 12.4842 12.4037 10.2807C13.3681 8.08791 15.9654 7.11751 18.1742 8.1174C20.3857 9.12801 21.4003 11.7309 20.4359 13.9237Z" stroke="white" stroke-linecap="round" stroke-linejoin="round"/>
<path d="M17.3551 11.1362V11.0904C17.3551 10.5301 16.9009 10.0758 16.3405 10.0758H16.2071C15.7205 10.0758 15.3259 10.4703 15.3259 10.957V10.957C15.3259 11.2516 15.4732 11.5268 15.7183 11.6902L16.9627 12.5198C17.2079 12.6832 17.3551 12.9584 17.3551 13.253V13.253C17.3551 13.7397 16.9606 14.1342 16.4739 14.1342H16.3405C15.7802 14.1342 15.3259 13.6799 15.3259 13.1196V13.0738" stroke="white" stroke-linecap="round" stroke-linejoin="round"/>
<path d="M16.3408 14.1352L16.3408 14.918" stroke="white" stroke-linecap="round" stroke-linejoin="round"/>
<path d="M16.3408 9.29306L16.3408 10.0758" stroke="white" stroke-linecap="round" stroke-linejoin="round"/>
</g>
<defs>
<clipPath id="clip0_2308_11329">
<rect width="32" height="32" fill="white" transform="translate(0.0185547)"/>
</clipPath>
</defs>
</svg>
