<svg width="32" height="32" viewBox="0 0 32 32" fill="none" xmlns="http://www.w3.org/2000/svg">
<g clip-path="url(#clip0_2308_11311)">
<path d="M8.90211 6.24683H6C4.89543 6.24683 4 7.14226 4 8.24683V20.5872C4 21.6918 4.89543 22.5872 6 22.5872H25.9659C27.0704 22.5872 27.9659 21.6918 27.9659 20.5872V8.24683C27.9659 7.14226 27.0704 6.24683 25.9659 6.24683H23.0638" stroke="white" stroke-width="1.5" stroke-linecap="round" stroke-linejoin="round"/>
<path d="M21.2983 26.1523H10.667L12.1989 22.95C12.2908 22.7366 12.5819 22.5872 12.9188 22.5872H19.0465C19.3835 22.5872 19.6745 22.7366 19.7664 22.95L21.2983 26.1523Z" stroke="white" stroke-width="1.5" stroke-linecap="round" stroke-linejoin="round"/>
<path d="M6.28027 9.81979L16.0271 5L25.6854 9.81979L16.0271 14.7025L6.28027 9.81979Z" stroke="white" stroke-width="1.5" stroke-linecap="round" stroke-linejoin="round"/>
<path d="M10.7437 12.2809V16.3533L11.4824 16.7259C14.3264 18.1605 17.6837 18.1543 20.5225 16.7093L21.2218 16.3533V12.3026" stroke="white" stroke-width="1.5" stroke-linecap="round" stroke-linejoin="round"/>
<path d="M24.8291 10.1021V15.7033L24.2549 16.791H25.4357L25.1311 16.1811" stroke="white" stroke-width="1.5" stroke-linecap="round" stroke-linejoin="round"/>
</g>
<defs>
<clipPath id="clip0_2308_11311">
<rect width="32" height="32" fill="white" transform="translate(0.0078125)"/>
</clipPath>
</defs>
</svg>
