<svg width="32" height="32" viewBox="0 0 32 32" fill="none" xmlns="http://www.w3.org/2000/svg">
<g clip-path="url(#clip0_2308_11385)">
<path fill-rule="evenodd" clip-rule="evenodd" d="M10.8241 22.4531C11.3811 22.7171 12.0366 22.4672 12.5274 22.0943C12.9466 21.7759 13.4603 21.5887 14.0034 21.5728L16.9078 21.4923C17.3677 21.4789 17.8187 21.3623 18.2276 21.1504L18.5231 20.9969C20.0362 20.2053 22.0046 20.2073 23.5161 21.0018C23.5162 22.9242 23.516 25.4606 23.5161 27.0068L22.6884 26.5623C22.3638 26.3872 21.984 26.3455 21.6293 26.4461L16.6888 27.8372C16.6804 27.8397 16.6717 27.8417 16.6629 27.8437C16.3056 27.9186 15.9415 27.9564 15.5765 27.9562C14.8041 27.9566 14.0407 27.7896 13.3389 27.4661C13.3216 27.458 13.3049 27.4488 13.2891 27.4385L6.12583 22.7892C5.94738 22.6735 5.88973 22.4384 5.99425 22.2526C6.52606 21.3058 7.70539 20.9453 8.67293 21.4335L10.8241 22.4531Z" stroke="white" stroke-width="1.5" stroke-linecap="round" stroke-linejoin="round"/>
<rect width="3.22706" height="7.37919" rx="1.15768" transform="matrix(-1 0 0 1 26.7432 20.4924)" stroke="white" stroke-width="1.5" stroke-linecap="round" stroke-linejoin="round"/>
<path d="M14.0035 21.5726C14.0035 21.5726 12.4616 21.6905 11.914 23.1395C11.688 23.7376 12.2427 24.2761 12.882 24.2761C15.3599 24.2761 16.8789 24.2761 16.8789 24.2761" stroke="white" stroke-width="1.5" stroke-linecap="round" stroke-linejoin="round"/>
<path fill-rule="evenodd" clip-rule="evenodd" d="M19.6704 12.2223L19.6914 11.1949C19.6914 11.1949 21.3735 9.66603 21.3328 9.55965L20.71 7.96693C20.6633 7.8575 18.387 7.8727 18.387 7.8727L17.6739 7.12497C17.6739 7.12497 17.7612 4.84227 17.6543 4.79516L16.0882 4.08542C15.9768 4.03527 14.4076 5.65839 14.4076 5.65839L13.3786 5.61735C13.3786 5.61735 11.8154 3.91673 11.7101 3.95776L10.1138 4.55503C10.007 4.59303 10.0596 6.86205 10.0596 6.86205L9.31492 7.5657C9.31492 7.5657 7.02357 7.44108 6.97694 7.54443L6.28938 9.0946C6.24124 9.20402 7.89167 10.7952 7.89167 10.7952L7.87061 11.8165C7.87061 11.8165 6.19008 13.3484 6.23071 13.4548L6.85507 15.0491C6.90021 15.1555 9.17651 15.1387 9.17651 15.1387L9.88814 15.8895C9.88814 15.8895 9.80539 18.1722 9.91221 18.2193L11.4784 18.926C11.5867 18.9762 13.1574 17.3622 13.1574 17.3622L14.188 17.3971C14.188 17.3971 15.7481 19.0977 15.8565 19.0598L17.4482 18.4625C17.5581 18.4245 17.5054 16.1524 17.5054 16.1524L18.2486 15.4549C18.2486 15.4549 20.54 15.5734 20.5881 15.47L21.2757 13.9199C21.3193 13.8135 19.6704 12.2223 19.6704 12.2223Z" stroke="white" stroke-width="1.5" stroke-linecap="round" stroke-linejoin="round"/>
<path fill-rule="evenodd" clip-rule="evenodd" d="M16.4263 12.7023C15.7879 14.1494 14.0834 14.7917 12.6223 14.13C11.1682 13.4717 10.5003 11.7547 11.1386 10.3042C11.7735 8.86065 13.4833 8.22184 14.9374 8.88006C16.3932 9.54534 17.0611 11.2588 16.4263 12.7023Z" stroke="white" stroke-width="1.5" stroke-linecap="round" stroke-linejoin="round"/>
</g>
<defs>
<clipPath id="clip0_2308_11385">
<rect width="32" height="32" fill="white"/>
</clipPath>
</defs>
</svg>
