<svg width="32" height="32" viewBox="0 0 32 32" fill="none" xmlns="http://www.w3.org/2000/svg">
<g clip-path="url(#clip0_2308_11339)">
<path fill-rule="evenodd" clip-rule="evenodd" d="M22.234 21.8001C21.7647 22.0226 21.2127 21.8227 20.8434 21.4575C20.2914 20.9115 19.5466 20.5835 18.7497 20.5603L15.2319 20.4628C14.6749 20.4466 14.1287 20.3053 13.6335 20.0486L13.2755 19.8627C11.4429 18.9039 9.05876 18.9063 7.22803 19.8687C7.22791 22.1971 7.22814 25.2692 7.22803 27.142L8.23056 26.6036C8.62364 26.3915 9.0837 26.341 9.51336 26.4628L15.4972 28.1477C15.5074 28.1508 15.5179 28.1532 15.5286 28.1556C15.9613 28.2464 16.4024 28.2922 16.8444 28.2919C17.7799 28.2924 18.7046 28.0901 19.5546 27.6983C19.5755 27.6885 19.5957 27.6773 19.6149 27.6649L28.291 22.0336C28.5071 21.8934 28.5769 21.6087 28.4503 21.3837C27.8062 20.2369 26.3778 19.8003 25.2059 20.3915L22.234 21.8001Z" stroke="white" stroke-width="1.5" stroke-linecap="round" stroke-linejoin="round"/>
<rect x="3.31934" y="19.2471" width="3.90859" height="8.93775" rx="0.975456" stroke="white" stroke-width="1.5" stroke-linecap="round" stroke-linejoin="round"/>
<path d="M18.7507 20.557C18.7507 20.557 20.8992 20.7213 21.4056 22.8628C21.5296 23.3871 21.0743 23.8315 20.5356 23.8315C17.2831 23.8315 15.2681 23.8315 15.2681 23.8315" stroke="white" stroke-width="1.5" stroke-linecap="round" stroke-linejoin="round"/>
<path d="M16.8457 17.4C16.4537 17.7967 15.8128 17.7961 15.4216 17.3984L8.5878 10.4524C7.09863 8.97243 6.83389 6.65156 7.89285 4.96976C8.62089 3.82614 9.77913 3.08615 11.0697 2.9516C11.2352 2.91797 11.3676 2.91797 11.533 2.91797C12.6582 2.91797 13.7502 3.35524 14.5775 4.19613L15.7027 5.33975C15.9343 5.57521 16.3645 5.57521 16.5962 5.33975L17.622 4.29704C19.0781 2.78343 21.3615 2.51434 23.0161 3.59069C24.1413 4.33068 24.8693 5.50793 25.0017 6.81974C25.134 8.13154 24.7038 9.44334 23.7773 10.3851L16.8457 17.4Z" stroke="white" stroke-width="1.5" stroke-linecap="round" stroke-linejoin="round"/>
<path d="M13.6382 10.5197H18.6382" stroke="white" stroke-width="1.5" stroke-linecap="round" stroke-linejoin="round"/>
<path d="M16.1392 8.01953L16.1392 13.0195" stroke="white" stroke-width="1.5" stroke-linecap="round" stroke-linejoin="round"/>
</g>
<defs>
<clipPath id="clip0_2308_11339">
<rect width="32" height="32" fill="white" transform="translate(0.00244141)"/>
</clipPath>
</defs>
</svg>
