<svg width="33" height="32" viewBox="0 0 33 32" fill="none" xmlns="http://www.w3.org/2000/svg">
<g clip-path="url(#clip0_2308_11357)">
<path d="M7.87246 25.6034L12.9784 21.0997C13.1105 20.9832 13.2935 20.9456 13.4628 20.9942C15.0997 21.4637 17.3614 21.6336 18.5907 20.5211C19.9942 19.2515 20.5344 17.4025 20.0368 15.5756C19.9987 15.4358 19.8629 15.291 19.7293 15.1765C19.561 15.0324 19.3157 15.0575 19.1514 15.2061L16.4938 17.6105C16.3418 17.748 16.1212 17.7788 15.9373 17.6883L15.1125 17.2819C14.9982 17.2256 14.9097 17.1277 14.8651 17.0084L14.543 16.1466C14.4712 15.9546 14.5239 15.7382 14.6759 15.6007L17.3338 13.1961C17.498 13.0476 17.5476 12.8063 17.4212 12.6246C17.3207 12.4801 17.1901 12.3304 17.0547 12.2787C15.2863 11.6011 13.3934 11.9539 11.9898 13.2238C10.7625 14.3344 10.7039 16.5957 11.0059 18.2708C11.0379 18.4485 10.9784 18.6312 10.843 18.7506L5.74328 23.2488" stroke="white" stroke-width="1.5" stroke-linecap="round"/>
<path d="M7.61688 18.4301L6.41739 18.1916C5.38112 17.9855 4.63472 17.0761 4.63472 16.0195L4.63472 15.9639C4.63472 14.9397 5.35825 14.0581 6.36278 13.8584L6.79206 13.773C7.30028 13.6719 7.70255 13.298 7.89887 12.8185V12.8185C8.09688 12.3348 8.07984 11.7775 7.7894 11.343L7.5581 10.997C7.00026 10.1625 7.10973 9.05005 7.81955 8.34025L7.95551 8.20429C8.66535 7.49447 9.77777 7.385 10.6123 7.94284L10.9584 8.17416C11.3929 8.46457 11.9502 8.48162 12.4338 8.28362V8.28362C12.9134 8.08729 13.2873 7.68499 13.3884 7.17673L13.4738 6.74751C13.6735 5.74302 14.555 5.01953 15.5792 5.01953L15.6907 5.01953C16.7149 5.01953 17.5964 5.74303 17.7962 6.74754L17.8816 7.17676C17.9826 7.68501 18.3565 8.08729 18.8361 8.28361V8.28361C19.3198 8.48161 19.8771 8.46457 20.3116 8.17414L20.6576 7.94284C21.4922 7.385 22.6046 7.49447 23.3145 8.20429L23.4504 8.34025C24.1602 9.05005 24.2697 10.1625 23.7119 10.997L23.4806 11.3431C23.1901 11.7776 23.1731 12.3348 23.3711 12.8185V12.8185C23.5674 13.298 23.9697 13.6719 24.4779 13.773L24.9072 13.8584C25.9117 14.0581 26.6353 14.9396 26.6353 15.9638L26.6353 16.0752C26.6353 17.0994 25.9117 17.9809 24.9072 18.1807L24.4779 18.2661C23.9697 18.3671 23.5674 18.741 23.3711 19.2206V19.2206C23.1731 19.7042 23.1901 20.2615 23.4806 20.696L23.7119 21.0421C24.2697 21.8766 24.1602 22.989 23.4504 23.6988L23.3145 23.8348C22.6046 24.5446 21.4922 24.6541 20.6576 24.0962L20.3116 23.8649C19.8771 23.5745 19.3198 23.5574 18.8362 23.7554V23.7554C18.3566 23.9518 17.9826 24.3541 17.8816 24.8623L17.7962 25.2916C17.5965 26.296 16.715 27.0195 15.6908 27.0195L15.635 27.0195C14.5784 27.0195 13.669 26.2731 13.4629 25.2369L13.2244 24.0374" stroke="white" stroke-width="1.5" stroke-linecap="round"/>
</g>
<defs>
<clipPath id="clip0_2308_11357">
<rect width="32" height="32" fill="white" transform="translate(0.0131836)"/>
</clipPath>
</defs>
</svg>
