<svg width="163" height="43" viewBox="0 0 163 43" fill="none" xmlns="http://www.w3.org/2000/svg">
<path fill-rule="evenodd" clip-rule="evenodd" d="M21.9674 39.5243C22.5614 39.5243 23.1484 39.4971 23.7273 39.444C22.6068 39.6573 21.4504 39.7688 20.2678 39.7688C10.1078 39.7688 1.87155 31.5326 1.87155 21.3726C1.87155 11.2126 10.1078 2.97635 20.2678 2.97635C22.3265 2.97635 24.3062 3.31451 26.1544 3.93833C24.8108 3.63581 23.4095 3.47573 21.9674 3.47573C11.6839 3.47573 3.47573 11.6156 3.47573 21.5C3.47573 31.3844 11.6839 39.5243 21.9674 39.5243ZM21.9674 43C34.0996 43 43.9348 33.3741 43.9348 21.5C43.9348 9.62588 34.0996 0 21.9674 0C12.1329 0 3.8078 6.32501 1.00714 15.0454C3.66481 6.95031 11.2837 1.10481 20.2678 1.10481C31.4614 1.10481 40.5356 10.179 40.5356 21.3726C40.5356 32.5662 31.4614 41.6404 20.2678 41.6404C9.09524 41.6404 0.0341247 32.6003 9.61583e-05 21.4357L0 21.5C0 33.3741 9.83514 43 21.9674 43ZM22.4494 9.4478C22.4494 10.0611 21.9523 10.5583 21.339 10.5583C20.7257 10.5583 20.2285 10.0611 20.2285 9.4478C20.2285 8.83451 20.7257 8.33734 21.339 8.33734C21.9523 8.33734 22.4494 8.83451 22.4494 9.4478ZM22.7836 9.4478C22.7836 10.1415 22.2947 10.721 21.6427 10.8605V13.4395C23.4683 13.5907 24.9218 15.0534 25.0586 16.8831H32.7791C32.9155 16.21 33.5105 15.7033 34.2239 15.7033C35.0381 15.7033 35.6981 16.3633 35.6981 17.1774C35.6981 17.9916 35.0381 18.6516 34.2239 18.6516C33.5127 18.6516 32.9192 18.148 32.7804 17.478H25.0562C24.9061 19.2938 23.4585 20.7416 21.6427 20.892V33.5998C22.2947 33.7393 22.7836 34.3188 22.7836 35.0125C22.7836 35.8104 22.1368 36.4572 21.339 36.4572C20.5411 36.4572 19.8943 35.8104 19.8943 35.0125C19.8943 34.3144 20.3895 33.7319 21.0478 33.5972L21.0478 20.8944C19.2177 20.7578 17.7547 19.304 17.6037 17.478H9.63209C9.49329 18.148 8.89974 18.6516 8.18858 18.6516C7.37441 18.6516 6.7144 17.9916 6.7144 17.1774C6.7144 16.3633 7.37441 15.7033 8.18858 15.7033C8.90196 15.7033 9.497 16.21 9.63338 16.8831H17.6013C17.7388 15.0432 19.2078 13.5744 21.0478 13.4371V10.8631C20.3895 10.7284 19.8943 10.1459 19.8943 9.4478C19.8943 8.64993 20.5411 8.00313 21.339 8.00313C22.1368 8.00313 22.7836 8.64993 22.7836 9.4478ZM21.339 36.123C21.9523 36.123 22.4494 35.6258 22.4494 35.0125C22.4494 34.3992 21.9523 33.9021 21.339 33.9021C20.7257 33.9021 20.2285 34.3992 20.2285 35.0125C20.2285 35.6258 20.7257 36.123 21.339 36.123ZM9.32855 17.1774C9.32855 17.807 8.81817 18.3174 8.18858 18.3174C7.55899 18.3174 7.0486 17.807 7.0486 17.1774C7.0486 16.5478 7.55899 16.0375 8.18858 16.0375C8.81817 16.0375 9.32855 16.5478 9.32855 17.1774ZM34.2239 18.3174C34.8535 18.3174 35.3639 17.807 35.3639 17.1774C35.3639 16.5478 34.8535 16.0375 34.2239 16.0375C33.5943 16.0375 33.0839 16.5478 33.0839 17.1774C33.0839 17.807 33.5943 18.3174 34.2239 18.3174Z" fill="white"/>
<path d="M53.7819 11.3904H70.8706V14.5835H64.1593V32.5H60.4637V14.5835H53.7819V11.3904ZM79.4577 23.5122C79.4183 22.98 79.3 22.4675 79.1029 21.9748C78.9255 21.482 78.6693 21.0583 78.3342 20.7035C78.0189 20.329 77.6247 20.0333 77.1516 19.8165C76.6983 19.58 76.1858 19.4617 75.6142 19.4617C75.0229 19.4617 74.4809 19.5701 73.9881 19.787C73.5151 19.9841 73.1012 20.2699 72.7464 20.6443C72.4113 20.9991 72.1354 21.4229 71.9186 21.9156C71.7215 22.4084 71.6131 22.9406 71.5934 23.5122H79.4577ZM71.5934 25.7296C71.5934 26.3209 71.6722 26.8925 71.8299 27.4443C72.0073 27.9962 72.2635 28.4791 72.5986 28.893C72.9337 29.307 73.3574 29.642 73.8699 29.8983C74.3823 30.1348 74.9934 30.253 75.7029 30.253C76.6884 30.253 77.4768 30.0461 78.0681 29.6322C78.6792 29.1985 79.1325 28.558 79.4281 27.7104H82.6212C82.4438 28.5383 82.1383 29.2774 81.7047 29.9278C81.271 30.5783 80.7487 31.1301 80.1377 31.5835C79.5267 32.0171 78.8368 32.3423 78.0681 32.5591C77.3192 32.7957 76.5308 32.9139 75.7029 32.9139C74.5006 32.9139 73.4363 32.7168 72.5099 32.3226C71.5835 31.9284 70.7951 31.3765 70.1447 30.667C69.5139 29.9574 69.031 29.1099 68.696 28.1243C68.3806 27.1388 68.2229 26.0548 68.2229 24.8722C68.2229 23.7881 68.3905 22.7632 68.7255 21.7974C69.0803 20.8119 69.5731 19.9545 70.2038 19.2252C70.8542 18.4762 71.6328 17.8849 72.5395 17.4513C73.4461 17.0177 74.471 16.8009 75.6142 16.8009C76.8166 16.8009 77.8908 17.0571 78.8368 17.5696C79.8026 18.0623 80.6009 18.7226 81.2316 19.5504C81.8624 20.3783 82.3157 21.3342 82.5916 22.4183C82.8873 23.4826 82.9661 24.5864 82.8282 25.7296H71.5934ZM95.1174 22.3296C94.9794 21.3835 94.595 20.6739 93.9643 20.2009C93.3533 19.7081 92.5747 19.4617 91.6287 19.4617C91.195 19.4617 90.7318 19.5406 90.2391 19.6983C89.7463 19.8362 89.293 20.1122 88.8791 20.5261C88.4652 20.9203 88.1202 21.482 87.8443 22.2113C87.5684 22.9209 87.4304 23.8571 87.4304 25.02C87.4304 25.6507 87.4994 26.2814 87.6373 26.9122C87.795 27.5429 88.0316 28.1046 88.3469 28.5974C88.682 29.0901 89.1058 29.4942 89.6182 29.8096C90.1307 30.1052 90.7516 30.253 91.4808 30.253C92.4663 30.253 93.2745 29.9475 93.9052 29.3365C94.5556 28.7255 94.9597 27.8681 95.1174 26.7643H98.4878C98.1724 28.7551 97.4136 30.2826 96.2113 31.347C95.0287 32.3916 93.4518 32.9139 91.4808 32.9139C90.2785 32.9139 89.2142 32.7168 88.2878 32.3226C87.3811 31.9087 86.6124 31.3568 85.9817 30.667C85.351 29.9574 84.8681 29.1197 84.533 28.1539C84.2176 27.1881 84.06 26.1435 84.06 25.02C84.06 23.8768 84.2176 22.8026 84.533 21.7974C84.8484 20.7922 85.3214 19.9249 85.9521 19.1956C86.5829 18.4467 87.3614 17.8652 88.2878 17.4513C89.2339 17.0177 90.3376 16.8009 91.5991 16.8009C92.486 16.8009 93.3237 16.9191 94.1121 17.1556C94.9202 17.3725 95.6298 17.7075 96.2408 18.1609C96.8716 18.6142 97.384 19.1858 97.7782 19.8756C98.1724 20.5655 98.4089 21.3835 98.4878 22.3296H95.1174ZM100.636 11.3904H104.007V19.2252H104.066C104.48 18.5354 105.091 17.9638 105.899 17.5104C106.727 17.0374 107.643 16.8009 108.648 16.8009C110.324 16.8009 111.644 17.2345 112.61 18.1017C113.576 18.969 114.059 20.2699 114.059 22.0043V32.5H110.688V22.8913C110.649 21.689 110.393 20.8217 109.92 20.2896C109.447 19.7377 108.707 19.4617 107.702 19.4617C107.131 19.4617 106.618 19.5701 106.165 19.787C105.711 19.9841 105.327 20.2699 105.012 20.6443C104.696 20.9991 104.45 21.4229 104.273 21.9156C104.095 22.4084 104.007 22.9307 104.007 23.4826V32.5H100.636V11.3904ZM127.517 23.5122C127.478 22.98 127.36 22.4675 127.163 21.9748C126.985 21.482 126.729 21.0583 126.394 20.7035C126.079 20.329 125.684 20.0333 125.211 19.8165C124.758 19.58 124.245 19.4617 123.674 19.4617C123.083 19.4617 122.541 19.5701 122.048 19.787C121.575 19.9841 121.161 20.2699 120.806 20.6443C120.471 20.9991 120.195 21.4229 119.978 21.9156C119.781 22.4084 119.673 22.9406 119.653 23.5122H127.517ZM119.653 25.7296C119.653 26.3209 119.732 26.8925 119.89 27.4443C120.067 27.9962 120.323 28.4791 120.658 28.893C120.993 29.307 121.417 29.642 121.93 29.8983C122.442 30.1348 123.053 30.253 123.763 30.253C124.748 30.253 125.537 30.0461 126.128 29.6322C126.739 29.1985 127.192 28.558 127.488 27.7104H130.681C130.503 28.5383 130.198 29.2774 129.764 29.9278C129.331 30.5783 128.808 31.1301 128.197 31.5835C127.586 32.0171 126.897 32.3423 126.128 32.5591C125.379 32.7957 124.59 32.9139 123.763 32.9139C122.56 32.9139 121.496 32.7168 120.57 32.3226C119.643 31.9284 118.855 31.3765 118.204 30.667C117.574 29.9574 117.091 29.1099 116.756 28.1243C116.44 27.1388 116.283 26.0548 116.283 24.8722C116.283 23.7881 116.45 22.7632 116.785 21.7974C117.14 20.8119 117.633 19.9545 118.263 19.2252C118.914 18.4762 119.692 17.8849 120.599 17.4513C121.506 17.0177 122.531 16.8009 123.674 16.8009C124.876 16.8009 125.95 17.0571 126.897 17.5696C127.862 18.0623 128.661 18.7226 129.291 19.5504C129.922 20.3783 130.375 21.3342 130.651 22.4183C130.947 23.4826 131.026 24.5864 130.888 25.7296H119.653ZM133.125 28.5087H137.234V32.5H133.125V28.5087ZM153.298 29.1C153.298 29.5139 153.347 29.8096 153.446 29.987C153.564 30.1643 153.781 30.253 154.096 30.253C154.195 30.253 154.313 30.253 154.451 30.253C154.589 30.253 154.746 30.2333 154.924 30.1939V32.5296C154.806 32.569 154.648 32.6084 154.451 32.6478C154.273 32.707 154.086 32.7562 153.889 32.7957C153.692 32.8351 153.495 32.8646 153.298 32.8843C153.101 32.9041 152.933 32.9139 152.795 32.9139C152.105 32.9139 151.534 32.7759 151.08 32.5C150.627 32.2241 150.331 31.7412 150.193 31.0513C149.523 31.7017 148.695 32.1748 147.71 32.4704C146.744 32.7661 145.808 32.9139 144.901 32.9139C144.211 32.9139 143.551 32.8154 142.92 32.6183C142.29 32.4409 141.728 32.1748 141.235 31.82C140.762 31.4455 140.378 30.9823 140.082 30.4304C139.806 29.8588 139.668 29.1985 139.668 28.4496C139.668 27.5035 139.836 26.7348 140.171 26.1435C140.526 25.5522 140.979 25.089 141.531 24.7539C142.102 24.4188 142.733 24.1823 143.423 24.0443C144.133 23.8867 144.842 23.7684 145.552 23.6896C146.163 23.5713 146.744 23.4925 147.296 23.453C147.848 23.3939 148.331 23.3052 148.745 23.187C149.178 23.0687 149.513 22.8913 149.75 22.6548C150.006 22.3985 150.134 22.0241 150.134 21.5313C150.134 21.0977 150.026 20.7429 149.809 20.467C149.612 20.191 149.356 19.9841 149.04 19.8461C148.745 19.6884 148.41 19.5899 148.035 19.5504C147.661 19.4913 147.306 19.4617 146.971 19.4617C146.025 19.4617 145.246 19.6588 144.635 20.053C144.024 20.4472 143.679 21.0583 143.6 21.8861H140.23C140.289 20.9006 140.526 20.0826 140.94 19.4322C141.353 18.7817 141.876 18.2594 142.506 17.8652C143.157 17.471 143.886 17.1951 144.694 17.0374C145.502 16.8797 146.33 16.8009 147.178 16.8009C147.927 16.8009 148.666 16.8797 149.395 17.0374C150.124 17.1951 150.775 17.4513 151.346 17.8061C151.938 18.1609 152.411 18.6241 152.766 19.1956C153.12 19.7475 153.298 20.4275 153.298 21.2356V29.1ZM149.927 24.8426C149.415 25.1777 148.784 25.3846 148.035 25.4635C147.286 25.5226 146.537 25.6212 145.788 25.7591C145.433 25.8183 145.089 25.907 144.753 26.0252C144.418 26.1238 144.123 26.2716 143.866 26.4687C143.61 26.6461 143.403 26.8925 143.246 27.2078C143.108 27.5035 143.039 27.8681 143.039 28.3017C143.039 28.6762 143.147 28.9916 143.364 29.2478C143.581 29.5041 143.837 29.711 144.133 29.8687C144.448 30.0067 144.783 30.1052 145.138 30.1643C145.512 30.2235 145.847 30.253 146.143 30.253C146.517 30.253 146.922 30.2038 147.355 30.1052C147.789 30.0067 148.193 29.8391 148.567 29.6026C148.962 29.3661 149.287 29.0704 149.543 28.7157C149.799 28.3412 149.927 27.8878 149.927 27.3557V24.8426ZM156.422 11.3904H159.792V14.5835H156.422V11.3904ZM156.422 17.2148H159.792V32.5H156.422V17.2148Z" fill="white"/>
</svg>
