<svg width="32" height="32" viewBox="0 0 32 32" fill="none" xmlns="http://www.w3.org/2000/svg">
<path fill-rule="evenodd" clip-rule="evenodd" d="M25.1812 25.6641C22.8749 25.6641 21.0054 27.5336 21.0054 29.8399V29.8399C21.0054 29.8658 21.0264 29.8868 21.0524 29.8868H29.4039C29.4299 29.8868 29.4509 29.8658 29.4509 29.8399V29.8399C29.4509 27.5336 27.5814 25.6641 25.2751 25.6641H25.1812Z" stroke="white" stroke-width="1.5" stroke-linecap="round" stroke-linejoin="round"/>
<circle cx="25.2281" cy="23.5538" r="2.11139" stroke="white" stroke-width="1.5" stroke-linecap="round" stroke-linejoin="round"/>
<path fill-rule="evenodd" clip-rule="evenodd" d="M6.62647 25.6641C4.32025 25.6641 2.45068 27.5336 2.45068 29.8399V29.8399C2.45068 29.8658 2.47172 29.8868 2.49767 29.8868H10.8492C10.8752 29.8868 10.8962 29.8658 10.8962 29.8399V29.8399C10.8962 27.5336 9.02667 25.6641 6.72044 25.6641H6.62647Z" stroke="white" stroke-width="1.5" stroke-linecap="round" stroke-linejoin="round"/>
<circle cx="6.6734" cy="23.5538" r="2.11139" stroke="white" stroke-width="1.5" stroke-linecap="round" stroke-linejoin="round"/>
<path fill-rule="evenodd" clip-rule="evenodd" d="M15.898 25.1349C13.3035 25.1349 11.2002 27.2381 11.2002 29.8327V29.8327C11.2002 29.8618 11.2239 29.8855 11.2531 29.8855H11.794H12.3879H13.5755H15.9508H20.6486C20.6778 29.8855 20.7014 29.8618 20.7014 29.8327V29.8327C20.7014 27.2381 18.5982 25.1349 16.0037 25.1349H15.898Z" stroke="white" stroke-width="1.5" stroke-linecap="round" stroke-linejoin="round"/>
<ellipse cx="15.951" cy="22.7593" rx="2.37531" ry="2.37531" stroke="white" stroke-width="1.5" stroke-linecap="round" stroke-linejoin="round"/>
<path d="M14.9717 7.45568C15.4734 6.74554 16.5268 6.74554 17.0285 7.45568V7.45568C17.2794 7.81088 17.6959 8.01143 18.13 7.98615V7.98615C18.998 7.93561 19.6548 8.75916 19.4124 9.59415V9.59415C19.2911 10.0118 19.394 10.4624 19.6844 10.7861V10.7861C20.2651 11.4332 20.0307 12.4602 19.2268 12.7913V12.7913C18.8246 12.9568 18.5364 13.3182 18.4645 13.7471V13.7471C18.3206 14.6046 17.3715 15.0617 16.6114 14.6395V14.6395C16.2312 14.4284 15.769 14.4284 15.3888 14.6395V14.6395C14.6286 15.0617 13.6796 14.6046 13.5357 13.7471V13.7471C13.4637 13.3182 13.1755 12.9568 12.7734 12.7913V12.7913C11.9694 12.4602 11.735 11.4332 12.3157 10.7861V10.7861C12.6062 10.4624 12.7091 10.0118 12.5878 9.59415V9.59415C12.3454 8.75916 13.0022 7.93561 13.8702 7.98615V7.98615C14.3043 8.01143 14.7208 7.81088 14.9717 7.45568V7.45568Z" stroke="white" stroke-width="1.5" stroke-linecap="round"/>
<ellipse cx="16.0001" cy="10.9994" rx="1.93569" ry="1.93566" stroke="white" stroke-linecap="round"/>
<path d="M25.3869 18.2943V17C25.3869 15.8954 24.4914 15 23.3869 15H20.7901M7 18.2943V17C7 15.8954 7.89543 15 9 15H11.5967" stroke="white" stroke-width="1.5" stroke-linecap="round"/>
<path d="M16 18L16 17" stroke="white" stroke-width="1.5" stroke-linecap="round"/>
</svg>
