<svg width="32" height="32" viewBox="0 0 32 32" fill="none" xmlns="http://www.w3.org/2000/svg">
<g clip-path="url(#clip0_2929_4797)">
<path d="M31.5907 22.2146V10.1926C31.5907 8.9991 30.5468 8.03577 29.2536 8.03577H18.2953H7.33707C6.04384 8.03577 5 8.9991 5 10.1926V22.2146H31.5907Z" stroke="white" stroke-width="1.5" stroke-linecap="round" stroke-linejoin="round"/>
<path d="M26.3867 19.5682L26.3867 13.4573" stroke="white" stroke-width="1.5"/>
<path d="M23.4946 19.5682L23.4946 12.3173" stroke="white" stroke-width="1.5"/>
<path d="M20.603 19.5682L20.603 15.9433" stroke="white" stroke-width="1.5"/>
<path d="M15.0739 15.0973C15.0739 15.8584 14.8237 16.5984 14.3619 17.2033C13.9 17.8083 13.2521 18.2447 12.5179 18.4453C11.7837 18.6459 11.004 18.5996 10.2986 18.3136C9.59334 18.0275 9.00161 17.5176 8.61458 16.8622C8.22754 16.2068 8.06666 15.4424 8.1567 14.6867C8.24673 13.9309 8.5827 13.2257 9.11287 12.6796C9.64304 12.1335 10.338 11.7768 11.0908 11.6645C11.8436 11.5521 12.6124 11.6903 13.2789 12.0578L11.6031 15.0973H15.0739Z" fill="white"/>
<path d="M14.1981 11.4603C14.7067 11.7521 15.133 12.168 15.4374 12.6692C15.7417 13.1704 15.9142 13.7405 15.9386 14.3263L12.4708 14.4708L14.1981 11.4603Z" fill="white"/>
<path fill-rule="evenodd" clip-rule="evenodd" d="M25.3863 31H13.6333L15.3268 27.4599C15.4284 27.2239 15.7502 27.0587 16.1227 27.0587H22.8969C23.2694 27.0587 23.5911 27.2239 23.6928 27.4599L25.3863 31Z" stroke="white" stroke-width="1.5" stroke-linecap="round" stroke-linejoin="round"/>
<path fill-rule="evenodd" clip-rule="evenodd" d="M31.5907 22.2153V24.5237C31.5907 25.9257 30.5468 27.0574 29.2536 27.0574H7.33707C6.04384 27.0574 5 25.9257 5 24.5237V22.2153H31.5907Z" stroke="white" stroke-width="1.5" stroke-linecap="round" stroke-linejoin="round"/>
</g>
<defs>
<clipPath id="clip0_2929_4797">
<rect width="32" height="32" fill="white"/>
</clipPath>
</defs>
</svg>
