<svg width="32" height="32" viewBox="0 0 32 32" fill="none" xmlns="http://www.w3.org/2000/svg">
<path d="M22.4106 19.0263C22.8684 19.5116 22.8684 20.3203 22.3852 20.8056C21.9274 21.2909 21.1898 21.2909 20.732 20.8056L20.3251 20.3742C20.732 20.8595 20.7066 21.6144 20.2742 22.0727C19.8164 22.5579 19.0788 22.5579 18.621 22.0727L18.2141 21.6413C18.621 22.1266 18.5956 22.8814 18.1632 23.3397C17.7054 23.825 16.9678 23.825 16.51 23.3397L16.1031 22.9084C16.51 23.3937 16.4846 24.1485 16.0522 24.6068C15.5944 25.0921 14.8568 25.0921 14.399 24.6068M15.3909 11.2082L11.169 10.6151L7.09961 15.1442L7.43485 16.6906" stroke="white" stroke-width="1.5" stroke-linecap="round" stroke-linejoin="round"/>
<path d="M22.3478 11.2819C19.0833 10.2694 14.648 11.2804 13.237 11.8695C12.6504 13.7638 11.4067 15.6678 11.9314 15.9259C13.1856 16.5427 14.648 14.761 14.648 14.761C14.648 14.761 15.9487 14.761 16.5378 14.6078C17.8913 16.0634 19.4016 15.9259 19.769 15.9259C20.2364 16.9788 21.4065 19.0651 22.3478 18.9867C23.289 18.9084 24.308 18.2139 24.6998 17.8765" stroke="white" stroke-width="1.5" stroke-linecap="round" stroke-linejoin="round"/>
<path d="M28.9657 16.121L26.5749 9.38124C26.4732 9.08469 26.1426 8.92294 25.8628 9.03077L22.6582 10.2979C22.3784 10.4057 22.2258 10.7562 22.3275 11.0527L24.7183 17.7925C24.82 18.089 25.1506 18.2508 25.4304 18.1429L28.635 16.8759C28.9402 16.7411 29.0674 16.4176 28.9657 16.121Z" stroke="white" stroke-width="1.5" stroke-linecap="round" stroke-linejoin="round"/>
<path d="M10.9715 9.5456L8.40271 7.14624C8.17381 6.93057 7.84317 6.95753 7.6397 7.20016L3.13797 12.592C2.9345 12.8346 2.95993 13.1851 3.18883 13.4008L5.75762 15.8001C5.98652 16.0158 6.31716 15.9888 6.52063 15.7462L11.0224 10.3544C11.2258 10.1387 11.2004 9.76127 10.9715 9.5456Z" stroke="white" stroke-width="1.5" stroke-linecap="round" stroke-linejoin="round"/>
<path d="M8.85712 18.8782L7.71261 19.7948C7.20394 20.1992 7.02591 20.981 7.40741 21.5471C7.78891 22.1133 8.55192 22.2481 9.06059 21.8437L9.49296 21.5202C9.5184 21.4932 9.56926 21.4663 9.5947 21.4393L10.2814 20.9001C10.8409 20.4688 10.9172 19.5791 10.4086 19.0399L10.3831 19.013C9.9762 18.5816 9.31493 18.5277 8.85712 18.8782Z" stroke="white" stroke-width="1.5" stroke-linecap="round" stroke-linejoin="round"/>
<path d="M10.3703 21.1032L9.2258 22.0198C8.71713 22.4242 8.53909 23.206 8.9206 23.7721C9.3021 24.3382 10.0651 24.473 10.5738 24.0687L11.0061 23.7451C11.0316 23.7182 11.0824 23.6912 11.1079 23.6643L11.7946 23.1251C12.3541 22.6937 12.4304 21.8041 11.9218 21.2649L11.8963 21.238C11.4894 20.8066 10.8281 20.7527 10.3703 21.1032Z" stroke="white" stroke-width="1.5" stroke-linecap="round" stroke-linejoin="round"/>
<path d="M13.48 24.942L13.658 24.8072C14.243 24.3489 14.2939 23.4592 13.7852 22.947C13.3783 22.5157 12.717 22.4618 12.2592 22.8392L11.4453 23.4592C10.9621 23.9176 10.9366 24.7263 11.3944 25.2385C11.8014 25.6969 12.4881 25.7238 12.9713 25.3464L13.3528 25.0498C13.4037 25.0229 13.4291 24.969 13.48 24.942Z" stroke="white" stroke-width="1.5" stroke-linecap="round" stroke-linejoin="round"/>
<path d="M8.3213 19.2577L8.49934 19.1229C9.08431 18.6646 9.13518 17.775 8.6265 17.2628C8.21957 16.8314 7.5583 16.7775 7.10049 17.1549L6.28662 17.775C5.80338 18.2333 5.77795 19.0421 6.23575 19.5543C6.64269 20.0126 7.32939 20.0395 7.81263 19.6621L8.19413 19.3656C8.245 19.3386 8.27043 19.2847 8.3213 19.2577Z" stroke="white" stroke-width="1.5" stroke-linecap="round" stroke-linejoin="round"/>
<path d="M26.4453 16.5488C26.7684 16.5488 27.0303 16.2712 27.0303 15.9287C27.0303 15.5863 26.7684 15.3087 26.4453 15.3087C26.1223 15.3087 25.8604 15.5863 25.8604 15.9287C25.8604 16.2712 26.1223 16.5488 26.4453 16.5488Z" fill="white"/>
<path d="M5.52784 13.9404C5.85091 13.9404 6.11281 13.6628 6.11281 13.3203C6.11281 12.9779 5.85091 12.7003 5.52784 12.7003C5.20477 12.7003 4.94287 12.9779 4.94287 13.3203C4.94287 13.6628 5.20477 13.9404 5.52784 13.9404Z" fill="white"/>
</svg>
