<svg width="32" height="32" viewBox="0 0 32 32" fill="none" xmlns="http://www.w3.org/2000/svg">
<g clip-path="url(#clip0_2929_4691)">
<ellipse cx="7.271" cy="14.4972" rx="3.96777" ry="3.96765" stroke="white" stroke-width="1.5" stroke-linecap="round" stroke-linejoin="round"/>
<path d="M5.89674 16.0073C5.76318 15.8867 5.72979 15.7791 5.79657 15.6845L5.98856 15.4119C6.05163 15.3228 6.14808 15.3321 6.27793 15.4397C6.3781 15.5231 6.49681 15.5871 6.63408 15.6317C6.7732 15.6743 6.89284 15.7021 6.99301 15.7151V14.5382C6.84647 14.4844 6.68973 14.4111 6.52278 14.3184C6.43745 14.2702 6.34378 14.1951 6.24176 14.093C6.14159 13.9892 6.0609 13.8695 5.99969 13.7341C5.93848 13.5987 5.90787 13.4308 5.90787 13.2305C5.90787 12.9671 5.98207 12.751 6.13046 12.5822C6.27886 12.4134 6.41798 12.3105 6.54782 12.2734C6.67767 12.2344 6.82606 12.2085 6.99301 12.1955V11.9117C6.99301 11.8004 7.03938 11.7448 7.13213 11.7448H7.35472C7.44747 11.7448 7.49384 11.8004 7.49384 11.9117V12.1955C7.6274 12.2122 7.76652 12.2493 7.9112 12.3068C8.05589 12.3643 8.17368 12.4264 8.26457 12.4932C8.37216 12.573 8.3972 12.6564 8.3397 12.7436L8.15049 13.033C8.08371 13.1331 8.00395 13.1406 7.9112 13.0552C7.84072 12.9903 7.76837 12.9421 7.69418 12.9105C7.61998 12.879 7.5532 12.8549 7.49384 12.8382V13.9233C7.6478 13.9771 7.80547 14.0457 7.96685 14.1292C8.08557 14.1904 8.18759 14.2646 8.27292 14.3518C8.35824 14.439 8.42966 14.5475 8.48716 14.6773C8.54652 14.8072 8.5762 14.9824 8.5762 15.2032C8.5762 15.4499 8.52148 15.6558 8.41204 15.8209C8.30445 15.9859 8.17739 16.1065 8.03085 16.1826C7.88431 16.2586 7.70531 16.3078 7.49384 16.33V16.6583C7.49384 16.7696 7.44747 16.8253 7.35472 16.8253H7.13213C7.03938 16.8253 6.99301 16.7696 6.99301 16.6583V16.33C6.8038 16.3207 6.60347 16.292 6.39201 16.2438C6.1824 16.1974 6.01731 16.1186 5.89674 16.0073ZM6.62017 13.2249C6.62017 13.3585 6.64799 13.4596 6.70364 13.5282C6.75929 13.5969 6.81679 13.6451 6.87615 13.6729C6.90768 13.6877 6.94664 13.7044 6.99301 13.723V12.8215C6.89099 12.8401 6.80288 12.8855 6.72868 12.9578C6.65634 13.0283 6.62017 13.1174 6.62017 13.2249ZM7.49384 15.7068C7.56248 15.6864 7.63946 15.6446 7.72478 15.5816C7.81011 15.5167 7.85277 15.397 7.85277 15.2227C7.85277 15.1021 7.8333 15.0075 7.79434 14.9389C7.75724 14.8684 7.68861 14.809 7.58844 14.7608C7.55877 14.746 7.52723 14.7311 7.49384 14.7163V15.7068Z" fill="white"/>
<path d="M25.0527 27.7167L25.0527 15.6151" stroke="white" stroke-width="1.5" stroke-linecap="round" stroke-linejoin="round"/>
<path d="M10.8828 20.2509L16.7414 13.8988L19.3195 16.0081L24.4757 9.4457" stroke="white" stroke-width="1.5" stroke-linecap="round" stroke-linejoin="round"/>
<path d="M22.7927 7.71748C22.4373 7.86187 22.3701 8.33621 22.6716 8.57355L25.4937 10.7957C25.7818 11.0226 26.208 10.8724 26.2902 10.515L27.1454 6.79898C27.2362 6.40448 26.845 6.07125 26.47 6.22361L22.7927 7.71748Z" fill="white"/>
<path d="M17.3677 27.7163L17.3677 18.556" stroke="white" stroke-width="1.5" stroke-linecap="round" stroke-linejoin="round"/>
<path d="M9.85107 27.7163L9.85107 23.1362" stroke="white" stroke-width="1.5" stroke-linecap="round" stroke-linejoin="round"/>
<path d="M5.271 27.7163L29.6924 27.7163" stroke="white" stroke-width="1.5" stroke-linecap="round" stroke-linejoin="round"/>
<path d="M17.6872 6.92419C17.7215 7.09569 17.7386 7.27005 17.7386 7.44727C17.7386 7.62448 17.7215 7.79884 17.6872 7.97034L18.7505 8.40767L18.3303 9.4281L17.267 8.98219C17.0669 9.27375 16.8211 9.51956 16.5296 9.71965L16.9755 10.7829L15.955 11.2031L15.5177 10.1398C15.3462 10.1741 15.1718 10.1913 14.9946 10.1913C14.8174 10.1913 14.6431 10.1741 14.4716 10.1398L14.0342 11.2031L13.0138 10.7829L13.4597 9.71965C13.1681 9.51956 12.9223 9.27375 12.7222 8.98219L11.6589 9.4281L11.2388 8.40767L12.3021 7.97034C12.2678 7.79884 12.2506 7.62448 12.2506 7.44727C12.2506 7.27005 12.2678 7.09569 12.3021 6.92419L11.2388 6.48686L11.6589 5.46644L12.7222 5.91234C12.9223 5.62079 13.1681 5.37497 13.4597 5.17488L13.0138 4.11158L14.0342 3.69141L14.4716 4.75471C14.6431 4.72041 14.8174 4.70326 14.9946 4.70326C15.1718 4.70326 15.3462 4.72041 15.5177 4.75471L15.955 3.69141L16.9755 4.11158L16.5296 5.17488C16.8211 5.37497 17.0669 5.62079 17.267 5.91234L18.3303 5.46644L18.7505 6.48686L17.6872 6.92419ZM14.9946 9.09367C15.2233 9.09367 15.4377 9.05079 15.6378 8.96504C15.8378 8.87929 16.0122 8.7621 16.1608 8.61347C16.3095 8.46483 16.4267 8.29048 16.5124 8.09039C16.5982 7.89031 16.641 7.67593 16.641 7.44727C16.641 7.2186 16.5982 7.00422 16.5124 6.80414C16.4267 6.60406 16.3095 6.4297 16.1608 6.28106C16.0122 6.13243 15.8378 6.01524 15.6378 5.92949C15.4377 5.84374 15.2233 5.80086 14.9946 5.80086C14.766 5.80086 14.5516 5.84374 14.3515 5.92949C14.1514 6.01524 13.9771 6.13243 13.8284 6.28106C13.6798 6.4297 13.5626 6.60406 13.4769 6.80414C13.3911 7.00422 13.3482 7.2186 13.3482 7.44727C13.3482 7.67593 13.3911 7.89031 13.4769 8.09039C13.5626 8.29048 13.6798 8.46483 13.8284 8.61347C13.9771 8.7621 14.1514 8.87929 14.3515 8.96504C14.5516 9.05079 14.766 9.09367 14.9946 9.09367Z" fill="white"/>
</g>
<defs>
<clipPath id="clip0_2929_4691">
<rect width="32" height="32" fill="white"/>
</clipPath>
</defs>
</svg>
